<svg width="132" height="132" viewBox="0 0 132 132" fill="none" xmlns="http://www.w3.org/2000/svg">
<g clip-path="url(#clip0_184_70)">
<path d="M75.2276 12.2828C74.1635 11.4507 72.8515 10.9987 71.5007 10.9987C70.1499 10.9987 68.8379 11.4507 67.7738 12.2828L57.7305 20.1359L45.122 18.3572C43.7861 18.1695 42.4257 18.4338 41.2571 19.108C40.0886 19.7821 39.1789 20.8275 38.6726 22.078L33.899 33.894L22.0831 38.6675C20.8326 39.1738 19.7872 40.0835 19.113 41.2521C18.4388 42.4206 18.1746 43.781 18.3622 45.117L20.1349 57.7376L12.2879 67.7808C11.4587 68.8439 11.0084 70.1535 11.0084 71.5017C11.0084 72.8499 11.4587 74.1594 12.2879 75.2225L20.1349 85.2658L18.3622 97.8864C18.1746 99.2224 18.4388 100.583 19.113 101.751C19.7872 102.92 20.8326 103.83 22.0831 104.336L33.899 109.109L38.6726 120.925C39.1778 122.177 40.0871 123.224 41.2558 123.899C42.4244 124.574 43.7853 124.839 45.122 124.652L57.7426 122.874L67.7859 130.721C68.849 131.55 70.1585 132 71.5067 132C72.8549 132 74.1645 131.55 75.2276 130.721L85.2708 122.874L97.8914 124.652C99.2281 124.839 100.589 124.574 101.758 123.899C102.926 123.224 103.836 122.177 104.341 120.925L109.114 109.109L120.93 104.336C122.182 103.831 123.229 102.921 123.904 101.753C124.579 100.584 124.845 99.2231 124.657 97.8864L122.879 85.2658L130.726 75.2225C131.555 74.1594 132.005 72.8499 132.005 71.5017C132.005 70.1535 131.555 68.8439 130.726 67.7808L122.879 57.7376L124.657 45.117C124.845 43.7803 124.579 42.4194 123.904 41.2507C123.229 40.0821 122.182 39.1728 120.93 38.6675L109.114 33.894L104.341 22.078C103.835 20.8275 102.925 19.7821 101.756 19.108C100.588 18.4338 99.2274 18.1695 97.8914 18.3572L85.2708 20.1299L75.2276 12.2828Z" fill="#F2E5FF"/>
<path d="M66.3577 50.6524C66.6161 50.2554 66.9237 49.9076 67.2813 49.6306C66.8824 49.413 66.4348 49.3001 65.9805 49.3024H53.025C52.3113 49.3024 51.6269 49.5858 51.1221 50.0902C50.6173 50.5946 50.3334 51.2789 50.3329 51.9925V91.926C50.335 92.6392 50.6193 93.3226 51.1237 93.8269C51.6282 94.3312 52.3117 94.6152 53.025 94.6171H65.9814C66.6953 94.6168 67.3797 94.3331 67.8844 93.8282C68.3891 93.3234 68.6725 92.6388 68.6725 91.925V67.0064L65.7938 53.8013C65.6748 53.2654 65.6635 52.7111 65.7605 52.1707C65.8575 51.6303 66.0608 51.1145 66.3587 50.6534L66.3577 50.6524ZM56.9256 58.0674H62.0877C62.2852 58.0674 62.4747 58.1459 62.6143 58.2856C62.754 58.4252 62.8325 58.6147 62.8325 58.8122C62.8325 59.0097 62.754 59.1991 62.6143 59.3388C62.4747 59.4785 62.2852 59.5569 62.0877 59.5569H56.9256C56.7281 59.5569 56.5386 59.4785 56.399 59.3388C56.2593 59.1991 56.1808 59.0097 56.1808 58.8122C56.1808 58.6147 56.2593 58.4252 56.399 58.2856C56.5386 58.1459 56.7281 58.0674 56.9256 58.0674ZM56.9256 64.4813H62.0877C62.2852 64.4813 62.4747 64.5598 62.6143 64.6994C62.754 64.8391 62.8325 65.0285 62.8325 65.2261C62.8325 65.4236 62.754 65.613 62.6143 65.7527C62.4747 65.8923 62.2852 65.9708 62.0877 65.9708H56.9256C56.7281 65.9708 56.5386 65.8923 56.399 65.7527C56.2593 65.613 56.1808 65.4236 56.1808 65.2261C56.1808 65.0285 56.2593 64.8391 56.399 64.6994C56.5386 64.5598 56.7281 64.4813 56.9256 64.4813ZM56.9256 70.8942H62.0877C62.2852 70.8942 62.4747 70.9727 62.6143 71.1123C62.754 71.252 62.8325 71.4414 62.8325 71.6389C62.8325 71.8365 62.754 72.0259 62.6143 72.1656C62.4747 72.3052 62.2852 72.3837 62.0877 72.3837H56.9256C56.7281 72.3837 56.5386 72.3052 56.399 72.1656C56.2593 72.0259 56.1808 71.8365 56.1808 71.6389C56.1808 71.4414 56.2593 71.252 56.399 71.1123C56.5386 70.9727 56.7281 70.8942 56.9256 70.8942ZM59.5057 86.9937C57.3441 86.9937 55.5854 85.235 55.5854 83.0735C55.5854 80.9119 57.3441 79.1532 59.5057 79.1532C61.6672 79.1532 63.4259 80.9119 63.4259 83.0735C63.4259 85.235 61.6672 86.9937 59.5057 86.9937Z" fill="black"/>
<path d="M93.6766 88.5884L85.1641 49.5746C85.0888 49.229 84.9462 48.9016 84.7444 48.6112C84.5426 48.3207 84.2855 48.0729 83.9879 47.8818C83.6903 47.6908 83.3579 47.5602 83.0098 47.4976C82.6617 47.4351 82.3047 47.4417 81.9591 47.5172L69.3033 50.2791C68.9575 50.3538 68.63 50.4963 68.3396 50.6983C68.0492 50.9004 67.8017 51.1579 67.6114 51.4561C67.4197 51.7533 67.2888 52.0855 67.2264 52.4336C67.164 52.7817 67.1713 53.1388 67.2479 53.484L75.7604 92.4978C75.9127 93.2003 76.3303 93.8016 76.9365 94.1897C77.2337 94.3817 77.5661 94.5127 77.9144 94.5753C78.2627 94.6379 78.6199 94.6307 78.9654 94.5542L91.6212 91.7934C91.967 91.7186 92.2945 91.5761 92.5849 91.3741C92.8753 91.1721 93.1228 90.9145 93.3131 90.6163C93.5048 90.3191 93.6357 89.9869 93.6981 89.6388C93.7605 89.2907 93.7532 88.9336 93.6766 88.5884ZM75.2967 59.4695C75.1037 59.5117 74.9019 59.4756 74.7356 59.369C74.5693 59.2624 74.4522 59.0941 74.4099 58.9011C74.3677 58.7082 74.4039 58.5064 74.5105 58.3401C74.6171 58.1738 74.7854 58.0566 74.9783 58.0144L80.0226 56.913C80.2155 56.8708 80.4174 56.907 80.5837 57.0136C80.7499 57.1202 80.8671 57.2884 80.9093 57.4814C80.9515 57.6744 80.9153 57.8762 80.8087 58.0425C80.7022 58.2088 80.5339 58.3259 80.3409 58.3681L75.2967 59.4695ZM76.6643 65.735C76.4716 65.7763 76.2703 65.7398 76.1044 65.6335C75.9384 65.5271 75.8211 65.3595 75.7781 65.1671C75.7571 65.0716 75.7552 64.9729 75.7723 64.8766C75.7895 64.7803 75.8255 64.6883 75.8783 64.6059C75.931 64.5235 75.9994 64.4523 76.0797 64.3964C76.16 64.3405 76.2504 64.3009 76.346 64.2799L81.3902 63.1795C81.5776 63.1511 81.7686 63.1951 81.9247 63.3025C82.0808 63.41 82.1901 63.5727 82.2305 63.7578C82.2709 63.9429 82.2393 64.1365 82.1422 64.2991C82.0451 64.4618 81.8897 64.5814 81.7076 64.6336L76.6643 65.735ZM78.031 72.0006C77.9355 72.0215 77.8367 72.0233 77.7405 72.0061C77.6442 71.9888 77.5523 71.9528 77.4699 71.9C77.3876 71.8472 77.3165 71.7787 77.2606 71.6985C77.2047 71.6182 77.1652 71.5277 77.1443 71.4322C77.1234 71.3366 77.1215 71.2379 77.1388 71.1416C77.156 71.0454 77.1921 70.9534 77.2448 70.8711C77.2976 70.7887 77.3661 70.7176 77.4464 70.6617C77.5266 70.6059 77.6171 70.5663 77.7127 70.5454L82.7569 69.445C82.9499 69.4028 83.1517 69.439 83.318 69.5456C83.4843 69.6522 83.6014 69.8204 83.6436 70.0134C83.6859 70.2064 83.6497 70.4082 83.5431 70.5745C83.4365 70.7408 83.2682 70.8579 83.0753 70.9001L78.031 72.0006ZM86.1299 84.0118C85.7765 84.5661 85.2888 85.0221 84.7119 85.3373C84.1351 85.6525 83.4879 85.8167 82.8306 85.8147C81.9366 85.8134 81.0699 85.507 80.3737 84.9462C79.6774 84.3854 79.1935 83.6038 79.0017 82.7306C78.8905 82.2278 78.8803 81.7079 78.9715 81.2011C79.0628 80.6943 79.2537 80.2106 79.5333 79.7782C79.8101 79.3439 80.1704 78.969 80.5932 78.675C81.016 78.381 81.493 78.1739 81.9965 78.0656C82.4992 77.9544 83.019 77.944 83.5258 78.0351C84.0326 78.1262 84.5163 78.3169 84.9489 78.5962C85.3829 78.8732 85.7577 79.2335 86.0515 79.6563C86.3452 80.0791 86.5522 80.556 86.6605 81.0594C86.7718 81.5621 86.7822 82.082 86.6912 82.5888C86.6001 83.0956 86.4093 83.5793 86.1299 84.0118Z" fill="black"/>
</g>
<defs>
<clipPath id="clip0_184_70">
<rect width="132" height="132" fill="white"/>
</clipPath>
</defs>
</svg>
