<svg width="144" height="136" viewBox="0 0 144 136" fill="none" xmlns="http://www.w3.org/2000/svg">
<rect width="16" height="16" rx="8" fill="#FFEFC3"/>
<rect width="16" height="16" rx="8" fill="#FFEFC3"/>
<g clip-path="url(#clip0_184_105)">
<rect y="60" width="16" height="16" rx="8" fill="#FFEFC3"/>
<rect y="60" width="16" height="16" rx="8" fill="#FFEFC3"/>
<rect y="60" width="16" height="16" rx="8" fill="#FFEFC3"/>
<rect y="60" width="16" height="16" rx="8" fill="#FFEFC3"/>
</g>
<g clip-path="url(#clip1_184_105)">
<rect y="90" width="16" height="16" rx="8" fill="#FFEFC3"/>
<rect y="90" width="16" height="16" rx="8" fill="#FFEFC3"/>
<rect y="90" width="16" height="16" rx="8" fill="#FFEFC3"/>
<rect y="90" width="16" height="16" rx="8" fill="#FFEFC3"/>
</g>
<g clip-path="url(#clip2_184_105)">
<rect y="120" width="16" height="16" rx="8" fill="#FFEFC3"/>
<rect y="120" width="16" height="16" rx="8" fill="#FFEFC3"/>
<rect y="120" width="16" height="16" rx="8" fill="#FFEFC3"/>
<rect y="120" width="16" height="16" rx="8" fill="#FFEFC3"/>
</g>
<rect y="30" width="16" height="16" rx="8" fill="#FFEFC3"/>
<rect y="30" width="16" height="16" rx="8" fill="#FFEFC3"/>
<rect x="128" width="16" height="16" rx="8" fill="#FFEFC3"/>
<rect x="128" width="16" height="16" rx="8" fill="#FFEFC3"/>
<g clip-path="url(#clip3_184_105)">
<rect x="128" y="60" width="16" height="16" rx="8" fill="#FFEFC3"/>
<rect x="128" y="60" width="16" height="16" rx="8" fill="#FFEFC3"/>
<rect x="128" y="60" width="16" height="16" rx="8" fill="#FFEFC3"/>
<rect x="128" y="60" width="16" height="16" rx="8" fill="#FFEFC3"/>
</g>
<g clip-path="url(#clip4_184_105)">
<rect x="128" y="90" width="16" height="16" rx="8" fill="#FFEFC3"/>
<rect x="128" y="90" width="16" height="16" rx="8" fill="#FFEFC3"/>
<rect x="128" y="90" width="16" height="16" rx="8" fill="#FFEFC3"/>
<rect x="128" y="90" width="16" height="16" rx="8" fill="#FFEFC3"/>
</g>
<g clip-path="url(#clip5_184_105)">
<rect x="128" y="120" width="16" height="16" rx="8" fill="#FFEFC3"/>
<rect x="128" y="120" width="16" height="16" rx="8" fill="#FFEFC3"/>
<rect x="128" y="120" width="16" height="16" rx="8" fill="#FFEFC3"/>
<rect x="128" y="120" width="16" height="16" rx="8" fill="#FFEFC3"/>
</g>
<rect x="128" y="30" width="16" height="16" rx="8" fill="#FFEFC3"/>
<rect x="128" y="30" width="16" height="16" rx="8" fill="#FFEFC3"/>
<rect x="96" width="16" height="16" rx="8" fill="#FFEFC3"/>
<rect x="96" width="16" height="16" rx="8" fill="#FFEFC3"/>
<g clip-path="url(#clip6_184_105)">
<rect x="96" y="60" width="16" height="16" rx="8" fill="#FFEFC3"/>
<rect x="96" y="60" width="16" height="16" rx="8" fill="#FFEFC3"/>
<rect x="96" y="60" width="16" height="16" rx="8" fill="#FFEFC3"/>
<rect x="96" y="60" width="16" height="16" rx="8" fill="#FFEFC3"/>
</g>
<g clip-path="url(#clip7_184_105)">
<rect x="96" y="90" width="16" height="16" rx="8" fill="#FFEFC3"/>
<rect x="96" y="90" width="16" height="16" rx="8" fill="#FFEFC3"/>
<rect x="96" y="90" width="16" height="16" rx="8" fill="#FFEFC3"/>
<rect x="96" y="90" width="16" height="16" rx="8" fill="#FFEFC3"/>
</g>
<g clip-path="url(#clip8_184_105)">
<rect x="96" y="120" width="16" height="16" rx="8" fill="#FFEFC3"/>
<rect x="96" y="120" width="16" height="16" rx="8" fill="#FFEFC3"/>
<rect x="96" y="120" width="16" height="16" rx="8" fill="#FFEFC3"/>
<rect x="96" y="120" width="16" height="16" rx="8" fill="#FFEFC3"/>
</g>
<rect x="96" y="30" width="16" height="16" rx="8" fill="#FFEFC3"/>
<rect x="96" y="30" width="16" height="16" rx="8" fill="#FFEFC3"/>
<rect x="64" width="16" height="16" rx="8" fill="#FFEFC3"/>
<rect x="64" width="16" height="16" rx="8" fill="#FFEFC3"/>
<g clip-path="url(#clip9_184_105)">
<rect x="64" y="60" width="16" height="16" rx="8" fill="#FFEFC3"/>
<rect x="64" y="60" width="16" height="16" rx="8" fill="#FFEFC3"/>
<rect x="64" y="60" width="16" height="16" rx="8" fill="#FFEFC3"/>
<rect x="64" y="60" width="16" height="16" rx="8" fill="#FFEFC3"/>
</g>
<g clip-path="url(#clip10_184_105)">
<rect x="64" y="90" width="16" height="16" rx="8" fill="#FFEFC3"/>
<rect x="64" y="90" width="16" height="16" rx="8" fill="#FFEFC3"/>
<rect x="64" y="90" width="16" height="16" rx="8" fill="#FFEFC3"/>
<rect x="64" y="90" width="16" height="16" rx="8" fill="#FFEFC3"/>
</g>
<g clip-path="url(#clip11_184_105)">
<rect x="64" y="120" width="16" height="16" rx="8" fill="#FFEFC3"/>
<rect x="64" y="120" width="16" height="16" rx="8" fill="#FFEFC3"/>
<rect x="64" y="120" width="16" height="16" rx="8" fill="#FFEFC3"/>
<rect x="64" y="120" width="16" height="16" rx="8" fill="#FFEFC3"/>
</g>
<rect x="64" y="30" width="16" height="16" rx="8" fill="#FFEFC3"/>
<rect x="64" y="30" width="16" height="16" rx="8" fill="#FFEFC3"/>
<rect x="32" width="16" height="16" rx="8" fill="#FFEFC3"/>
<rect x="32" width="16" height="16" rx="8" fill="#FFEFC3"/>
<g clip-path="url(#clip12_184_105)">
<rect x="32" y="60" width="16" height="16" rx="8" fill="#FFEFC3"/>
<rect x="32" y="60" width="16" height="16" rx="8" fill="#FFEFC3"/>
<rect x="32" y="60" width="16" height="16" rx="8" fill="#FFEFC3"/>
<rect x="32" y="60" width="16" height="16" rx="8" fill="#FFEFC3"/>
</g>
<g clip-path="url(#clip13_184_105)">
<rect x="32" y="90" width="16" height="16" rx="8" fill="#FFEFC3"/>
<rect x="32" y="90" width="16" height="16" rx="8" fill="#FFEFC3"/>
<rect x="32" y="90" width="16" height="16" rx="8" fill="#FFEFC3"/>
<rect x="32" y="90" width="16" height="16" rx="8" fill="#FFEFC3"/>
</g>
<g clip-path="url(#clip14_184_105)">
<rect x="32" y="120" width="16" height="16" rx="8" fill="#FFEFC3"/>
<rect x="32" y="120" width="16" height="16" rx="8" fill="#FFEFC3"/>
<rect x="32" y="120" width="16" height="16" rx="8" fill="#FFEFC3"/>
<rect x="32" y="120" width="16" height="16" rx="8" fill="#FFEFC3"/>
</g>
<rect x="32" y="30" width="16" height="16" rx="8" fill="#FFEFC3"/>
<rect x="32" y="30" width="16" height="16" rx="8" fill="#FFEFC3"/>
<defs>
<clipPath id="clip0_184_105">
<rect y="60" width="16" height="16" rx="8" fill="white"/>
</clipPath>
<clipPath id="clip1_184_105">
<rect y="90" width="16" height="16" rx="8" fill="white"/>
</clipPath>
<clipPath id="clip2_184_105">
<rect y="120" width="16" height="16" rx="8" fill="white"/>
</clipPath>
<clipPath id="clip3_184_105">
<rect x="128" y="60" width="16" height="16" rx="8" fill="white"/>
</clipPath>
<clipPath id="clip4_184_105">
<rect x="128" y="90" width="16" height="16" rx="8" fill="white"/>
</clipPath>
<clipPath id="clip5_184_105">
<rect x="128" y="120" width="16" height="16" rx="8" fill="white"/>
</clipPath>
<clipPath id="clip6_184_105">
<rect x="96" y="60" width="16" height="16" rx="8" fill="white"/>
</clipPath>
<clipPath id="clip7_184_105">
<rect x="96" y="90" width="16" height="16" rx="8" fill="white"/>
</clipPath>
<clipPath id="clip8_184_105">
<rect x="96" y="120" width="16" height="16" rx="8" fill="white"/>
</clipPath>
<clipPath id="clip9_184_105">
<rect x="64" y="60" width="16" height="16" rx="8" fill="white"/>
</clipPath>
<clipPath id="clip10_184_105">
<rect x="64" y="90" width="16" height="16" rx="8" fill="white"/>
</clipPath>
<clipPath id="clip11_184_105">
<rect x="64" y="120" width="16" height="16" rx="8" fill="white"/>
</clipPath>
<clipPath id="clip12_184_105">
<rect x="32" y="60" width="16" height="16" rx="8" fill="white"/>
</clipPath>
<clipPath id="clip13_184_105">
<rect x="32" y="90" width="16" height="16" rx="8" fill="white"/>
</clipPath>
<clipPath id="clip14_184_105">
<rect x="32" y="120" width="16" height="16" rx="8" fill="white"/>
</clipPath>
</defs>
</svg>
