<svg width="32" height="30" viewBox="0 0 32 30" fill="none" xmlns="http://www.w3.org/2000/svg">
<mask id="mask0_161_231" style="mask-type:alpha" maskUnits="userSpaceOnUse" x="0" y="0" width="32" height="30">
<path d="M31.1143 0H0V30H31.1143V0Z" fill="white"/>
</mask>
<g mask="url(#mask0_161_231)">
<path d="M15.9883 22.5143C17.1545 21.8275 18.0486 20.8945 18.6706 19.832C19.0205 19.223 19.5388 18.6917 20.1737 18.3418C21.5732 17.5255 23.2706 17.668 24.5146 18.5232C24.087 16.5925 22.8819 14.8432 21.0289 13.7936C19.8886 13.1328 18.6188 12.8218 17.3748 12.8218C16.6751 12.8218 15.9754 12.6274 15.3534 12.2776C13.954 11.4612 13.2154 9.93219 13.3579 8.41612L13.2931 8.42908L13.2802 8.44203C11.8418 9.77669 10.9348 11.6945 10.9348 13.8195C10.9348 15.1542 11.2976 16.4111 11.9196 17.4866C12.2694 18.0956 12.4638 18.7694 12.4638 19.508C12.4638 21.1278 11.5049 22.5272 10.1444 23.1751C12.0362 23.7582 14.1354 23.5768 15.9883 22.5143ZM24.2571 20.6265C23.6092 19.5121 22.0543 19.0845 20.9399 19.7453C20.5511 19.9656 20.2661 20.2766 20.0458 20.6394C19.2554 22 18.128 23.1403 16.7804 23.9307C15.4198 24.7212 13.8649 25.1358 12.31 25.1358C9.10937 25.1358 6.14203 23.4254 4.54821 20.6524C3.90032 19.538 2.34538 19.1104 1.21804 19.7583C0.0518388 20.4321 -0.349854 21.9223 0.323953 23.0755C2.78594 27.3516 7.38598 29.995 12.3229 29.995L12.2581 29.9691C14.6812 29.9691 17.0655 29.3212 19.1776 28.1161C21.2768 26.8981 23.0261 25.1617 24.2312 23.0626C24.6847 22.298 24.6847 21.3651 24.2571 20.6265ZM29.2515 27.0793C31.1045 23.8658 31.5969 20.1469 30.638 16.5834C29.6791 13.02 27.3985 10.0268 24.2109 8.18677C22.1117 6.96873 19.7145 6.33379 17.3044 6.33379C16.4232 6.34675 15.6328 6.80028 15.2052 7.55183C14.5184 8.70508 14.9331 10.1952 16.0993 10.869C16.4621 11.0893 16.8897 11.2059 17.3173 11.2059C18.8982 11.2059 20.4272 11.6206 21.7878 12.3981C26.0768 14.873 27.554 20.3671 25.0791 24.6432C24.4053 25.8094 24.807 27.2996 25.9732 27.9734C26.3489 28.1937 26.7636 28.2973 27.1912 28.2973L27.2042 28.2844H27.1523C28.0075 28.2844 28.8239 27.8179 29.2515 27.0793ZM8.39634 21.9506C9.74396 21.9506 10.8324 20.8621 10.8324 19.5145C10.8324 19.0869 10.7158 18.6593 10.5085 18.2965C9.71804 16.9359 9.30339 15.3939 9.30339 13.826C9.30339 8.88908 13.3203 4.87215 18.2573 4.87215C19.6049 4.87215 20.6933 3.77073 20.6933 2.43607C20.6933 1.08846 19.6049 0 18.2702 0C10.638 0 4.4442 6.20681 4.4442 13.826C4.4442 16.2491 5.07913 18.6334 6.29717 20.7325C6.73774 21.4841 7.54112 21.9506 8.39634 21.9506Z" fill="#7F00FF"/>
</g>
</svg>
