<svg width="77" height="77" viewBox="0 0 77 77" fill="none" xmlns="http://www.w3.org/2000/svg">
<path d="M20.1538 44.6961C24.5107 44.6961 28.0554 41.1514 28.0554 36.7946C28.0554 32.4378 24.5107 28.893 20.1538 28.893C15.797 28.893 12.2523 32.4378 12.2523 36.7946C12.2523 41.1514 15.797 44.6961 20.1538 44.6961ZM20.1538 30.6977C23.5151 30.6977 26.2507 33.4333 26.2507 36.7946C26.2507 40.1558 23.5151 42.8914 20.1538 42.8914C16.7926 42.8914 14.057 40.1558 14.057 36.7946C14.057 33.4333 16.7911 30.6977 20.1538 30.6977ZM56.8461 44.6961C61.203 44.6961 64.7477 41.1514 64.7477 36.7946C64.7477 32.4378 61.203 28.893 56.8461 28.893C52.4893 28.893 48.9446 32.4378 48.9446 36.7946C48.9446 41.1514 52.4893 44.6961 56.8461 44.6961ZM56.8461 30.6977C60.2074 30.6977 62.943 33.4333 62.943 36.7946C62.943 40.1558 60.2074 42.8914 56.8461 42.8914C53.4849 42.8914 50.7493 40.1558 50.7493 36.7946C50.7493 33.4333 53.4849 30.6977 56.8461 30.6977ZM70.6836 33.9447H70.6174C68.3781 33.9447 66.5569 35.7659 66.5569 38.0067V38.0398C66.5569 41.2161 64.9988 44.1276 62.388 45.83C61.6466 46.3128 60.9849 46.5098 60.0991 46.5098H53.5947C52.7104 46.5098 52.0472 46.3128 51.3058 45.83C48.695 44.1276 47.1369 41.2161 47.1369 38.0398V38.0067C47.1369 35.7674 45.3157 33.9447 43.0764 33.9447H43.0102C40.7709 33.9447 38.9497 35.7659 38.9497 38.0067V38.0398C38.9497 39.5678 39.1452 41.0732 39.5302 42.535C39.1933 42.4869 38.8504 42.4613 38.5 42.4613C38.1496 42.4613 37.8067 42.4869 37.4698 42.535C37.8548 41.0717 38.0503 39.5663 38.0503 38.0398V38.0067C38.0503 35.7674 36.2291 33.9447 33.9898 33.9447H33.9236C31.6843 33.9447 29.8631 35.7659 29.8631 38.0067V38.0398C29.8631 41.2161 28.305 44.1276 25.6942 45.83C24.9528 46.3128 24.2911 46.5098 23.4053 46.5098H16.9009C16.0166 46.5098 15.3534 46.3128 14.612 45.83C12.0012 44.1276 10.4431 41.2161 10.4431 38.0398V38.0067C10.4431 35.7674 8.62189 33.9447 6.38258 33.9447H6.31641C4.07709 33.9447 2.25586 35.7659 2.25586 38.0067V38.0398C2.25586 43.887 5.1208 49.3071 9.91977 52.542C10.9018 53.2037 11.5274 54.0369 11.8869 55.1648C12.4945 57.0672 12.6839 58.9246 12.6118 62.2632C12.6092 62.3817 12.6299 62.4996 12.6729 62.6101C12.7159 62.7205 12.7802 62.8214 12.8622 62.9071C12.9441 62.9927 13.0422 63.0613 13.1507 63.109C13.2592 63.1567 13.376 63.1826 13.4946 63.1851H13.5141C14.0029 63.1851 14.4044 62.7941 14.4164 62.3023C14.4946 58.7411 14.2826 56.7304 13.6073 54.6159C13.1231 53.1014 12.2478 51.9344 10.9289 51.0456C6.62771 48.1461 4.06055 43.2839 4.06055 38.0383V38.0052C4.06055 36.7615 5.07268 35.7479 6.31641 35.7479H6.38258C7.62631 35.7479 8.63844 36.76 8.63844 38.0052V38.0383C8.63844 41.8266 10.5033 45.3037 13.6269 47.34C14.6586 48.0122 15.6692 48.313 16.9009 48.313H23.4053C23.7888 48.313 24.1497 48.2844 24.4971 48.2243C23.1045 48.7822 22.118 50.1447 22.118 51.7329V51.763C22.118 57.1138 24.7408 62.0767 29.1337 65.0379C30.012 65.6305 30.5714 66.3749 30.8947 67.384C31.4452 69.106 31.6166 70.7919 31.5504 73.8222C31.5479 73.9408 31.5686 74.0586 31.6116 74.1691C31.6546 74.2795 31.7189 74.3805 31.8009 74.4661C31.8828 74.5517 31.9809 74.6203 32.0894 74.668C32.1979 74.7157 32.3147 74.7416 32.4332 74.7441C32.925 74.7517 33.3446 74.3606 33.3551 73.8614C33.4258 70.6084 33.2318 68.7691 32.6137 66.8351C32.1671 65.438 31.3595 64.3612 30.1428 63.5415C26.2492 60.9172 23.9241 56.5138 23.9241 51.763V51.7329C23.9241 50.644 24.8099 49.7582 25.8988 49.7582H25.9589C27.0478 49.7582 27.9336 50.644 27.9336 51.7329V51.763C27.9336 55.24 29.645 58.4328 32.5129 60.3021C33.4664 60.9232 34.3988 61.2015 35.5388 61.2015H41.4627C42.6012 61.2015 43.5351 60.9247 44.4886 60.3021C47.3565 58.4328 49.0679 55.24 49.0679 51.763V51.7329C49.0679 50.644 49.9538 49.7582 51.0426 49.7582H51.1027C52.1916 49.7582 53.0774 50.644 53.0774 51.7329V51.763C53.0774 56.5138 50.7523 60.9172 46.8587 63.5415C45.6436 64.3612 44.8345 65.438 44.3878 66.8351C43.7697 68.7691 43.5757 70.6084 43.6464 73.8614C43.6514 74.0973 43.7487 74.3219 43.9174 74.4869C44.0861 74.6519 44.3127 74.7443 44.5487 74.7441H44.5683C45.0661 74.7336 45.4616 74.32 45.4511 73.8222C45.3849 70.7919 45.5563 69.106 46.1068 67.384C46.4286 66.3749 46.988 65.629 47.8678 65.0379C52.2607 62.0767 54.8836 57.1138 54.8836 51.763V51.7329C54.8836 50.1432 53.897 48.7822 52.5044 48.2243C52.8518 48.2844 53.2127 48.313 53.5962 48.313H60.1006C61.3323 48.313 62.3429 48.0122 63.3746 47.34C66.4982 45.3037 68.3631 41.8266 68.3631 38.0383V38.0052C68.3631 36.7615 69.3752 35.7479 70.6189 35.7479H70.6836C71.9273 35.7479 72.9395 36.76 72.9395 38.0052V38.0383C72.9395 43.2839 70.3723 48.1461 66.0711 51.0441C64.7537 51.9329 63.8769 53.0999 63.3942 54.6144C62.7189 56.7273 62.5069 58.7396 62.5851 62.3008C62.5901 62.5368 62.6874 62.7613 62.8561 62.9264C63.0248 63.0914 63.2514 63.1837 63.4874 63.1836H63.507C64.0047 63.1731 64.4003 62.7595 64.3897 62.2617C64.3176 58.923 64.507 57.0657 65.1146 55.1633C65.4756 54.0354 66.0997 53.2022 67.0817 52.5405C71.8792 49.3056 74.7441 43.884 74.7441 38.0383V38.0052C74.7441 35.7659 72.9229 33.9447 70.6836 33.9447ZM43.9727 49.7372C43.9727 52.754 41.5183 55.2099 38.5 55.2099C35.4817 55.2099 33.0273 52.7555 33.0273 49.7372C33.0273 46.7188 35.4817 44.2645 38.5 44.2645C41.5183 44.2645 43.9727 46.7188 43.9727 49.7372ZM51.1012 47.9536H51.0411C48.9567 47.9536 47.2618 49.6485 47.2618 51.7329V51.763C47.2618 54.6279 45.8556 57.2552 43.502 58.7907C42.8418 59.2208 42.2507 59.3968 41.4612 59.3968H35.5373C34.7493 59.3968 34.1582 59.2208 33.4965 58.7907C31.1414 57.2552 29.7367 54.6294 29.7367 51.763V51.7329C29.7367 49.6485 28.0418 47.9536 25.9574 47.9536H25.8973C25.7258 47.9536 25.5559 47.9656 25.3904 47.9881C25.8281 47.8317 26.2507 47.6182 26.6793 47.34C29.8029 45.3037 31.6678 41.8266 31.6678 38.0383V38.0052C31.6678 36.7615 32.6799 35.7479 33.9236 35.7479H33.9898C35.2335 35.7479 36.2456 36.76 36.2456 38.0052V38.0383C36.2456 39.7904 35.9569 41.5093 35.3944 43.1576C32.931 44.3246 31.2226 46.8346 31.2226 49.7372C31.2226 53.7496 34.4876 57.0146 38.5 57.0146C42.5124 57.0146 45.7774 53.7496 45.7774 49.7372C45.7774 46.8346 44.069 44.3246 41.6056 43.1576C41.0416 41.5098 40.754 39.78 40.7544 38.0383V38.0052C40.7544 36.7615 41.7665 35.7479 43.0102 35.7479H43.0764C44.3201 35.7479 45.3322 36.76 45.3322 38.0052V38.0383C45.3322 41.8266 47.1971 45.3037 50.3207 47.34C50.7478 47.6182 51.1719 47.8317 51.6096 47.9881C51.4426 47.9656 51.2742 47.9536 51.1012 47.9536ZM37.5977 8.43391V3.1582C37.5977 2.66041 38.0022 2.25586 38.5 2.25586C38.9978 2.25586 39.4023 2.66041 39.4023 3.1582V8.43391C39.4023 8.9317 38.9978 9.33625 38.5 9.33625C38.0022 9.33625 37.5977 8.9317 37.5977 8.43391ZM52.751 12.0102L55.3889 7.44133C55.5088 7.23418 55.7059 7.08303 55.9371 7.02101C56.1683 6.95899 56.4146 6.99116 56.6221 7.11047C56.8292 7.23037 56.9804 7.42752 57.0424 7.65869C57.1044 7.88985 57.0722 8.13618 56.9529 8.34367L54.3151 12.9125C54.1481 13.2013 53.8444 13.3637 53.533 13.3637C53.3747 13.3635 53.2192 13.3217 53.0822 13.2424C52.9451 13.1632 52.8313 13.0493 52.7521 12.9123C52.6729 12.7752 52.6311 12.6197 52.6309 12.4614C52.6307 12.3031 52.6721 12.1475 52.751 12.0102ZM63.7566 23.9181C63.507 23.4865 63.6558 22.9346 64.0875 22.6849L68.6563 20.0471C69.0879 19.7974 69.6399 19.9463 69.8895 20.3779C70.1392 20.8096 69.9903 21.3615 69.5587 21.6111L64.9898 24.249C64.8484 24.3317 64.692 24.3693 64.5401 24.3693C64.3814 24.3695 64.2254 24.3279 64.0879 24.2487C63.9504 24.1695 63.8361 24.0555 63.7566 23.9181ZM20.0471 8.34367C19.7974 7.91205 19.9463 7.36012 20.3779 7.11047C20.8096 6.86082 21.3615 7.00971 21.6111 7.44133L24.249 12.0102C24.4986 12.4418 24.3497 12.9937 23.9181 13.2434C23.7768 13.3261 23.6204 13.3637 23.4685 13.3637C23.1571 13.3637 22.8534 13.2013 22.6864 12.9125L20.0471 8.34367ZM7.11197 20.3779C7.23188 20.1708 7.42902 20.0196 7.66019 19.9576C7.89136 19.8956 8.13769 19.9278 8.34518 20.0471L12.914 22.6849C13.1212 22.8048 13.2723 23.002 13.3344 23.2331C13.3964 23.4643 13.3642 23.7106 13.2449 23.9181C13.078 24.2069 12.7742 24.3693 12.4629 24.3693C12.3095 24.3693 12.1546 24.3302 12.0132 24.249L7.44133 21.6111C7.33871 21.5518 7.24878 21.4728 7.17669 21.3788C7.10459 21.2847 7.05174 21.1773 7.02116 21.0628C6.99057 20.9482 6.98285 20.8288 6.99843 20.7113C7.01401 20.5938 7.0526 20.4805 7.11197 20.3779Z" fill="#FCD462"/>
</svg>
