<svg width="342" height="342" viewBox="0 0 342 342" fill="none" xmlns="http://www.w3.org/2000/svg">
<mask id="mask0_227_2351" style="mask-type:luminance" maskUnits="userSpaceOnUse" x="0" y="0" width="342" height="342">
<path d="M0 0H342V342H0V0Z" fill="white"/>
</mask>
<g mask="url(#mask0_227_2351)">
<path d="M230.416 38.5166L230.397 72.3165" stroke="#E5CCFF" stroke-width="2"/>
<path d="M143.456 28.5374L170.947 37.5666" stroke="#E5CCFF" stroke-width="2"/>
<path d="M230.252 72.2442L171.16 37.5667" stroke="#E5CCFF" stroke-width="2"/>
<path d="M230.492 38.6237L171 37.4868" stroke="#E5CCFF" stroke-width="2"/>
<path d="M230.252 72.3059L209.265 135.371" stroke="#E5CCFF" stroke-width="2"/>
<path d="M171.214 36.9788L153.828 83.1542L230.29 72.4888" stroke="#E5CCFF" stroke-width="2"/>
<path d="M121.39 65.0452L172.496 77.1637L276.278 81.2463" stroke="#E5CCFF" stroke-width="2"/>
<path d="M65.8982 75.175L97.6148 58.8569" stroke="#E5CCFF" stroke-width="2"/>
<path d="M143.062 28.6089L97.5792 58.821" stroke="#E5CCFF" stroke-width="2"/>
<path d="M171.428 37.6201L97.6148 58.6431" stroke="#E5CCFF" stroke-width="2"/>
<path d="M154.194 83.3637L97.6148 58.8569" stroke="#E5CCFF" stroke-width="2"/>
<path d="M230.629 38.8062L290.88 97.845" stroke="#E5CCFF" stroke-width="2"/>
<path d="M230.475 72.2302L290.88 98.4865" stroke="#E5CCFF" stroke-width="2"/>
<path d="M172.496 76.7363L270.675 133.173" stroke="#E5CCFF" stroke-width="2"/>
<path d="M291.007 97.8572L270.649 132.318" stroke="#E5CCFF" stroke-width="2"/>
<path d="M230.359 72.0613L271.05 133.066" stroke="#E5CCFF" stroke-width="2"/>
<path d="M153.792 83.7424L209.455 135.509" stroke="#E5CCFF" stroke-width="2"/>
<path d="M270.542 132.769L210.096 135.509" stroke="#E5CCFF" stroke-width="2"/>
<path d="M172.496 77.3774L141.254 148.019" stroke="#E5CCFF" stroke-width="2"/>
<path d="M153.892 83.146L141.268 148.059" stroke="#E5CCFF" stroke-width="2"/>
<path d="M209.838 135.233L141.268 148.032" stroke="#E5CCFF" stroke-width="2"/>
<path d="M73.3079 134.708L172.389 144.281" stroke="#E5CCFF" stroke-width="2"/>
<path d="M258.668 132.769L172.496 143.854" stroke="#E5CCFF" stroke-width="2"/>
<path d="M141.71 147.91L84.7931 124.648" stroke="#E5CCFF" stroke-width="2"/>
<path d="M97.8444 59.0886L84.5793 125.076" stroke="#E5CCFF" stroke-width="2"/>
<path d="M153.455 83.0393L84.1518 124.862" stroke="#E5CCFF" stroke-width="2"/>
<path d="M82.9617 124.95L46.5286 112.411" stroke="#E5CCFF" stroke-width="2"/>
<path d="M97.9781 58.2683L46.5286 111.984" stroke="#E5CCFF" stroke-width="2"/>
<path d="M172.496 76.9497L47.1698 112.197" stroke="#E5CCFF" stroke-width="2"/>
<path d="M172.496 144.067L305.228 182.308" stroke="#E5CCFF" stroke-width="2"/>
<path d="M291.127 98.0449L305.441 182.094" stroke="#E5CCFF" stroke-width="2"/>
<path d="M270.618 132.062L305.442 181.453" stroke="#E5CCFF" stroke-width="2"/>
<path d="M305.545 182.068L311.737 155.398" stroke="#E5CCFF" stroke-width="2"/>
<path d="M302.639 233.4L302.425 233.186L268.733 260.803L301.079 234.939L301.998 233.4" stroke="#E5CCFF" stroke-width="2"/>
<path d="M169.931 226.575L302.919 233.775L305.648 181.805" stroke="#E5CCFF" stroke-width="2"/>
<path d="M212.186 261.421L252.343 201.515L210.144 135.157" stroke="#E5CCFF" stroke-width="2"/>
<path d="M270.404 132.479L252.129 201.301" stroke="#E5CCFF" stroke-width="2"/>
<path d="M304.753 182.165L252.129 201.301" stroke="#E5CCFF" stroke-width="2"/>
<path d="M172.283 144.068L177.368 208.62L141.221 147.71" stroke="#E5CCFF" stroke-width="2"/>
<path d="M209.579 134.958L176.513 208.62L251.93 200.736" stroke="#E5CCFF" stroke-width="2"/>
<path d="M212.737 261.346L176.513 208.62" stroke="#E5CCFF" stroke-width="2"/>
<path d="M177.657 208.62L100.084 203.406L141.257 147.876" stroke="#E5CCFF" stroke-width="2"/>
<path d="M84.7289 124.781L100.084 203.406" stroke="#E5CCFF" stroke-width="2"/>
<path d="M46.0974 112.805L41.5539 186.243" stroke="#E5CCFF" stroke-width="2"/>
<path d="M84.456 124.468L41.3401 186.457" stroke="#E5CCFF" stroke-width="2"/>
<path d="M172.496 143.213L41.3401 186.029L100.309 203.432" stroke="#E5CCFF" stroke-width="2"/>
<path d="M41.397 186.593L28.6104 159.64" stroke="#E5CCFF" stroke-width="2"/>
<path d="M268.792 261.048L212.33 261.192" stroke="#E5CCFF" stroke-width="2"/>
<path d="M251.972 200.459L268.792 260.621" stroke="#E5CCFF" stroke-width="2"/>
<path d="M304.779 181.968L269.22 261.048" stroke="#E5CCFF" stroke-width="2"/>
<path d="M249.481 292.238L268.792 261.262" stroke="#E5CCFF" stroke-width="2"/>
<path d="M170.572 227.43L54.7944 215.995" stroke="#E5CCFF" stroke-width="2"/>
<path d="M209.601 201.006L170.786 227.216" stroke="#E5CCFF" stroke-width="2"/>
<path d="M212.751 261.711L170.572 227.43" stroke="#E5CCFF" stroke-width="2"/>
<path d="M42.0431 185.856L77.0027 252.786" stroke="#E5CCFF" stroke-width="2"/>
<path d="M171.428 227.002L76.9408 252.993" stroke="#E5CCFF" stroke-width="2"/>
<path d="M100.471 203.052L76.9408 253.207" stroke="#E5CCFF" stroke-width="2"/>
<path d="M48.2301 246.281L76.3279 252.589" stroke="#E5CCFF" stroke-width="2"/>
<path d="M41.4114 185.842L47.6033 245.986" stroke="#E5CCFF" stroke-width="2"/>
<path d="M197.045 306.627L212.813 261.421" stroke="#E5CCFF" stroke-width="2"/>
<path d="M268.618 260.862L197.259 306.413" stroke="#E5CCFF" stroke-width="2"/>
<path d="M249.727 292.435L197.074 306.731" stroke="#E5CCFF" stroke-width="2"/>
<path d="M77.2164 253.283L112.161 302.161" stroke="#E5CCFF" stroke-width="2"/>
<path d="M196.936 306.062L112.482 302.482" stroke="#E5CCFF" stroke-width="2"/>
<path d="M196.936 306.062L112.482 302.482L196.936 306.062Z" fill="#F2E5FF"/>
<path d="M212.676 260.98L142.076 270.45L77.5397 252.78" stroke="#E5CCFF" stroke-width="2"/>
<path d="M100.35 203.069L142.342 270.908" stroke="#E5CCFF" stroke-width="2"/>
<path d="M197.048 306.331L141.489 270.776" stroke="#E5CCFF" stroke-width="2"/>
<path d="M141.81 271.311L112.11 302.727" stroke="#E5CCFF" stroke-width="2"/>
<path d="M177.207 207.969L141.81 271.364" stroke="#E5CCFF" stroke-width="2"/>
</g>
<mask id="mask1_227_2351" style="mask-type:luminance" maskUnits="userSpaceOnUse" x="0" y="0" width="342" height="342">
<path d="M0 0H342V342H0V0Z" fill="white"/>
</mask>
<g mask="url(#mask1_227_2351)">
<path d="M172.496 140.647C174.267 140.647 175.702 142.083 175.702 143.854C175.702 145.624 174.267 147.06 172.496 147.06C170.726 147.06 169.29 145.624 169.29 143.854C169.29 142.083 170.726 140.647 172.496 140.647Z" fill="#F2E5FF"/>
<path d="M100.45 199.655C102.221 199.655 103.656 201.09 103.656 202.861C103.656 204.631 102.221 206.067 100.45 206.067C98.6795 206.067 97.244 204.631 97.244 202.861C97.244 201.09 98.6795 199.655 100.45 199.655Z" fill="#F2E5FF"/>
<path d="M171.214 34.4136C172.984 34.4136 174.42 35.8491 174.42 37.6198C174.42 39.3905 172.984 40.8261 171.214 40.8261C169.443 40.8261 168.008 39.3905 168.008 37.6198C168.008 35.8491 169.443 34.4136 171.214 34.4136Z" fill="#F2E5FF"/>
<path d="M141.803 267.815C143.574 267.815 145.009 269.25 145.009 271.021C145.009 272.792 143.574 274.227 141.803 274.227C140.033 274.227 138.597 272.792 138.597 271.021C138.597 269.25 140.033 267.815 141.803 267.815Z" fill="#F2E5FF"/>
<path d="M212.556 257.631C214.326 257.631 215.762 259.066 215.762 260.837C215.762 262.608 214.326 264.043 212.556 264.043C210.785 264.043 209.349 262.608 209.349 260.837C209.349 259.066 210.785 257.631 212.556 257.631Z" fill="#F2E5FF"/>
<path d="M170.391 223.978C172.162 223.978 173.597 225.413 173.597 227.184C173.597 228.955 172.162 230.39 170.391 230.39C168.62 230.39 167.185 228.955 167.185 227.184C167.185 225.413 168.62 223.978 170.391 223.978Z" fill="#F2E5FF"/>
<path d="M76.9066 249.422C78.6773 249.422 80.1129 250.857 80.1129 252.628C80.1129 254.399 78.6773 255.834 76.9066 255.834C75.1359 255.834 73.7004 254.399 73.7004 252.628C73.7004 250.857 75.1359 249.422 76.9066 249.422Z" fill="#F2E5FF"/>
<path d="M196.804 303.044C198.575 303.044 200.01 304.48 200.01 306.251C200.01 308.021 198.575 309.457 196.804 309.457C195.033 309.457 193.598 308.021 193.598 306.251C193.598 304.48 195.033 303.044 196.804 303.044Z" fill="#F2E5FF"/>
<path d="M251.963 197.384C253.733 197.384 255.169 198.819 255.169 200.59C255.169 202.36 253.733 203.796 251.963 203.796C250.192 203.796 248.756 202.36 248.756 200.59C248.756 198.819 250.192 197.384 251.963 197.384Z" fill="#F2E5FF"/>
<path d="M270.641 128.941C272.412 128.941 273.847 130.377 273.847 132.148C273.847 133.918 272.412 135.354 270.641 135.354C268.87 135.354 267.435 133.918 267.435 132.148C267.435 130.377 268.87 128.941 270.641 128.941Z" fill="#F2E5FF"/>
<path d="M154.105 79.7432C155.876 79.7432 157.311 81.1787 157.311 82.9494C157.311 84.7201 155.876 86.1557 154.105 86.1557C152.334 86.1557 150.899 84.7201 150.899 82.9494C150.899 81.1787 152.334 79.7432 154.105 79.7432Z" fill="#F2E5FF"/>
<path d="M230.231 68.8311C232.001 68.8311 233.437 70.2666 233.437 72.0373C233.437 73.808 232.001 75.2436 230.231 75.2436C228.46 75.2436 227.024 73.808 227.024 72.0373C227.024 70.2666 228.46 68.8311 230.231 68.8311Z" fill="#F2E5FF"/>
<path d="M97.6027 55.2021C99.3734 55.2021 100.809 56.6377 100.809 58.4084C100.809 60.1791 99.3734 61.6146 97.6027 61.6146C95.832 61.6146 94.3965 60.1791 94.3965 58.4084C94.3965 56.6377 95.832 55.2021 97.6027 55.2021Z" fill="#F2E5FF"/>
<path d="M209.612 131.987C211.383 131.987 212.819 133.422 212.819 135.193C212.819 136.964 211.383 138.399 209.612 138.399C207.842 138.399 206.406 136.964 206.406 135.193C206.406 133.422 207.842 131.987 209.612 131.987Z" fill="#F2E5FF"/>
<path d="M172.528 73.7114C174.299 73.7114 175.735 75.147 175.735 76.9177C175.735 78.6884 174.299 80.1239 172.528 80.1239C170.758 80.1239 169.322 78.6884 169.322 76.9177C169.322 75.147 170.758 73.7114 172.528 73.7114Z" fill="#F2E5FF"/>
<path d="M84.0642 121.066C85.8349 121.066 87.2704 122.501 87.2704 124.272C87.2704 126.043 85.8349 127.478 84.0642 127.478C82.2935 127.478 80.8579 126.043 80.8579 124.272C80.8579 122.501 82.2935 121.066 84.0642 121.066Z" fill="#F2E5FF"/>
<path d="M141.24 144.783C143.011 144.783 144.446 146.218 144.446 147.989C144.446 149.76 143.011 151.195 141.24 151.195C139.469 151.195 138.034 149.76 138.034 147.989C138.034 146.218 139.469 144.783 141.24 144.783Z" fill="#F2E5FF"/>
<path d="M41.6973 182.309C43.468 182.309 44.9035 183.744 44.9035 185.515C44.9035 187.286 43.468 188.721 41.6973 188.721C39.9266 188.721 38.491 187.286 38.491 185.515C38.491 183.744 39.9266 182.309 41.6973 182.309Z" fill="#F2E5FF"/>
<path d="M177.308 205.091C179.078 205.091 180.514 206.526 180.514 208.297C180.514 210.068 179.078 211.503 177.308 211.503C175.537 211.503 174.101 210.068 174.101 208.297C174.101 206.526 175.537 205.091 177.308 205.091Z" fill="#F2E5FF"/>
<g opacity="0.408348">
<path d="M177.034 200.713C172.932 200.713 169.606 204.08 169.606 208.233C169.606 212.386 172.932 215.753 177.034 215.753C181.136 215.753 184.461 212.386 184.461 208.233C184.461 204.08 181.136 200.713 177.034 200.713Z" fill="#F2E5FF"/>
<path d="M177.034 200.713C172.932 200.713 169.606 204.08 169.606 208.233C169.606 212.386 172.932 215.753 177.034 215.753C181.136 215.753 184.461 212.386 184.461 208.233C184.461 204.08 181.136 200.713 177.034 200.713Z" stroke="#E5CCFF" stroke-width="2.80645"/>
</g>
<path d="M305.266 178.446C307.037 178.446 308.473 179.881 308.473 181.652C308.473 183.423 307.037 184.858 305.266 184.858C303.496 184.858 302.06 183.423 302.06 181.652C302.06 179.881 303.496 178.446 305.266 178.446Z" fill="#F2E5FF"/>
<path d="M268.53 257.383C270.301 257.383 271.736 258.819 271.736 260.589C271.736 262.36 270.301 263.796 268.53 263.796C266.759 263.796 265.324 262.36 265.324 260.589C265.324 258.819 266.759 257.383 268.53 257.383Z" fill="#F2E5FF"/>
</g>
<mask id="mask2_227_2351" style="mask-type:luminance" maskUnits="userSpaceOnUse" x="0" y="0" width="342" height="342">
<path d="M0 0H342V342H0V0Z" fill="white"/>
</mask>
<g mask="url(#mask2_227_2351)">
<path d="M121.573 64.8315L143.638 28.3616" stroke="#E5CCFF" stroke-width="2"/>
<path d="M65.9235 75.4942L121.421 65.1831" stroke="#E5CCFF" stroke-width="2"/>
<path d="M121.787 65.0451L206.389 54.6016" stroke="#E5CCFF" stroke-width="2"/>
<path d="M206.389 54.8154L143.638 28.3616" stroke="#E5CCFF" stroke-width="2"/>
<path d="M230.292 38.4716L144.066 28.7891" stroke="#E5CCFF" stroke-width="2"/>
<path d="M143.425 25.3689C145.195 25.3689 146.631 26.8044 146.631 28.5751C146.631 30.3459 145.195 31.7814 143.425 31.7814C141.654 31.7814 140.219 30.3459 140.219 28.5751C140.219 26.8044 141.654 25.3689 143.425 25.3689Z" fill="#F2E5FF"/>
<path d="M121.573 62.0527C123.344 62.0527 124.779 63.4883 124.779 65.259C124.779 67.0297 123.344 68.4652 121.573 68.4652C119.802 68.4652 118.367 67.0297 118.367 65.259C118.367 63.4883 119.802 62.0527 121.573 62.0527Z" fill="#F2E5FF"/>
<path d="M273.697 226.403L249.784 292.601" stroke="#E5CCFF" stroke-width="2"/>
<path d="M311.835 155.384L274.124 226.189" stroke="#E5CCFF" stroke-width="2"/>
<path d="M274.124 226.189L302.057 232.818" stroke="#E5CCFF" stroke-width="2"/>
<path d="M249.356 292.387L302.057 232.818" stroke="#E5CCFF" stroke-width="2"/>
<path d="M311.407 155.812L302.057 232.818" stroke="#E5CCFF" stroke-width="2"/>
<path d="M301.843 229.825C303.614 229.825 305.049 231.261 305.049 233.032C305.049 234.802 303.614 236.238 301.843 236.238C300.073 236.238 298.637 234.802 298.637 233.032C298.637 231.261 300.073 229.825 301.843 229.825Z" fill="#F2E5FF"/>
<path d="M311.3 152.392C313.071 152.392 314.507 153.827 314.507 155.598C314.507 157.369 313.071 158.804 311.3 158.804C309.53 158.804 308.094 157.369 308.094 155.598C308.094 153.827 309.53 152.392 311.3 152.392Z" fill="#F2E5FF"/>
<path d="M249.57 289.181C251.34 289.181 252.776 290.616 252.776 292.387C252.776 294.158 251.34 295.593 249.57 295.593C247.799 295.593 246.364 294.158 246.364 292.387C246.364 290.616 247.799 289.181 249.57 289.181Z" fill="#F2E5FF"/>
<path d="M229.957 38.9822L276.248 80.9541" stroke="#E5CCFF" stroke-width="2"/>
<path d="M311.578 156.099L290.876 97.8406" stroke="#E5CCFF" stroke-width="2"/>
<path d="M276.354 80.5266L291.06 97.7452" stroke="#E5CCFF" stroke-width="2"/>
<path d="M229.85 38.9822L206.238 54.388" stroke="#E5CCFF" stroke-width="2"/>
<path d="M291.113 94.5747C292.884 94.5747 294.32 96.0103 294.32 97.781C294.32 99.5517 292.884 100.987 291.113 100.987C289.343 100.987 287.907 99.5517 287.907 97.781C287.907 96.0103 289.343 94.5747 291.113 94.5747Z" fill="#F2E5FF"/>
<path d="M230.385 35.3484C232.155 35.3484 233.591 36.7839 233.591 38.5546C233.591 40.3253 232.155 41.7609 230.385 41.7609C228.614 41.7609 227.178 40.3253 227.178 38.5546C227.178 36.7839 228.614 35.3484 230.385 35.3484Z" fill="#F2E5FF"/>
<path d="M45.6841 113.024L65.7999 74.7769" stroke="#E5CCFF" stroke-width="2"/>
<path d="M65.1586 75.311L71.5276 134.494" stroke="#E5CCFF" stroke-width="2"/>
<path d="M71.5546 135.029L55.3332 216.133" stroke="#E5CCFF" stroke-width="2"/>
<path d="M54.9322 215.812L47.2015 246.637" stroke="#E5CCFF" stroke-width="2"/>
<path d="M143 28.4065L65.3459 75.6319" stroke="#E5CCFF" stroke-width="2"/>
<path d="M47.5487 246.21L28.8811 159.146" stroke="#E5CCFF" stroke-width="2"/>
<path d="M55.146 216.133L28.8811 159.146" stroke="#E5CCFF" stroke-width="2"/>
<path d="M122.538 216.172L54.7184 216.133" stroke="#E5CCFF" stroke-width="2"/>
<path d="M103.87 285.441L54.9857 216.293" stroke="#E5CCFF" stroke-width="2"/>
<path d="M103.603 284.426L47.9227 246.584" stroke="#E5CCFF" stroke-width="2"/>
<path d="M72.1959 134.708L28.8811 159.146" stroke="#E5CCFF" stroke-width="2"/>
<path d="M65.2656 75.418L28.8811 159.146" stroke="#E5CCFF" stroke-width="2"/>
<path d="M45.684 112.383L29.3085 159.574" stroke="#E5CCFF" stroke-width="2"/>
<path d="M28.6673 156.154C30.438 156.154 31.8736 157.589 31.8736 159.36C31.8736 161.131 30.438 162.566 28.6673 162.566C26.8966 162.566 25.4611 161.131 25.4611 159.36C25.4611 157.589 26.8966 156.154 28.6673 156.154Z" fill="#F2E5FF"/>
<path d="M54.9322 212.713C56.7029 212.713 58.1385 214.148 58.1385 215.919C58.1385 217.69 56.7029 219.125 54.9322 219.125C53.1615 219.125 51.726 217.69 51.726 215.919C51.726 214.148 53.1615 212.713 54.9322 212.713Z" fill="#F2E5FF"/>
<path d="M47.6555 243.003C49.4262 243.003 50.8618 244.439 50.8618 246.21C50.8618 247.98 49.4262 249.416 47.6555 249.416C45.8848 249.416 44.4493 247.98 44.4493 246.21C44.4493 244.439 45.8848 243.003 47.6555 243.003Z" fill="#F2E5FF"/>
<path d="M45.684 109.497C47.4547 109.497 48.8903 110.933 48.8903 112.703C48.8903 114.474 47.4547 115.91 45.684 115.91C43.9133 115.91 42.4778 114.474 42.4778 112.703C42.4778 110.933 43.9133 109.497 45.684 109.497Z" fill="#F2E5FF"/>
<path d="M65.5862 71.998C67.3569 71.998 68.7924 73.4336 68.7924 75.2043C68.7924 76.975 67.3569 78.4105 65.5862 78.4105C63.8155 78.4105 62.3799 76.975 62.3799 75.2043C62.3799 73.4336 63.8155 71.998 65.5862 71.998Z" fill="#F2E5FF"/>
<path d="M276.63 81.5361L258.82 132.417" stroke="#E5CCFF" stroke-width="2"/>
<path d="M311.614 155.591L258.82 132.417" stroke="#E5CCFF" stroke-width="2"/>
<path d="M210.007 200.809L258.82 132.417" stroke="#E5CCFF" stroke-width="2"/>
<path d="M274.286 225.982L258.82 132.417" stroke="#E5CCFF" stroke-width="2"/>
<path d="M276.523 80.8948L312.042 156.018" stroke="#E5CCFF" stroke-width="2"/>
<path d="M276.523 80.8946L206.727 54.7251" stroke="#E5CCFF" stroke-width="2"/>
<path d="M206.299 54.2976L258.82 132.417" stroke="#E5CCFF" stroke-width="2"/>
<path d="M258.606 129.425C260.377 129.425 261.813 130.86 261.813 132.631C261.813 134.402 260.377 135.837 258.606 135.837C256.836 135.837 255.4 134.402 255.4 132.631C255.4 130.86 256.836 129.425 258.606 129.425Z" fill="#F2E5FF"/>
<path d="M276.416 77.6882C278.187 77.6882 279.622 79.1238 279.622 80.8945C279.622 82.6652 278.187 84.1007 276.416 84.1007C274.646 84.1007 273.21 82.6652 273.21 80.8945C273.21 79.1238 274.646 77.6882 276.416 77.6882Z" fill="#F2E5FF"/>
<path d="M121.345 65.0312L163.152 123.576" stroke="#E5CCFF" stroke-width="2"/>
<path d="M72.467 134.632L163.152 123.576" stroke="#E5CCFF" stroke-width="2"/>
<path d="M122.157 215.547L72.0496 134.505" stroke="#E5CCFF" stroke-width="2"/>
<path d="M72.2634 134.229L121.432 65.1436" stroke="#E5CCFF" stroke-width="2"/>
<path d="M122.324 215.896L163.152 123.576" stroke="#E5CCFF" stroke-width="2"/>
<path d="M210.29 201.006L163.152 123.576" stroke="#E5CCFF" stroke-width="2"/>
<path d="M258.882 132.845L163.152 123.148" stroke="#E5CCFF" stroke-width="2"/>
<path d="M206.237 54.6636L163.152 123.576" stroke="#E5CCFF" stroke-width="2"/>
<path d="M162.938 120.583C164.709 120.583 166.144 122.019 166.144 123.789C166.144 125.56 164.709 126.996 162.938 126.996C161.168 126.996 159.732 125.56 159.732 123.789C159.732 122.019 161.168 120.583 162.938 120.583Z" fill="#F2E5FF"/>
<path d="M72.8056 131.69C74.5763 131.69 76.0118 133.126 76.0118 134.896C76.0118 136.667 74.5763 138.103 72.8056 138.103C71.0348 138.103 69.5993 136.667 69.5993 134.896C69.5993 133.126 71.0348 131.69 72.8056 131.69Z" fill="#F2E5FF"/>
<path d="M206.226 51.374C207.996 51.374 209.432 52.8096 209.432 54.5803C209.432 56.351 207.996 57.7865 206.226 57.7865C204.455 57.7865 203.019 56.351 203.019 54.5803C203.019 52.8096 204.455 51.374 206.226 51.374Z" fill="#F2E5FF"/>
<path d="M122.335 212.32C124.105 212.32 125.541 213.756 125.541 215.526C125.541 217.297 124.105 218.733 122.335 218.733C120.564 218.733 119.128 217.297 119.128 215.526C119.128 213.756 120.564 212.32 122.335 212.32Z" fill="#F2E5FF"/>
<g opacity="0.7496">
<path d="M206.119 47.103C201.943 47.103 198.557 50.5024 198.557 54.6954C198.557 58.8885 201.943 62.2878 206.119 62.2878C210.296 62.2878 213.682 58.8885 213.682 54.6954C213.682 50.5024 210.296 47.103 206.119 47.103Z" fill="#F2E5FF"/>
<path d="M206.119 47.103C201.943 47.103 198.557 50.5024 198.557 54.6954C198.557 58.8885 201.943 62.2878 206.119 62.2878C210.296 62.2878 213.682 58.8885 213.682 54.6954C213.682 50.5024 210.296 47.103 206.119 47.103Z" stroke="#E5CCFF" stroke-width="3.59099"/>
</g>
<path d="M121.972 215.483L103.566 284.372" stroke="#E5CCFF" stroke-width="2"/>
<path d="M210.045 200.671L274.293 225.792" stroke="#E5CCFF" stroke-width="2"/>
<path d="M103.329 284.124L170.442 315.15" stroke="#E5CCFF" stroke-width="2"/>
<path d="M170.679 314.426L192.443 277.571" stroke="#E5CCFF" stroke-width="2"/>
<path d="M103.78 282.662L192.336 277.357" stroke="#E5CCFF" stroke-width="2"/>
<path d="M121.759 215.002L192.336 277.357" stroke="#E5CCFF" stroke-width="2"/>
<path d="M121.759 215.109L206.768 201.277" stroke="#E5CCFF" stroke-width="2"/>
<path d="M249.05 292.418L192.336 277.144" stroke="#E5CCFF" stroke-width="2"/>
<path d="M275.255 226.113L192.336 277.144" stroke="#E5CCFF" stroke-width="2"/>
<path d="M210.259 200.992L192.123 277.357" stroke="#E5CCFF" stroke-width="2"/>
<path d="M191.481 272.869C193.252 272.869 194.688 274.304 194.688 276.075C194.688 277.846 193.252 279.281 191.481 279.281C189.711 279.281 188.275 277.846 188.275 276.075C188.275 274.304 189.711 272.869 191.481 272.869Z" fill="#F2E5FF"/>
<path d="M170.145 311.647C171.916 311.647 173.351 313.083 173.351 314.854C173.351 316.624 171.916 318.06 170.145 318.06C168.374 318.06 166.939 316.624 166.939 314.854C166.939 313.083 168.374 311.647 170.145 311.647Z" fill="#F2E5FF"/>
<path d="M103.566 280.976C105.337 280.976 106.773 282.412 106.773 284.182C106.773 285.953 105.337 287.389 103.566 287.389C101.796 287.389 100.36 285.953 100.36 284.182C100.36 282.412 101.796 280.976 103.566 280.976Z" fill="#F2E5FF"/>
<path d="M209.19 198C210.961 198 212.397 199.435 212.397 201.206C212.397 202.976 210.961 204.412 209.19 204.412C207.42 204.412 205.984 202.976 205.984 201.206C205.984 199.435 207.42 198 209.19 198Z" fill="#F2E5FF"/>
<path d="M273.758 223.334C275.529 223.334 276.965 224.77 276.965 226.54C276.965 228.311 275.529 229.747 273.758 229.747C271.988 229.747 270.552 228.311 270.552 226.54C270.552 224.77 271.988 223.334 273.758 223.334Z" fill="#F2E5FF"/>
<path d="M249.981 292.543L170.645 315.123" stroke="#E5CCFF" stroke-width="2"/>
<path d="M111.419 301.319L47.8126 246.713" stroke="#E5CCFF" stroke-width="2"/>
<path d="M103.625 284.733L112.098 301.533" stroke="#E5CCFF" stroke-width="2"/>
<path d="M112.138 301.946L170.712 315.581" stroke="#E5CCFF" stroke-width="2"/>
<path d="M112.381 298.941C114.152 298.941 115.588 300.377 115.588 302.147C115.588 303.918 114.152 305.354 112.381 305.354C110.611 305.354 109.175 303.918 109.175 302.147C109.175 300.377 110.611 298.941 112.381 298.941Z" fill="#F2E5FF"/>
</g>
</svg>
