<svg width="748" height="122" viewBox="0 0 748 122" fill="none" xmlns="http://www.w3.org/2000/svg">
<rect width="787" height="122" rx="20" fill="white"/>
<g clip-path="url(#clip0_192_182)">
<path d="M82.1789 84.918L68.6128 70.8086C72.1021 66.6686 74.0146 61.428 74.012 56.0137C74.012 43.3242 63.6879 33 50.9983 33C38.3087 33 27.9846 43.3242 27.9846 56.0137C27.9846 68.7033 38.3087 79.0275 50.9983 79.0275C55.7621 79.0275 60.3018 77.5906 64.1832 74.863L77.8523 89.0795C78.4236 89.6728 79.1921 90 80.0156 90C80.7951 90 81.5345 89.7028 82.0958 89.1625C82.6688 88.6101 82.9993 87.8531 83.0148 87.0574C83.0304 86.2617 82.7298 85.4923 82.1789 84.918ZM50.9983 39.0036C60.3779 39.0036 68.0084 46.6341 68.0084 56.0137C68.0084 65.3933 60.3779 73.0239 50.9983 73.0239C41.6187 73.0239 33.9881 65.3933 33.9881 56.0137C33.9881 46.6341 41.6187 39.0036 50.9983 39.0036Z" fill="black"/>
</g>
<path d="M123.034 78V43.0909H130.415V57.4943H145.398V43.0909H152.761V78H145.398V63.5795H130.415V78H123.034ZM170.54 78.5114C167.892 78.5114 165.602 77.9489 163.67 76.8239C161.75 75.6875 160.267 74.108 159.222 72.0852C158.176 70.0511 157.653 67.6932 157.653 65.0114C157.653 62.3068 158.176 59.9432 159.222 57.9205C160.267 55.8864 161.75 54.3068 163.67 53.1818C165.602 52.0455 167.892 51.4773 170.54 51.4773C173.188 51.4773 175.472 52.0455 177.392 53.1818C179.324 54.3068 180.812 55.8864 181.858 57.9205C182.903 59.9432 183.426 62.3068 183.426 65.0114C183.426 67.6932 182.903 70.0511 181.858 72.0852C180.812 74.108 179.324 75.6875 177.392 76.8239C175.472 77.9489 173.188 78.5114 170.54 78.5114ZM170.574 72.8864C171.778 72.8864 172.784 72.5455 173.591 71.8636C174.398 71.1705 175.006 70.2273 175.415 69.0341C175.835 67.8409 176.045 66.483 176.045 64.9602C176.045 63.4375 175.835 62.0795 175.415 60.8864C175.006 59.6932 174.398 58.75 173.591 58.0568C172.784 57.3636 171.778 57.017 170.574 57.017C169.358 57.017 168.335 57.3636 167.506 58.0568C166.688 58.75 166.068 59.6932 165.648 60.8864C165.239 62.0795 165.034 63.4375 165.034 64.9602C165.034 66.483 165.239 67.8409 165.648 69.0341C166.068 70.2273 166.688 71.1705 167.506 71.8636C168.335 72.5455 169.358 72.8864 170.574 72.8864ZM192.656 78L185.531 51.8182H192.878L196.935 69.4091H197.173L201.401 51.8182H208.611L212.906 69.3068H213.128L217.116 51.8182H224.446L217.338 78H209.651L205.151 61.5341H204.827L200.327 78H192.656ZM253.355 51.8182V57.2727H237.588V51.8182H253.355ZM241.168 45.5455H248.429V69.9545C248.429 70.625 248.531 71.1477 248.736 71.5227C248.94 71.8864 249.224 72.142 249.588 72.2898C249.963 72.4375 250.395 72.5114 250.884 72.5114C251.224 72.5114 251.565 72.483 251.906 72.4261C252.247 72.358 252.509 72.3068 252.69 72.2727L253.832 77.6761C253.469 77.7898 252.957 77.9205 252.298 78.0682C251.639 78.2273 250.838 78.3239 249.895 78.358C248.145 78.4261 246.611 78.1932 245.293 77.6591C243.986 77.125 242.969 76.2955 242.241 75.1705C241.514 74.0455 241.156 72.625 241.168 70.9091V45.5455ZM269.634 78.5114C266.986 78.5114 264.696 77.9489 262.764 76.8239C260.844 75.6875 259.361 74.108 258.315 72.0852C257.27 70.0511 256.747 67.6932 256.747 65.0114C256.747 62.3068 257.27 59.9432 258.315 57.9205C259.361 55.8864 260.844 54.3068 262.764 53.1818C264.696 52.0455 266.986 51.4773 269.634 51.4773C272.281 51.4773 274.565 52.0455 276.486 53.1818C278.418 54.3068 279.906 55.8864 280.952 57.9205C281.997 59.9432 282.52 62.3068 282.52 65.0114C282.52 67.6932 281.997 70.0511 280.952 72.0852C279.906 74.108 278.418 75.6875 276.486 76.8239C274.565 77.9489 272.281 78.5114 269.634 78.5114ZM269.668 72.8864C270.872 72.8864 271.878 72.5455 272.685 71.8636C273.491 71.1705 274.099 70.2273 274.509 69.0341C274.929 67.8409 275.139 66.483 275.139 64.9602C275.139 63.4375 274.929 62.0795 274.509 60.8864C274.099 59.6932 273.491 58.75 272.685 58.0568C271.878 57.3636 270.872 57.017 269.668 57.017C268.452 57.017 267.429 57.3636 266.599 58.0568C265.781 58.75 265.162 59.6932 264.741 60.8864C264.332 62.0795 264.128 63.4375 264.128 64.9602C264.128 66.483 264.332 67.8409 264.741 69.0341C265.162 70.2273 265.781 71.1705 266.599 71.8636C267.429 72.5455 268.452 72.8864 269.668 72.8864ZM315.141 66.8523V51.8182H322.402V78H315.43V73.2443H315.158C314.567 74.7784 313.584 76.0114 312.209 76.9432C310.845 77.875 309.18 78.3409 307.214 78.3409C305.464 78.3409 303.925 77.9432 302.595 77.1477C301.266 76.3523 300.226 75.2216 299.476 73.7557C298.737 72.2898 298.362 70.5341 298.351 68.4886V51.8182H305.612V67.1932C305.624 68.7386 306.038 69.9602 306.857 70.858C307.675 71.7557 308.771 72.2045 310.146 72.2045C311.021 72.2045 311.839 72.0057 312.601 71.608C313.362 71.1989 313.976 70.5966 314.442 69.8011C314.919 69.0057 315.152 68.0227 315.141 66.8523ZM349.994 59.2841L343.347 59.6932C343.233 59.125 342.989 58.6136 342.614 58.1591C342.239 57.6932 341.744 57.3239 341.131 57.0511C340.528 56.767 339.807 56.625 338.966 56.625C337.841 56.625 336.892 56.8636 336.119 57.3409C335.347 57.8068 334.96 58.4318 334.96 59.2159C334.96 59.8409 335.21 60.3693 335.71 60.8011C336.21 61.233 337.068 61.5795 338.284 61.8409L343.023 62.7955C345.568 63.3182 347.466 64.1591 348.716 65.3182C349.966 66.4773 350.591 68 350.591 69.8864C350.591 71.6023 350.085 73.108 349.074 74.4034C348.074 75.6989 346.699 76.7102 344.949 77.4375C343.21 78.1534 341.205 78.5114 338.932 78.5114C335.466 78.5114 332.705 77.7898 330.648 76.3466C328.602 74.892 327.403 72.9148 327.051 70.4148L334.193 70.0398C334.409 71.0966 334.932 71.9034 335.761 72.4602C336.591 73.0057 337.653 73.2784 338.949 73.2784C340.222 73.2784 341.244 73.0341 342.017 72.5455C342.801 72.0455 343.199 71.4034 343.21 70.6193C343.199 69.9602 342.92 69.4205 342.375 69C341.83 68.5682 340.989 68.2386 339.852 68.0114L335.318 67.108C332.761 66.5966 330.858 65.7102 329.608 64.4489C328.369 63.1875 327.75 61.5795 327.75 59.625C327.75 57.9432 328.205 56.4943 329.114 55.2784C330.034 54.0625 331.324 53.125 332.983 52.4659C334.653 51.8068 336.608 51.4773 338.847 51.4773C342.153 51.4773 344.756 52.1761 346.653 53.5739C348.563 54.9716 349.676 56.875 349.994 59.2841ZM367.095 78.5114C364.402 78.5114 362.084 77.9659 360.141 76.875C358.209 75.7727 356.72 74.2159 355.675 72.2045C354.629 70.1818 354.107 67.7898 354.107 65.0284C354.107 62.3352 354.629 59.9716 355.675 57.9375C356.72 55.9034 358.192 54.3182 360.089 53.1818C361.999 52.0455 364.237 51.4773 366.805 51.4773C368.533 51.4773 370.141 51.7557 371.629 52.3125C373.129 52.858 374.436 53.6818 375.55 54.7841C376.675 55.8864 377.55 57.2727 378.175 58.9432C378.8 60.6023 379.112 62.5455 379.112 64.7727V66.767H357.004V62.267H372.277C372.277 61.2216 372.05 60.2955 371.595 59.4886C371.141 58.6818 370.51 58.0511 369.703 57.5966C368.908 57.1307 367.982 56.8977 366.925 56.8977C365.822 56.8977 364.845 57.1534 363.993 57.6648C363.152 58.1648 362.493 58.8409 362.016 59.6932C361.538 60.5341 361.294 61.4716 361.283 62.5057V66.7841C361.283 68.0795 361.521 69.1989 361.999 70.142C362.487 71.0852 363.175 71.8125 364.061 72.3239C364.947 72.8352 365.999 73.0909 367.214 73.0909C368.021 73.0909 368.76 72.9773 369.43 72.75C370.101 72.5227 370.675 72.1818 371.152 71.7273C371.629 71.2727 371.993 70.7159 372.243 70.0568L378.959 70.5C378.618 72.1136 377.919 73.5227 376.862 74.7273C375.817 75.9205 374.464 76.8523 372.805 77.5227C371.158 78.1818 369.254 78.5114 367.095 78.5114ZM395.097 78V43.0909H418.619V49.1761H402.477V57.4943H417.409V63.5795H402.477V71.9148H418.688V78H395.097ZM431.612 62.8636V78H424.351V51.8182H431.271V56.4375H431.578C432.158 54.9148 433.129 53.7102 434.493 52.8239C435.857 51.9261 437.51 51.4773 439.453 51.4773C441.271 51.4773 442.857 51.875 444.209 52.6705C445.561 53.4659 446.612 54.6023 447.362 56.0795C448.112 57.5455 448.487 59.2955 448.487 61.3295V78H441.226V62.625C441.237 61.0227 440.828 59.7727 439.999 58.875C439.169 57.9659 438.027 57.5114 436.572 57.5114C435.595 57.5114 434.732 57.7216 433.982 58.142C433.243 58.5625 432.663 59.1761 432.243 59.983C431.834 60.7784 431.624 61.7386 431.612 62.8636ZM454.074 78V73.6705L466.892 57.8011V57.6136H454.517V51.8182H475.636V56.5398L463.602 72.017V72.2045H476.08V78H454.074ZM492.712 78.5114C490.064 78.5114 487.774 77.9489 485.842 76.8239C483.922 75.6875 482.439 74.108 481.393 72.0852C480.348 70.0511 479.825 67.6932 479.825 65.0114C479.825 62.3068 480.348 59.9432 481.393 57.9205C482.439 55.8864 483.922 54.3068 485.842 53.1818C487.774 52.0455 490.064 51.4773 492.712 51.4773C495.359 51.4773 497.643 52.0455 499.564 53.1818C501.496 54.3068 502.984 55.8864 504.03 57.9205C505.075 59.9432 505.598 62.3068 505.598 65.0114C505.598 67.6932 505.075 70.0511 504.03 72.0852C502.984 74.108 501.496 75.6875 499.564 76.8239C497.643 77.9489 495.359 78.5114 492.712 78.5114ZM492.746 72.8864C493.95 72.8864 494.956 72.5455 495.763 71.8636C496.57 71.1705 497.178 70.2273 497.587 69.0341C498.007 67.8409 498.217 66.483 498.217 64.9602C498.217 63.4375 498.007 62.0795 497.587 60.8864C497.178 59.6932 496.57 58.75 495.763 58.0568C494.956 57.3636 493.95 57.017 492.746 57.017C491.53 57.017 490.507 57.3636 489.678 58.0568C488.859 58.75 488.24 59.6932 487.82 60.8864C487.411 62.0795 487.206 63.4375 487.206 64.9602C487.206 66.483 487.411 67.8409 487.82 69.0341C488.24 70.2273 488.859 71.1705 489.678 71.8636C490.507 72.5455 491.53 72.8864 492.746 72.8864ZM516.558 67.5341V66.9545C516.57 64.9659 516.746 63.3807 517.087 62.1989C517.439 61.017 517.95 60.0625 518.621 59.3352C519.291 58.608 520.098 57.9489 521.041 57.358C521.746 56.9034 522.376 56.4318 522.933 55.9432C523.49 55.4545 523.933 54.9148 524.263 54.3239C524.592 53.7216 524.757 53.0511 524.757 52.3125C524.757 51.5284 524.57 50.8409 524.195 50.25C523.82 49.6591 523.314 49.2045 522.678 48.8864C522.053 48.5682 521.359 48.4091 520.598 48.4091C519.859 48.4091 519.161 48.5739 518.501 48.9034C517.842 49.2216 517.303 49.6989 516.882 50.3352C516.462 50.9602 516.234 51.7386 516.2 52.6705H509.246C509.303 50.3977 509.848 48.5227 510.882 47.0455C511.916 45.5568 513.286 44.4489 514.99 43.7216C516.695 42.983 518.575 42.6136 520.632 42.6136C522.893 42.6136 524.893 42.9886 526.632 43.7386C528.371 44.4773 529.734 45.5511 530.723 46.9602C531.712 48.3693 532.206 50.0682 532.206 52.0568C532.206 53.3864 531.984 54.5682 531.541 55.6023C531.109 56.625 530.501 57.5341 529.717 58.3295C528.933 59.1136 528.007 59.8239 526.939 60.4602C526.041 60.9943 525.303 61.5511 524.723 62.1307C524.155 62.7102 523.729 63.3807 523.445 64.142C523.172 64.9034 523.03 65.8409 523.018 66.9545V67.5341H516.558ZM519.933 78.4432C518.797 78.4432 517.825 78.0455 517.018 77.25C516.223 76.4432 515.831 75.4773 515.842 74.3523C515.831 73.2386 516.223 72.2841 517.018 71.4886C517.825 70.6932 518.797 70.2955 519.933 70.2955C521.013 70.2955 521.962 70.6932 522.78 71.4886C523.598 72.2841 524.013 73.2386 524.024 74.3523C524.013 75.1023 523.814 75.7898 523.428 76.4148C523.053 77.0284 522.558 77.5227 521.945 77.8977C521.331 78.2614 520.661 78.4432 519.933 78.4432Z" fill="black"/>
<rect x="556" y="37" width="0.5" height="48" fill="black"/>
<defs>
<clipPath id="clip0_192_182">
<rect width="57" height="57" fill="white" transform="translate(27 33)"/>
</clipPath>
</defs>
</svg>
