<svg width="761" height="499" viewBox="0 0 761 499" fill="none" xmlns="http://www.w3.org/2000/svg">
<path d="M529.115 89.7273L540.381 80.0929L555.417 97.6747L544.152 107.309L529.115 89.7273Z" fill="#253237"/>
<path d="M550.116 78.7267L526.936 98.6396L510.681 79.6975C517.074 70.7237 524.698 63.9519 533.826 59.7846L550.116 78.7267Z" fill="#455964"/>
<path d="M530.842 95.3011C530.712 95.4195 526.794 91.1101 522.082 85.6998C517.37 80.2895 513.653 75.8144 513.795 75.696C513.937 75.5776 517.843 79.8869 522.555 85.2973C527.267 90.7076 530.973 95.1945 530.842 95.3011Z" fill="#253237"/>
<path d="M535.223 91.5126C534.286 90.601 533.415 89.6243 532.618 88.5884C531.056 86.7534 528.936 84.2081 526.604 81.3668L520.685 74.0741L518.909 71.8602C518.483 71.3156 518.258 71.067 518.258 71.0315C518.495 70.8184 522.437 75.3053 527.101 80.9761C529.469 83.8174 531.505 86.4101 533.021 88.3161C533.847 89.3142 534.585 90.3844 535.223 91.5126Z" fill="#253237"/>
<path d="M541.142 86.4574C540.192 85.5494 539.31 84.5715 538.502 83.5333C536.928 81.6746 534.797 79.0819 532.453 76.205L526.533 68.794L524.757 66.5327C524.528 66.2628 524.322 65.974 524.142 65.6685C525.159 66.5091 526.073 67.4668 526.865 68.5217C528.463 70.3567 530.618 72.9375 532.95 75.8144C535.282 78.6912 537.378 81.3312 538.869 83.261C539.716 84.2602 540.476 85.3304 541.142 86.4574Z" fill="#253237"/>
<path d="M546.482 81.722C546.352 81.8285 542.457 77.4837 537.78 72.0142C533.104 66.5446 529.434 62.0104 529.564 61.892C529.694 61.7736 533.578 66.1303 538.254 71.6116C542.93 77.093 546.612 81.6154 546.482 81.722Z" fill="#253237"/>
<path d="M728.51 81.3443L738.751 92.0608L722.026 108.043L711.786 97.3266L728.51 81.3443Z" fill="#253237"/>
<path d="M739.241 102.606L718.144 80.5262L736.175 63.3008C745.456 69.2202 752.631 76.4774 757.26 85.3801L739.241 102.606Z" fill="#455964"/>
<path d="M721.672 84.2318C721.554 84.1016 725.638 79.958 730.8 74.9738C735.962 69.9897 740.271 66.0474 740.354 66.1658C740.437 66.2842 736.388 70.4278 731.226 75.4237C726.064 80.4197 721.791 84.3502 721.672 84.2318Z" fill="#253237"/>
<path d="M725.697 88.4346C726.539 87.4401 727.457 86.5143 728.444 85.6643C730.184 84.0069 732.623 81.7456 735.334 79.2595L742.307 72.9494L744.426 71.0552C744.935 70.6053 745.184 70.3804 745.219 70.3686C745.444 70.5935 741.171 74.7726 735.748 79.7212C733.037 82.1955 730.551 84.4567 728.728 85.9839C727.783 86.879 726.77 87.6982 725.697 88.4346Z" fill="#253237"/>
<path d="M731.049 94.0343C731.901 93.0304 732.83 92.0963 733.831 91.2404C735.595 89.5711 738.069 87.298 740.827 84.8119L747.931 78.49L750.097 76.5957C750.361 76.3602 750.638 76.1388 750.926 75.9328C750.143 76.9947 749.237 77.9608 748.227 78.8096C746.475 80.5025 744 82.7874 741.254 85.2736C738.507 87.7597 735.974 90.0091 734.15 91.5718C733.181 92.4716 732.144 93.2944 731.049 94.0343Z" fill="#253237"/>
<path d="M736.056 99.1368C735.938 99.0066 740.081 94.8985 745.302 89.9381C750.523 84.9776 754.856 81.0708 754.975 81.201C755.093 81.3313 750.949 85.4393 745.728 90.388C740.508 95.3366 736.175 99.2434 736.056 99.1368Z" fill="#253237"/>
<path d="M626.689 40.9017H644.234V68.2849H626.689V40.9017Z" fill="#253237"/>
<path d="M653.611 49.0942H617.502V19.5801C630.158 16.4546 642.234 16.2652 653.646 19.5801L653.611 49.0942Z" fill="#7F00FF"/>
<path d="M654.073 19.6984C653.65 19.9636 653.201 20.185 652.735 20.3614C651.499 20.906 650.23 21.3725 648.935 21.7584C646.995 22.3562 645.017 22.8227 643.015 23.1554C640.584 23.5413 638.126 23.7473 635.663 23.771C633.202 23.7746 630.744 23.5922 628.311 23.2264C626.311 22.9162 624.332 22.4687 622.392 21.8886C621.096 21.5098 619.823 21.0552 618.58 20.5272C618.11 20.3638 617.66 20.146 617.242 19.876C617.242 19.7695 619.231 20.5864 622.51 21.4624C624.435 21.9715 626.388 22.3669 628.359 22.6463C630.768 22.9719 633.196 23.1388 635.628 23.1435C638.061 23.1163 640.489 22.9257 642.897 22.5753C644.86 22.2911 646.804 21.8957 648.722 21.3914C652.084 20.4324 654.025 19.5919 654.073 19.6984Z" fill="#253237"/>
<path d="M629.436 49.0114C629.27 49.0114 629.128 43.3406 629.128 36.3557C629.128 29.3708 629.27 23.7 629.436 23.7C629.602 23.7 629.744 29.359 629.744 36.3557C629.744 43.3524 629.614 49.0114 629.436 49.0114Z" fill="#253237"/>
<path d="M636.315 49.1771C636.149 49.1771 636.007 43.4826 636.007 36.4622C636.007 29.4418 636.149 23.7592 636.315 23.7592C636.48 23.7592 636.622 29.4418 636.622 36.4622C636.622 43.4826 636.492 49.1771 636.315 49.1771Z" fill="#253237"/>
<path d="M643.193 49.0705C643.027 49.0705 642.885 43.3761 642.885 36.3557C642.885 29.3352 643.027 23.6408 643.193 23.6408C643.359 23.6408 643.501 29.3352 643.501 36.3557C643.501 43.3761 643.37 49.0705 643.193 49.0705Z" fill="#253237"/>
<path d="M648.875 49.0705C648.698 49.0705 648.567 42.9143 648.567 35.3257C648.567 27.737 648.698 21.5808 648.875 21.5808C649.053 21.5808 649.183 27.737 649.183 35.3257C649.183 42.9143 649.088 49.0705 648.875 49.0705Z" fill="#253237"/>
<path d="M622.936 48.893C622.771 48.893 622.629 42.7368 622.629 35.1481C622.629 27.5595 622.771 21.4033 622.936 21.4033C623.102 21.4033 623.244 27.5595 623.244 35.1481C623.244 42.7368 623.114 48.893 622.936 48.893Z" fill="#253237"/>
<path d="M543.074 97.2035C592.928 47.3503 673.757 47.3503 723.61 97.2035C773.463 147.057 773.463 227.886 723.61 277.739C673.757 327.592 592.928 327.592 543.074 277.739C493.221 227.886 493.221 147.057 543.074 97.2035Z" fill="#7F00FF"/>
<path d="M633.343 79.2477C692.555 79.2477 740.555 127.248 740.555 186.46C740.555 245.672 692.555 293.672 633.343 293.672C574.131 293.672 526.131 245.672 526.131 186.46C526.131 127.248 574.131 79.2477 633.343 79.2477Z" fill="#FAFAFA"/>
<path d="M740.555 186.46C740.555 186.46 740.555 185.88 740.472 184.731C740.389 183.583 740.472 181.866 740.247 179.629C739.825 173.101 738.802 166.625 737.193 160.284C736.033 155.707 734.566 151.215 732.801 146.835C730.727 141.614 728.232 136.57 725.342 131.753C718.272 119.984 709.032 109.663 698.113 101.339C684.861 91.2569 669.435 84.4129 653.066 81.355C639.192 78.8025 624.956 78.9671 611.145 81.8404C606.295 82.8928 601.518 84.2578 596.844 85.9247C576.952 93.1701 559.651 106.142 547.121 123.205C543.851 127.648 540.938 132.343 538.408 137.246C537.093 139.697 535.969 142.242 534.856 144.799C533.743 147.356 532.749 150.008 531.908 152.707C530.091 158.109 528.729 163.654 527.836 169.282C526.937 174.973 526.466 180.723 526.427 186.484C526.468 192.248 526.936 198.001 527.824 203.697C528.731 209.323 530.092 214.866 531.896 220.271C532.749 222.959 533.814 225.563 534.844 228.168C535.874 230.772 537.117 233.282 538.396 235.733C540.926 240.638 543.843 245.333 547.121 249.774C559.649 266.843 576.95 279.819 596.844 287.066C601.518 288.733 606.295 290.098 611.145 291.15C615.874 292.139 620.664 292.807 625.482 293.151C634.703 293.848 643.977 293.338 653.066 291.636C669.435 288.578 684.861 281.734 698.113 271.652C709.035 263.332 718.276 253.01 725.342 241.238C728.23 236.42 730.724 231.375 732.801 226.155C737.006 215.687 739.519 204.618 740.247 193.362C740.449 191.124 740.413 189.408 740.472 188.259C740.531 187.111 740.555 186.519 740.555 186.519C740.555 186.519 740.555 187.111 740.555 188.259C740.555 189.408 740.555 191.124 740.389 193.362C739.742 204.65 737.275 215.76 733.085 226.262C731.023 231.506 728.536 236.575 725.65 241.416C718.596 253.245 709.355 263.623 698.421 271.995C685.122 282.139 669.635 289.031 653.197 292.121C644.065 293.846 634.749 294.372 625.482 293.684C620.64 293.341 615.826 292.672 611.074 291.683C606.195 290.634 601.39 289.266 596.69 287.587C576.681 280.313 559.276 267.275 546.671 250.117C543.381 245.653 540.452 240.934 537.91 236.005C536.584 233.543 535.448 230.962 534.288 228.393C533.127 225.824 532.18 223.16 531.328 220.449C529.512 215.021 528.142 209.454 527.232 203.804C525.353 192.341 525.353 180.649 527.232 169.187C528.147 163.56 529.517 158.017 531.328 152.613C532.192 149.902 533.258 147.285 534.3 144.669C535.341 142.053 536.584 139.531 537.91 137.068C540.46 132.142 543.393 127.423 546.683 122.957C559.282 105.801 576.684 92.7652 596.69 85.4985C601.386 83.8222 606.187 82.4536 611.062 81.4023C615.819 80.4138 620.636 79.7461 625.482 79.4016C634.745 78.7137 644.058 79.2394 653.185 80.9643C669.626 84.0412 685.118 90.9349 698.409 101.09C709.343 109.469 718.583 119.85 725.638 131.682C730.941 140.613 734.928 150.263 737.477 160.332C739.056 166.695 740.044 173.191 740.425 179.735C740.602 181.973 740.543 183.69 740.591 184.838C740.638 185.986 740.555 186.46 740.555 186.46Z" fill="#253237"/>
<path d="M724.821 182.577C721.423 182.719 718.653 182.577 718.641 182.281C718.629 181.985 721.364 181.582 724.762 181.393C728.16 181.203 730.93 181.322 730.953 181.677C730.977 182.032 728.195 182.435 724.821 182.577Z" fill="#253237"/>
<path d="M722.536 207.261C719.221 206.479 716.617 205.615 716.617 205.319C716.617 205.023 719.435 205.378 722.761 206.1C726.088 206.823 728.681 207.699 728.681 208.042C728.681 208.385 725.828 208.03 722.536 207.261Z" fill="#253237"/>
<path d="M713.693 230.405C710.698 228.772 708.401 227.221 708.543 226.96C708.685 226.7 711.242 227.777 714.249 229.328C717.256 230.879 719.565 232.477 719.399 232.785C719.234 233.093 716.676 232.051 713.693 230.405Z" fill="#253237"/>
<path d="M698.954 250.342C696.515 247.974 694.704 245.867 694.917 245.606C695.13 245.346 697.284 247.11 699.771 249.454C702.257 251.798 704.044 253.894 703.808 254.19C703.571 254.486 701.381 252.722 698.954 250.342Z" fill="#253237"/>
<path d="M679.42 265.614C677.715 262.666 676.531 260.156 676.791 260.002C677.052 259.849 678.686 262.098 680.438 265.01C682.19 267.923 683.374 270.432 683.078 270.622C682.782 270.811 681.136 268.538 679.42 265.614Z" fill="#253237"/>
<path d="M656.512 275.073C655.659 271.77 655.197 269.035 655.493 268.964C655.789 268.893 656.748 271.486 657.66 274.765C658.572 278.045 659.021 280.78 658.678 280.874C658.335 280.969 657.364 278.364 656.512 275.073Z" fill="#253237"/>
<path d="M631.899 278.009C631.899 274.6 632.242 271.841 632.538 271.841C632.834 271.841 633.082 274.612 633.082 278.009C633.082 281.407 632.786 284.177 632.443 284.177C632.1 284.177 631.839 281.431 631.899 278.009Z" fill="#253237"/>
<path d="M607.44 274.304C608.411 271.036 609.429 268.467 609.725 268.55C610.021 268.633 609.5 271.356 608.541 274.635C607.582 277.915 606.599 280.555 606.256 280.389C605.913 280.223 606.41 277.571 607.44 274.304Z" fill="#253237"/>
<path d="M584.792 264.111C586.603 261.234 588.272 259.02 588.533 259.174C588.793 259.328 587.562 261.826 585.798 264.738C584.034 267.65 582.353 269.852 582.057 269.675C581.761 269.497 582.98 266.999 584.792 264.111Z" fill="#253237"/>
<path d="M565.743 248.247C568.265 245.95 570.479 244.269 570.668 244.494C570.858 244.719 569.034 246.778 566.548 249.111C564.062 251.443 561.872 253.124 561.623 252.875C561.375 252.627 563.233 250.543 565.743 248.247Z" fill="#253237"/>
<path d="M551.631 227.86C554.674 226.333 557.255 225.303 557.385 225.563C557.515 225.824 555.195 227.327 552.176 228.914C549.157 230.5 546.588 231.53 546.422 231.21C546.257 230.891 548.601 229.399 551.631 227.86Z" fill="#253237"/>
<path d="M543.51 204.443C546.861 203.78 549.619 203.484 549.678 203.78C549.737 204.076 547.085 204.893 543.759 205.603C540.432 206.314 537.662 206.61 537.591 206.266C537.52 205.923 540.195 205.106 543.51 204.443Z" fill="#253237"/>
<path d="M542.007 179.747C545.404 179.996 548.139 180.446 548.127 180.742C548.115 181.038 545.333 181.121 541.936 180.919C538.538 180.718 535.791 180.28 535.815 179.925C535.839 179.57 538.609 179.439 542.007 179.747Z" fill="#253237"/>
<path d="M547.157 155.442C550.365 156.626 552.875 157.81 552.78 158.058C552.685 158.307 549.986 157.668 546.766 156.555C543.546 155.442 541.036 154.282 541.142 153.95C541.249 153.619 543.96 154.282 547.157 155.442Z" fill="#253237"/>
<path d="M558.652 133.481C561.422 135.458 563.53 137.258 563.387 137.506C563.245 137.755 560.807 136.382 558.001 134.452C555.195 132.522 553.088 130.723 553.265 130.427C553.443 130.131 555.87 131.504 558.652 133.481Z" fill="#253237"/>
<path d="M575.593 115.392C577.736 118.032 579.287 120.328 579.062 120.53C578.837 120.731 576.86 118.754 574.681 116.137C572.503 113.521 570.94 111.236 571.213 111.011C571.485 110.786 573.45 112.751 575.593 115.392Z" fill="#253237"/>
<path d="M596.785 102.487C598.134 105.613 599.022 108.241 598.738 108.407C598.454 108.572 597.104 106.11 595.707 103.008C594.31 99.9063 593.423 97.2781 593.742 97.0887C594.062 96.8993 595.4 99.3736 596.785 102.487Z" fill="#253237"/>
<path d="M620.628 95.7746C621.09 99.1486 621.232 101.919 620.924 101.966C620.616 102.014 619.965 99.3144 619.456 95.9522C618.947 92.5899 618.805 89.8078 619.148 89.7605C619.491 89.7131 620.166 92.4005 620.628 95.7746Z" fill="#253237"/>
<path d="M645.418 95.6917C644.968 99.0658 644.365 101.777 644.069 101.741C643.773 101.706 643.844 98.9237 644.246 95.5497C644.649 92.1756 645.253 89.4527 645.596 89.5C645.939 89.5474 645.868 92.3058 645.418 95.6917Z" fill="#253237"/>
<path d="M669.321 102.239C667.983 105.376 666.669 107.815 666.385 107.696C666.101 107.578 666.942 104.938 668.232 101.777C669.522 98.6159 670.848 96.189 671.168 96.331C671.488 96.4731 670.671 99.1132 669.321 102.239Z" fill="#253237"/>
<path d="M690.583 114.989C688.452 117.653 686.535 119.653 686.298 119.464C686.061 119.275 687.564 116.942 689.66 114.255C691.755 111.568 693.661 109.519 693.946 109.792C694.23 110.064 692.679 112.337 690.583 114.989Z" fill="#253237"/>
<path d="M707.667 132.96C704.897 134.949 702.517 136.37 702.339 136.121C702.162 135.873 704.234 134.038 706.968 132.001C709.703 129.965 712.083 128.556 712.296 128.84C712.509 129.125 710.437 130.971 707.667 132.96Z" fill="#253237"/>
<path d="M719.304 154.886C716.108 156.07 713.385 156.768 713.314 156.496C713.243 156.223 715.682 154.992 718.89 153.773C722.098 152.553 724.738 151.831 724.868 152.163C724.999 152.494 722.501 153.702 719.304 154.886Z" fill="#253237"/>
<path d="M724.644 179.061C721.246 179.333 718.476 179.309 718.452 179.061C718.428 178.812 721.151 178.267 724.537 177.877C727.923 177.486 730.705 177.581 730.729 177.936C730.753 178.291 728.006 178.788 724.644 179.061Z" fill="#253237"/>
<path d="M591.706 70.4751L591.339 70.6408L590.25 71.0789C589.302 71.4814 587.882 71.9668 586.07 72.76C580.967 74.8933 576.011 77.3653 571.236 80.1592C568.206 81.9114 564.997 84.0069 561.623 86.3628C558.249 88.7187 554.804 91.4653 551.359 94.5552C536.234 107.887 524.68 124.788 517.749 143.722C516.127 148.055 514.907 152.293 513.854 156.259C512.8 160.225 512.09 164.013 511.557 167.47C510.693 172.933 510.19 178.445 510.054 183.974C509.959 185.939 510.054 187.454 510.054 188.484C510.054 188.981 510.054 189.36 510.054 189.668C510.064 189.802 510.064 189.937 510.054 190.071C510.038 189.94 510.038 189.81 510.054 189.68C510.054 189.384 510.054 188.993 510.054 188.496C510.054 187.466 509.923 185.951 509.982 183.986C510.025 178.437 510.464 172.897 511.297 167.411C511.794 163.931 512.563 160.154 513.522 156.141C514.592 151.875 515.881 147.666 517.382 143.532C524.279 124.472 535.9 107.474 551.158 94.129C554.627 91.0391 558.155 88.3754 561.493 85.9484C564.832 83.5215 568.123 81.5089 571.189 79.7804C575.996 77.016 580.993 74.5938 586.141 72.5351C587.953 71.7774 589.409 71.3512 590.38 70.9605L591.493 70.5816C591.561 70.5414 591.632 70.5059 591.706 70.4751Z" fill="white"/>
<path d="M627.341 63.5612C626.124 63.8146 624.889 63.9768 623.647 64.0466C621.35 64.2834 618.201 64.6267 614.72 65.0766C611.24 65.5265 608.102 66 605.829 66.3552C604.611 66.605 603.378 66.7636 602.136 66.8287C603.314 66.4179 604.526 66.1172 605.758 65.929C608.02 65.4673 611.157 64.9227 614.638 64.4728C618.118 64.0229 621.303 63.7388 623.611 63.6086C624.85 63.476 626.099 63.4606 627.341 63.5612Z" fill="white"/>
<path d="M547.653 250.91C547.653 250.91 603.213 338.588 689.399 293.684C779.374 246.802 729.651 139.341 729.651 139.341C729.651 139.341 771.987 224.983 684.285 280.815C662.442 294.726 638.658 294.737 620.521 292.914C574.172 288.273 547.653 250.91 547.653 250.91Z" fill="black"/>
<path d="M646.492 188.82L705.785 236.852L635.884 202.885L634.071 190.476L646.492 188.82Z" fill="#7F00FF"/>
<path d="M705.785 236.852L643.621 198.571L635.884 202.885L705.785 236.852ZM646.477 192.288C645.476 199.139 639.111 203.882 632.259 202.882C625.408 201.881 620.665 195.517 621.665 188.665C622.666 181.813 629.03 177.07 635.882 178.07C642.734 179.071 647.477 185.436 646.477 192.288ZM632.259 202.882C633.284 202.918 634.309 202.895 635.332 202.816C638.109 202.488 640.696 201.24 642.681 199.271C645.647 196.332 646.92 192.089 646.061 188.004C645.833 186.848 645.426 185.736 644.856 184.705C644.284 183.613 643.54 182.62 642.653 181.763C638.849 178.015 633.055 177.169 628.338 179.673C626.201 180.813 624.442 182.552 623.276 184.677C620.019 190.69 622.252 198.206 628.266 201.464C628.612 201.651 628.966 201.822 629.329 201.975C630.285 202.346 631.262 202.661 632.254 202.917C631.216 202.84 630.198 202.598 629.236 202.201C626.537 201.154 624.284 199.2 622.864 196.676C621.884 194.944 621.327 193.006 621.238 191.019C621.137 188.732 621.651 186.461 622.725 184.441C623.293 183.34 624.034 182.338 624.917 181.47C625.817 180.544 626.86 179.767 628.005 179.17C632.947 176.509 639.048 177.4 643.023 181.362C643.946 182.265 644.723 183.307 645.324 184.45C645.912 185.537 646.329 186.707 646.564 187.921C647.021 190.164 646.863 192.49 646.108 194.65C644.475 199.34 640.25 202.64 635.304 203.087C634.285 203.178 633.258 203.108 632.259 202.882ZM637.185 181.732C642.035 183.471 644.555 188.813 642.816 193.663C641.076 198.513 635.734 201.032 630.884 199.293C626.034 197.553 623.514 192.212 625.253 187.362C626.993 182.512 632.335 179.992 637.185 181.732Z" fill="black"/>
<path d="M646.476 192.288C645.476 199.139 639.111 203.882 632.259 202.882C625.407 201.881 620.664 195.517 621.665 188.665C622.665 181.813 629.03 177.07 635.882 178.07C642.734 179.071 647.477 185.436 646.476 192.288Z" fill="#FAFAFA"/>
<path d="M632.26 202.882C633.284 202.918 634.309 202.895 635.332 202.816C638.109 202.488 640.696 201.24 642.681 199.271C645.647 196.332 646.92 192.089 646.061 188.003C645.833 186.848 645.426 185.736 644.856 184.705C644.284 183.613 643.54 182.62 642.653 181.763C638.849 178.015 633.055 177.169 628.338 179.673C626.201 180.813 624.442 182.552 623.276 184.677C620.019 190.69 622.252 198.206 628.266 201.464C628.612 201.651 628.966 201.822 629.329 201.975C630.285 202.346 631.262 202.661 632.254 202.917C631.216 202.84 630.198 202.598 629.236 202.201C626.537 201.154 624.284 199.2 622.864 196.676C621.884 194.944 621.327 193.006 621.238 191.019C621.137 188.732 621.651 186.461 622.725 184.44C623.293 183.34 624.034 182.338 624.917 181.47C625.817 180.544 626.86 179.767 628.005 179.169C632.947 176.509 639.048 177.4 643.023 181.362C643.946 182.265 644.723 183.307 645.324 184.45C645.912 185.537 646.33 186.707 646.564 187.921C647.021 190.164 646.863 192.49 646.108 194.65C644.475 199.34 640.25 202.64 635.304 203.087C634.285 203.178 633.258 203.108 632.26 202.882Z" fill="#253237"/>
<path d="M637.185 181.732C642.035 183.471 644.555 188.813 642.816 193.663C641.076 198.513 635.734 201.032 630.884 199.293C626.034 197.553 623.514 192.212 625.253 187.362C626.993 182.512 632.335 179.992 637.185 181.732Z" fill="#455964"/>
<path d="M535.602 490.977H597.282L568.526 243.144L535.602 490.977Z" fill="#DFDFDF"/>
<path d="M232.102 243.144L191.945 493.902L534.619 498.365L568.525 243.144H232.102Z" fill="#FAFAFA"/>
<path d="M553.265 358.016H213.705L221.092 311.845H559.398L553.265 358.016Z" fill="#EBEBEB"/>
<path d="M553.289 358.051H213.669L221.068 311.88H559.433L553.289 358.051ZM213.74 357.992H553.241L559.362 311.821H221.128L213.74 357.992Z" fill="#253237"/>
<path d="M232.102 243.144L221.092 311.845H559.398L568.525 243.144H232.102Z" fill="#7F00FF"/>
<path d="M232.15 243.144L568.573 242.86H568.892V243.179C558.983 317.894 547.736 402.624 535.85 492.114V492.386H531.73L192.229 492.292H191.898V491.996L232.15 243.144C231.818 245.204 216.522 341.347 192.525 492.114L192.276 491.818H531.647H535.495L535.199 492.078C547.097 402.589 558.368 317.87 568.348 243.156L568.62 243.464L232.15 243.144Z" fill="#253237"/>
<path d="M559.398 311.845C559.398 312.01 483.629 312.152 390.257 312.152C296.884 312.152 221.092 312.01 221.092 311.845C221.092 311.679 296.86 311.537 390.257 311.537C483.653 311.537 559.398 311.667 559.398 311.845Z" fill="#253237"/>
<path d="M553.265 358.016C553.265 358.194 477.094 358.324 383.165 358.324C289.236 358.324 213.053 358.194 213.053 358.016C213.053 357.838 289.201 357.708 383.165 357.708C477.13 357.708 553.265 357.85 553.265 358.016Z" fill="#253237"/>
<path d="M546.351 400.505C546.351 400.683 470.192 400.813 376.263 400.813C282.334 400.813 206.104 400.683 206.104 400.505C206.104 400.328 282.251 400.198 376.216 400.198C470.18 400.198 546.351 400.34 546.351 400.505Z" fill="#253237"/>
<path d="M539.449 442.995C539.449 443.161 463.278 443.303 369.349 443.303C275.42 443.303 199.238 443.161 199.238 442.995C199.238 442.829 275.385 442.687 369.349 442.687C463.314 442.687 539.449 442.829 539.449 442.995Z" fill="#253237"/>
<path d="M240.046 492.457C239.88 492.457 246.095 451.969 253.945 402.104C261.794 352.239 268.27 311.809 268.435 311.845C268.601 311.88 262.386 352.31 254.548 402.198C246.711 452.087 240.223 492.481 240.046 492.457Z" fill="#253237"/>
<path d="M292.409 492.457C292.231 492.457 298.459 451.969 306.296 402.104C314.133 352.239 320.621 311.809 320.798 311.845C320.976 311.88 314.749 352.31 306.9 402.198C299.051 452.087 292.527 492.481 292.409 492.457Z" fill="#253237"/>
<path d="M341.067 490.646C340.901 490.646 347.057 450.572 354.811 401.204C362.566 351.836 369.018 311.809 369.172 311.845C369.326 311.88 363.181 351.907 355.427 401.299C347.673 450.69 341.22 490.67 341.067 490.646Z" fill="#253237"/>
<path d="M389.191 492.078C389.025 492.078 395.229 451.673 403.054 401.914C410.88 352.156 417.356 311.809 417.521 311.845C417.687 311.88 411.484 352.227 403.658 402.009C395.833 451.791 389.357 492.102 389.191 492.078Z" fill="#253237"/>
<path d="M437.553 492.078C437.387 492.078 443.591 451.673 451.416 401.914C459.241 352.156 465.717 311.809 465.883 311.845C466.049 311.88 459.857 352.227 452.032 402.009C444.206 451.791 437.73 492.102 437.553 492.078Z" fill="#253237"/>
<path d="M485.879 492.292C485.713 492.292 491.928 451.838 499.766 401.997C507.603 352.156 514.079 311.762 514.256 311.797C514.434 311.833 508.207 352.239 500.369 402.092C492.532 451.945 486.044 492.363 485.879 492.292Z" fill="#253237"/>
<path d="M455.453 315.065C461.278 312.484 464.924 306.422 466.427 300.231C467.931 294.039 467.694 287.575 467.919 281.194C468.144 274.813 468.902 268.242 472.157 262.761C474.087 259.529 476.798 256.841 478.941 253.728C481.084 250.614 482.67 246.826 481.877 243.073L445.437 243.262L455.453 315.065Z" fill="black"/>
<path d="M314.275 372.317C314.275 372.317 314.394 372.009 314.642 371.406C315.035 370.529 315.51 369.692 316.063 368.908C318.24 365.866 321.31 363.578 324.847 362.361C327.381 361.444 330.084 361.089 332.768 361.319C335.964 361.629 339.044 362.679 341.765 364.385C344.906 366.321 347.56 368.954 349.519 372.08C351.787 375.57 352.916 379.677 352.751 383.836C352.615 386.08 351.919 388.253 350.727 390.158C349.477 392.134 347.813 393.814 345.849 395.083C341.668 397.765 336.744 399.054 331.785 398.765C329.187 398.625 326.629 398.07 324.208 397.119C321.689 396.136 319.423 394.598 317.578 392.621C316.662 391.58 315.889 390.422 315.282 389.176C314.703 387.903 314.304 386.557 314.098 385.174C313.705 382.342 313.951 379.457 314.82 376.733C316.63 371.052 320.555 366.283 325.783 363.414C331.275 360.398 337.855 360.096 343.6 362.597C346.537 363.835 349.109 365.803 351.07 368.316C353.034 370.895 354.262 373.96 354.622 377.183C355.032 380.452 354.502 383.77 353.095 386.749C352.371 388.244 351.421 389.617 350.277 390.821C349.112 392.007 347.799 393.039 346.37 393.887C340.542 397.097 333.642 397.74 327.322 395.663C324.242 394.717 321.412 393.1 319.035 390.928C316.676 388.753 315.065 385.89 314.429 382.747C313.762 379.657 314.202 376.43 315.672 373.631C316.418 372.252 317.442 371.042 318.679 370.08C319.898 369.16 321.257 368.445 322.705 367.96C325.547 367.049 328.529 366.648 331.513 366.777C334.417 366.798 337.305 367.196 340.108 367.96C342.878 368.689 345.436 370.059 347.578 371.962C349.63 373.876 351.029 376.385 351.579 379.136C352.123 381.795 351.964 384.549 351.118 387.127C350.279 389.614 348.864 391.865 346.986 393.698C343.42 397.185 338.696 399.241 333.715 399.475C331.382 399.598 329.049 399.261 326.848 398.481C324.735 397.723 322.835 396.468 321.308 394.823C319.862 393.253 318.768 391.392 318.099 389.365C317.44 387.464 317.146 385.456 317.235 383.446C317.404 379.723 318.889 376.182 321.426 373.454C323.595 371.08 326.339 369.307 329.393 368.304C331.957 367.468 334.674 367.21 337.349 367.546C341.046 368.005 344.56 369.421 347.542 371.654C348.317 372.224 349.049 372.849 349.733 373.525C350.194 373.986 350.419 374.235 350.419 374.235C350.419 374.235 350.159 374.01 349.697 373.572C348.994 372.919 348.25 372.31 347.471 371.749C344.483 369.582 340.991 368.217 337.325 367.783C331.461 367.105 325.631 369.31 321.686 373.702C319.216 376.372 317.776 379.835 317.626 383.469C317.545 385.44 317.839 387.408 318.49 389.27C319.149 391.237 320.22 393.04 321.627 394.562C323.111 396.157 324.954 397.374 327.002 398.114C329.15 398.86 331.421 399.182 333.691 399.061C338.553 398.821 343.158 396.803 346.631 393.39C348.444 391.617 349.812 389.437 350.62 387.033C351.43 384.541 351.577 381.881 351.047 379.314C350.514 376.673 349.168 374.263 347.199 372.424C345.117 370.592 342.635 369.271 339.954 368.564C337.199 367.81 334.357 367.412 331.501 367.38C328.588 367.27 325.68 367.672 322.906 368.564C320.076 369.431 317.681 371.339 316.205 373.904C314.803 376.58 314.384 379.663 315.021 382.617C315.634 385.637 317.189 388.385 319.461 390.466C321.765 392.595 324.515 394.18 327.511 395.107C333.663 397.131 340.379 396.505 346.051 393.378C347.436 392.565 348.706 391.569 349.827 390.419C350.926 389.263 351.841 387.946 352.538 386.512C353.901 383.637 354.414 380.434 354.018 377.278C353.68 374.166 352.505 371.204 350.62 368.706C348.724 366.278 346.238 364.374 343.399 363.178C337.824 360.742 331.434 361.03 326.102 363.959C321.022 366.756 317.208 371.396 315.447 376.922C314.603 379.566 314.357 382.365 314.725 385.115C314.938 386.45 315.336 387.749 315.909 388.974C316.495 390.171 317.235 391.285 318.111 392.289C319.896 394.204 322.089 395.693 324.528 396.646C326.895 397.582 329.397 398.134 331.939 398.28C336.792 398.577 341.615 397.334 345.719 394.728C349.567 392.373 352.067 388.33 352.455 383.836C352.621 379.768 351.525 375.749 349.318 372.329C347.403 369.241 344.802 366.637 341.718 364.717C339.046 363.026 336.02 361.976 332.874 361.65C330.23 361.399 327.563 361.731 325.06 362.621C321.555 363.806 318.497 366.038 316.3 369.014C315.733 369.786 315.241 370.611 314.832 371.477C314.429 372.021 314.275 372.317 314.275 372.317Z" fill="#7238E9"/>
<g opacity="0.0832">
<path d="M502.074 360.609C502.074 360.609 506.656 388.951 502.015 407.028L457.217 406.07C457.217 406.07 466.38 377.207 460.567 362.775L502.074 360.609Z" fill="#EBEBEB"/>
<path d="M501.873 359.543C501.873 359.543 501.577 395.19 499.766 406.07L455.05 403.95C455.05 403.95 458.969 368.908 457.418 359.543H501.873Z" fill="#455964"/>
<path d="M463.764 375.407C463.764 375.573 470.488 375.715 478.787 375.727C487.086 375.738 493.823 375.62 493.823 375.454C493.823 375.289 487.098 375.147 478.787 375.135C470.476 375.123 463.764 375.241 463.764 375.407Z" fill="white"/>
<path d="M464.19 382.948C464.19 383.114 470.914 383.256 479.213 383.268C487.512 383.28 494.249 383.161 494.249 382.996C494.249 382.83 487.524 382.688 479.213 382.676C470.903 382.664 464.19 382.783 464.19 382.948Z" fill="white"/>
<path d="M472.205 389.898C473.029 390.074 473.872 390.15 474.715 390.123C476.266 390.123 478.408 390.206 480.776 390.217C483.144 390.229 485.275 390.217 486.826 390.135C487.667 390.169 488.51 390.1 489.336 389.933C488.512 389.757 487.667 389.686 486.826 389.72C485.275 389.661 483.144 389.625 480.776 389.614C478.408 389.602 476.266 389.614 474.715 389.696C473.873 389.662 473.03 389.731 472.205 389.898Z" fill="white"/>
</g>
<path d="M511.545 278.885C503.187 278.885 494.77 273.641 490.342 265.389C486.037 257.172 484.703 247.721 486.565 238.633C489.016 226.795 496.853 217.087 506.537 213.985C514.765 211.345 529.469 212.801 536.407 224.415C539.712 230.094 541.353 236.589 541.142 243.156C541.012 245.118 539.315 246.601 537.354 246.471C535.392 246.34 533.909 244.644 534.039 242.682C534.103 237.555 532.786 232.504 530.227 228.061C524.876 219.123 513.143 219.301 508.621 220.745C500.334 223.397 495.03 232.359 493.432 240.066C491.898 247.528 492.989 255.289 496.522 262.039C500.014 268.55 507.082 272.599 513.345 271.64C515.287 271.37 517.082 272.726 517.352 274.668C517.617 276.573 516.319 278.342 514.422 278.66C513.47 278.808 512.509 278.883 511.545 278.885Z" fill="#253237"/>
<path d="M282.251 278.885C273.881 278.885 265.476 273.641 261.048 265.389C256.74 257.173 255.402 247.722 257.26 238.633C259.331 228.641 266.34 217.134 277.386 213.961C282.711 212.519 288.358 212.805 293.51 214.778L290.953 221.408C287.245 219.999 283.189 219.779 279.351 220.78C271.206 223.148 265.902 232.169 264.268 240.066C262.734 247.528 263.825 255.289 267.358 262.039C270.851 268.562 277.93 272.599 284.181 271.64L285.258 278.66C284.264 278.814 283.258 278.889 282.251 278.885Z" fill="#253237"/>
<path d="M508.621 243.333L505.353 261.222H553.431L557.705 243.511L508.621 243.333Z" fill="#7238E9"/>
<path d="M294.433 276.056C294.44 280.28 291.021 283.708 286.797 283.716C282.573 283.723 279.145 280.304 279.138 276.08C279.13 271.855 282.55 268.427 286.774 268.42C286.782 268.42 286.789 268.42 286.797 268.42C291.012 268.426 294.427 271.841 294.433 276.056Z" fill="#253237"/>
<path d="M523.526 276.056C523.533 280.28 520.114 283.708 515.89 283.716C511.666 283.723 508.237 280.304 508.23 276.08C508.223 271.855 511.642 268.427 515.866 268.42C515.875 268.42 515.882 268.42 515.89 268.42C520.105 268.426 523.52 271.841 523.526 276.056Z" fill="#253237"/>
<path d="M396.22 126.925L380.863 173.789L337.263 175.891L336.81 183.573L397.56 189.301L412.148 136.568L396.22 126.925Z" fill="#FFBE9D"/>
<path d="M416.711 103.809C416.711 103.809 399.895 108.641 395.263 126.868L412.148 136.568L416.711 103.809Z" fill="#D5D5D5"/>
<path d="M415.651 191.491C415.651 191.491 347.838 188.259 328.529 203.33C309.22 218.401 318.573 243.144 318.573 243.144L427.703 242.86L437.34 187.537L415.651 191.491Z" fill="#253237"/>
<path d="M427.194 227.99C426.865 227.999 426.536 227.975 426.211 227.919C425.572 227.848 424.637 227.754 423.429 227.6C421.061 227.304 417.51 226.806 413.248 226.084C402.058 224.181 390.99 221.623 380.099 218.425C373.73 216.542 367.704 214.648 362.14 213.263C357.228 211.991 352.204 211.198 347.14 210.895C343.723 210.703 340.295 210.902 336.923 211.487C335.739 211.629 334.827 211.937 334.188 212.044C333.872 212.122 333.552 212.181 333.229 212.221C333.53 212.092 333.844 211.993 334.165 211.925C335.055 211.648 335.959 211.423 336.876 211.25C340.256 210.567 343.707 210.301 347.152 210.457C352.29 210.702 357.39 211.46 362.376 212.718C367.976 214.068 374.014 215.962 380.36 217.845C391.191 221.016 402.181 223.621 413.283 225.646C417.557 226.428 421.026 226.984 423.429 227.363L426.199 227.801C426.536 227.836 426.868 227.899 427.194 227.99Z" fill="#455964"/>
<path d="M364.164 212.896C362.28 211.343 360.273 209.944 358.162 208.717C355.949 207.682 353.657 206.826 351.307 206.16C352.036 206.096 352.77 206.168 353.474 206.373C355.204 206.746 356.877 207.351 358.446 208.172C360.012 208.999 361.461 210.03 362.755 211.238C363.323 211.699 363.8 212.261 364.164 212.896Z" fill="#455964"/>
<path d="M422.837 338.896L423.749 367.392L418.019 390.146C417.645 391.71 418.611 393.281 420.175 393.655C420.245 393.672 420.316 393.686 420.387 393.698C421.315 393.867 422.269 393.576 422.944 392.917C427.253 388.702 443.07 373.122 442.868 371.05C442.655 368.683 443.898 340.909 443.898 340.909L422.837 338.896Z" fill="#D5D5D5"/>
<path d="M420.28 393.745L442.774 369.168V370.352C442.787 371.397 442.426 372.414 441.755 373.217C439.968 375.36 434.889 381.172 422.944 392.94C422.25 393.627 421.259 393.919 420.304 393.722L420.28 393.745Z" fill="white"/>
<path d="M436.807 360.017C436.059 360.565 435.857 361.596 436.345 362.384C436.862 363.121 437.863 363.328 438.63 362.858C439.4 362.287 439.606 361.223 439.104 360.407C438.491 359.686 437.417 359.581 436.677 360.171" fill="white"/>
<path d="M426.685 381.22C426.519 381.303 425.856 379.823 424.163 379.03C423.115 378.618 421.998 378.418 420.872 378.438C420.872 378.367 421.203 378.142 421.866 378.035C423.66 377.817 425.417 378.664 426.365 380.202C426.697 380.782 426.744 381.196 426.685 381.22Z" fill="#253237"/>
<path d="M424.684 385.067C423.865 384.62 423.018 384.225 422.15 383.884C421.226 383.72 420.293 383.61 419.356 383.552C420.239 382.984 421.344 382.882 422.316 383.28C423.997 383.73 424.826 384.985 424.684 385.067Z" fill="#253237"/>
<path d="M430.414 376.271C429.204 375.473 427.938 374.765 426.625 374.152C425.239 373.728 423.822 373.411 422.387 373.205C425.432 372.567 428.569 373.765 430.414 376.271Z" fill="#253237"/>
<path d="M430.864 367.605C430.793 367.783 429.206 367.132 427.158 367.084C425.11 367.037 423.488 367.534 423.417 367.357C425.757 366.067 428.616 366.162 430.864 367.605Z" fill="#253237"/>
<path d="M430.804 359.235C429.558 358.843 428.263 358.624 426.957 358.584C425.662 358.734 424.395 359.065 423.192 359.567C423.192 359.508 423.453 359.141 424.104 358.762C425.871 357.764 428.011 357.671 429.857 358.513C430.509 358.833 430.852 359.164 430.804 359.235Z" fill="#253237"/>
<path d="M426.992 356.986C426.919 356.631 426.919 356.264 426.992 355.908C427.081 354.919 427.367 353.956 427.833 353.079C428.11 352.403 428.606 351.841 429.242 351.481C429.693 351.28 430.221 351.378 430.568 351.729C430.873 352.085 431.037 352.539 431.029 353.008C430.915 354.976 429.429 356.589 427.478 356.867C425.546 357.082 423.676 356.11 422.742 354.405C422.509 353.98 422.475 353.473 422.648 353.02C422.875 352.587 423.345 352.337 423.831 352.392C424.535 352.543 425.188 352.873 425.726 353.351C426.502 353.967 427.168 354.712 427.691 355.553C427.9 355.85 428.052 356.183 428.141 356.536C427.388 355.466 426.483 354.513 425.453 353.706C424.973 353.312 424.404 353.04 423.796 352.913C423.526 352.867 423.258 353.002 423.133 353.245C423.048 353.553 423.09 353.881 423.251 354.156C424.099 355.597 425.709 356.41 427.371 356.24C429.036 356.028 430.324 354.68 430.461 353.008C430.477 352.684 430.376 352.365 430.177 352.108C429.994 351.9 429.695 351.837 429.443 351.954C428.923 352.272 428.511 352.738 428.259 353.292C427.629 354.442 427.201 355.692 426.992 356.986Z" fill="#253237"/>
<path d="M437.28 187.537C437.28 187.537 407.956 242.978 407.553 252.65C407.151 262.323 407.553 351.481 407.553 351.481H452.943C454.127 351.481 460.934 311.312 459.549 302.066C458.164 292.82 453.275 243.12 453.275 243.12H479.391C479.391 243.12 486.553 235.461 486.293 225.741C486.139 220.378 482.635 209.415 479.19 203.602C476.952 199.873 462.615 180.351 462.615 180.351L437.28 187.537Z" fill="#253237"/>
<path d="M435.315 191.29C435.283 191.401 435.24 191.508 435.185 191.61C435.079 191.847 434.936 192.142 434.759 192.509L433.054 195.966C432.285 197.47 431.373 199.293 430.307 201.412L428.603 204.81L426.815 208.681L418.019 227.73C416.35 231.282 414.597 235.082 412.774 238.977L410.016 244.896C409.124 246.943 408.45 249.078 408.003 251.265C407.553 253.459 407.32 255.692 407.305 257.931C407.234 260.145 407.186 262.335 407.151 264.478C407.151 268.787 407.068 272.93 407.08 276.885C407.08 284.793 407.174 291.92 407.257 297.898C407.34 303.877 407.411 308.672 407.47 312.105C407.47 313.739 407.47 315.029 407.47 315.953C407.47 316.367 407.47 316.699 407.47 316.959C407.47 317.219 407.47 317.302 407.47 317.302C407.45 317.189 407.45 317.073 407.47 316.959C407.47 316.699 407.47 316.367 407.47 315.965C407.47 315.029 407.376 313.751 407.305 312.105C407.186 308.767 407.032 303.924 406.902 297.898C406.772 291.873 406.63 284.805 406.594 276.885C406.594 272.93 406.594 268.775 406.594 264.478C406.594 262.323 406.665 260.133 406.748 257.907C406.76 255.633 406.993 253.364 407.447 251.135C407.905 248.907 408.595 246.732 409.507 244.648L412.277 238.728L417.557 227.505L426.531 208.504L428.354 204.644C428.982 203.46 429.538 202.276 430.106 201.27L432.936 195.872C433.705 194.416 434.321 193.279 434.747 192.462C434.948 192.107 435.114 191.823 435.232 191.586C435.351 191.349 435.303 191.278 435.315 191.29Z" fill="#455964"/>
<path d="M425.82 210.173C424.879 207.919 424.088 205.605 423.453 203.247C422.622 200.95 421.946 198.602 421.428 196.215C422.532 198.403 423.405 200.701 424.033 203.07C424.871 205.37 425.47 207.749 425.82 210.173Z" fill="#455964"/>
<path d="M459.644 300.325C459.568 300.124 459.521 299.912 459.502 299.698C459.446 299.216 459.363 298.612 459.253 297.887C459.04 296.217 458.768 293.944 458.425 291.186C457.773 285.456 456.897 277.678 455.927 269.083C454.956 260.488 454.163 252.615 453.677 246.944C453.452 244.174 453.263 241.901 453.121 240.232C453.121 239.486 453.026 238.882 452.991 238.397C452.975 238.184 452.975 237.971 452.991 237.757C453.065 237.959 453.109 238.171 453.121 238.385C453.18 238.87 453.263 239.474 453.358 240.208C453.547 241.877 453.807 244.139 454.115 246.909C454.743 252.639 455.595 260.429 456.483 269.024C457.371 277.619 458.211 285.397 458.851 291.139C459.111 293.909 459.336 296.182 459.49 297.851C459.549 298.585 459.597 299.201 459.632 299.686C459.655 299.898 459.658 300.112 459.644 300.325Z" fill="#455964"/>
<path d="M441.384 38.2559C440.123 33.6381 443.609 28.6268 448.197 27.5131C452.785 26.3995 457.825 28.7371 460.476 32.7223C463.008 36.7932 463.734 41.7343 462.478 46.361C461.661 49.4764 459.849 52.7475 456.716 53.3639C453.583 53.9802 450.871 51.8626 448.511 49.8935" fill="#253237"/>
<path d="M411.109 65.5648C399.222 46.0944 420.305 33.0466 432.86 35.0147C444.675 36.8693 450.239 41.9699 453.04 49.3831C456.025 56.7992 456.593 64.9682 454.663 72.7265C453.615 76.5017 451.398 80.4657 447.597 81.3771" fill="#253237"/>
<path d="M441.527 45.5723C443.557 45.5385 445.273 47.0703 445.469 49.0917L449.595 101.802C450.259 108.006 441.643 112.598 434.985 113.258C428.28 113.923 427.66 110.659 426.809 104.788C425.47 94.9681 425.024 91.2657 425.031 91.3245C425.038 91.3833 416.398 90.9345 413.316 80.109C411.773 74.7263 410.969 65.689 410.54 58.2759C410.165 51.6076 413.569 42.9454 420.252 42.7953L441.527 45.5723Z" fill="#FFBE9D"/>
<path d="M415.623 64.0308C415.703 64.8022 416.386 65.3673 417.159 65.3004C417.91 65.2694 418.495 64.636 418.465 63.8849C418.464 63.8706 418.462 63.8577 418.462 63.8435C418.376 63.0751 417.697 62.5131 416.926 62.5739C416.174 62.6049 415.589 63.2383 415.62 63.9894C415.621 64.0036 415.622 64.0166 415.623 64.0308Z" fill="#253237"/>
<path d="M413.092 62.7261C413.29 62.8811 414.276 61.9633 415.792 61.7804C417.309 61.5976 418.529 62.2255 418.671 62.0176C418.813 61.8097 418.527 61.6176 417.991 61.3245C417.277 60.948 416.464 60.8004 415.663 60.9017C414.871 60.9889 414.129 61.3347 413.551 61.8837C413.124 62.293 413 62.6537 413.092 62.7261Z" fill="#253237"/>
<path d="M430.514 62.2352C430.597 62.986 431.248 63.5454 432.004 63.5104C432.755 63.4794 433.34 62.846 433.309 62.0949C433.309 62.0807 433.307 62.0677 433.307 62.0535C433.221 61.2851 432.542 60.7231 431.77 60.7839C431.024 60.8406 430.463 61.489 430.514 62.2352Z" fill="#253237"/>
<path d="M428.147 61.1969C428.345 61.352 429.32 60.4355 430.836 60.2527C432.352 60.0699 433.573 60.6978 433.716 60.5016C433.859 60.3055 433.571 60.0899 433.035 59.7968C432.321 59.4189 431.507 59.2703 430.706 59.374C429.916 59.4692 429.177 59.8136 428.595 60.356C428.096 60.7738 428.01 61.142 428.147 61.1969Z" fill="#253237"/>
<path d="M423.938 73.164C423.107 73.0138 422.26 72.9633 421.416 73.015C421.028 73.0617 420.638 72.9896 420.548 72.7381C420.462 72.3334 420.503 71.9123 420.665 71.5315C420.916 70.5473 421.173 69.5146 421.483 68.4279C422.245 65.7901 422.798 63.0952 423.135 60.3704C422.153 62.9393 421.383 65.5851 420.833 68.2797L420.088 71.3983C419.902 71.8978 419.896 72.447 420.073 72.9504C420.225 73.2123 420.487 73.3917 420.787 73.4366C421.009 73.4671 421.234 73.4722 421.457 73.4513C422.292 73.459 423.126 73.3621 423.938 73.164Z" fill="#253237"/>
<path d="M425.065 91.3085C430.295 90.7744 435.272 88.7911 439.435 85.581C439.435 85.581 436.754 93.6075 425.581 93.9054L425.065 91.3085Z" fill="#EB996E"/>
<path d="M425.027 76.7532C425.529 75.9461 426.41 75.4523 427.361 75.4461C428.051 75.4214 428.72 75.6806 429.213 76.1649C429.689 76.6346 429.823 77.3506 429.549 77.9608C429.117 78.5829 428.349 78.8794 427.611 78.7072C426.857 78.5394 426.144 78.2199 425.519 77.7671C425.334 77.6666 425.167 77.5328 425.03 77.3729C424.898 77.2147 424.871 76.9938 424.962 76.8087" fill="#EB996E"/>
<path d="M428.556 73.6804C428.309 73.7102 428.494 75.3454 427.225 76.6908C425.957 78.0362 424.171 78.0608 424.182 78.2502C424.193 78.4397 424.608 78.5208 425.398 78.4494C426.37 78.3429 427.275 77.9011 427.954 77.1991C428.599 76.5239 428.961 75.6265 428.964 74.6925C428.898 74.0446 428.66 73.6559 428.556 73.6804Z" fill="#253237"/>
<path d="M427.097 58.6167C427.299 59.0097 428.803 58.6256 430.617 58.6335C432.43 58.6414 433.933 58.9372 434.124 58.5445C434.208 58.3555 433.903 57.9988 433.277 57.6569C432.443 57.2519 431.523 57.0527 430.596 57.074C429.669 57.0701 428.754 57.2912 427.931 57.7173C427.304 58.0552 427.014 58.424 427.097 58.6167Z" fill="#253237"/>
<path d="M413.124 58.2387C413.436 58.5587 414.44 58.08 415.709 57.9269C416.979 57.7738 418.088 57.8785 418.268 57.4872C418.352 57.2982 418.204 56.9583 417.637 56.7047C416.968 56.3728 416.212 56.2589 415.475 56.3811C414.737 56.4857 414.048 56.8144 413.502 57.3226C413.096 57.7173 412.986 58.0883 413.124 58.2387Z" fill="#253237"/>
<path d="M425.328 38.5105C421.604 39.1539 418.103 40.7245 415.147 43.0771C411.756 45.3879 409.424 48.9508 408.662 52.9814C408.447 53.8277 408.589 54.724 409.056 55.4618C409.887 56.2882 411.188 56.4068 412.155 55.744C413.086 55.082 413.84 54.2006 414.35 53.1779C415.259 55.6296 417.985 56.8798 420.436 55.9701C422.144 55.3361 423.337 53.7804 423.505 51.9667C423.945 54.1459 426.022 55.5924 428.217 55.2501C430.36 54.8021 432.031 53.1244 432.472 50.9808C432.961 52.8607 433.844 54.6157 435.061 56.1301C436.33 57.6656 438.426 58.2429 440.303 57.5729C440.104 59.2449 440.333 60.9415 440.969 62.5009C441.743 63.9816 447.284 90.2511 448.794 89.5205C450.303 88.7899 446.979 61.7165 447.142 60.099C447.559 56.9841 447.579 53.8276 447.202 50.7072C446.619 44.0401 441.287 38.7803 434.614 38.2852C431.376 37.9423 428.107 38.036 424.894 38.563" fill="#253237"/>
<path d="M453.279 84.1978C453.279 84.1978 453.182 84.2811 452.957 84.3917C452.641 84.5526 452.308 84.6762 451.964 84.7618C448.678 85.5873 445.211 84.4456 443.061 81.8288C441.606 79.8816 440.809 77.5225 440.782 75.0919C440.653 72.5436 440.963 70.1691 440.978 68.0208C441.017 66.1105 440.955 64.1994 440.789 62.296C440.593 60.674 440.436 59.3694 440.325 58.4526C440.218 57.9897 440.161 57.5172 440.155 57.0421C440.351 57.4872 440.491 57.9556 440.574 58.4346C440.857 59.7038 441.076 60.9867 441.228 62.2788C441.456 64.1926 441.566 66.1195 441.554 68.0468C441.556 70.2407 441.283 72.6227 441.4 75.077C441.423 77.3852 442.16 79.6288 443.51 81.5003C444.669 82.98 446.301 84.0173 448.133 84.4368C449.367 84.7446 450.653 84.7852 451.903 84.5545C452.801 84.3866 453.261 84.1404 453.279 84.1978Z" fill="#253237"/>
<path d="M421.266 37.5574C421.791 38.311 422.099 39.1932 422.158 40.109C422.803 44.7355 419.588 49.013 414.965 49.6813C414.072 49.8773 413.141 49.8237 412.276 49.5286C412.263 49.4228 413.308 49.583 414.885 49.214C419.177 48.3983 422.152 44.461 421.765 40.1088C421.612 38.5413 421.163 37.5937 421.266 37.5574Z" fill="#455964"/>
<path d="M424.456 50.3614C424.515 50.3543 424.464 51.1236 423.717 52.0484C422.705 53.2067 421.265 53.9014 419.728 53.9723C418.235 54.0188 416.752 53.7026 415.407 53.0504C414.383 52.5657 413.811 52.1697 413.844 52.0465C414.434 52.1565 415.009 52.34 415.555 52.5914C416.873 53.086 418.274 53.3225 419.681 53.2863C421.072 53.2009 422.385 52.6192 423.383 51.6475C424.176 51.0034 424.38 50.3229 424.456 50.3614Z" fill="#455964"/>
<path d="M450.671 43.778C450.872 44.7805 450.923 45.807 450.824 46.8242C450.787 49.3197 450.141 51.7671 448.941 53.9556C447.663 56.1572 445.531 57.7343 443.051 58.3147C442.304 58.474 441.533 58.4894 440.78 58.3621C440.256 58.2702 439.991 58.1472 439.998 58.1105C440.989 58.1675 441.981 58.0919 442.952 57.8855C445.244 57.2239 447.196 55.7079 448.404 53.6507C449.546 51.537 450.22 49.2032 450.381 46.8061C450.415 45.792 450.512 44.781 450.671 43.778Z" fill="#455964"/>
<path d="M453.338 48.8822C453.482 49.1712 453.579 49.4815 453.627 49.8012C453.809 50.6474 453.933 51.5053 453.996 52.3682C454.283 55.2683 453.585 58.1798 452.012 60.6327C451.121 61.9851 449.879 63.0697 448.42 63.7727C447.222 64.331 445.9 64.5726 444.581 64.4741C443.696 64.4127 442.834 64.1684 442.05 63.7538C441.512 63.449 441.268 63.2042 441.289 63.1778C442.327 63.675 443.452 63.9687 444.6 64.0424C445.834 64.0701 447.057 63.8047 448.168 63.2665C449.517 62.5756 450.665 61.5499 451.505 60.2884C452.992 57.9293 453.713 55.1689 453.569 52.3839C453.501 50.2338 453.233 48.9067 453.338 48.8822Z" fill="#455964"/>
<path d="M302.661 194.131L281.174 243.274H310.759L331.832 193.741L302.661 194.131Z" fill="#455964"/>
<path d="M287.034 141.863L311.268 189.526H387.7L384.61 183.299L362.471 182.636L344.417 142.455C343.297 139.955 340.812 138.346 338.071 138.347H289.189C287.882 138.3 286.786 139.321 286.738 140.628C286.723 141.059 286.825 141.487 287.034 141.863Z" fill="#DFDFDF"/>
<path d="M325.309 163.232C325.309 164.847 324 166.156 322.385 166.156C320.77 166.156 319.461 164.847 319.461 163.232C319.461 161.617 320.77 160.308 322.385 160.308C323.997 160.314 325.303 161.62 325.309 163.232Z" fill="#253237"/>
<path d="M302.413 189.621H395.845V194.179H302.413V189.621Z" fill="#455964"/>
<path d="M367.064 191.906L395.489 243.322H409.08L412.04 237.438L414.763 231.246L395.845 194.179L367.064 191.906Z" fill="#455964"/>
<path d="M416.456 103.754C416.456 103.754 404.913 129.634 405.351 143.769C405.505 148.682 408.725 161.527 408.725 161.527L414.728 193.326C414.728 193.326 460.674 187.111 461.692 187.111C462.71 187.111 460.153 161.006 460.153 161.006L467.647 110.845C467.647 110.845 464.214 104.014 448.705 101.647C439.411 100.19 416.456 103.754 416.456 103.754Z" fill="#D5D5D5"/>
<path d="M412.099 118.777C412.206 118.837 410.998 120.766 409.542 124.105C408.698 126.059 407.987 128.069 407.411 130.119C406.72 132.631 406.217 135.192 405.908 137.779C405.635 140.37 405.553 142.977 405.659 145.58C405.767 147.706 406.015 149.822 406.405 151.914C407.068 155.466 407.826 157.644 407.707 157.68C407.459 157.209 407.261 156.713 407.115 156.2C406.905 155.614 406.722 155.017 406.571 154.412C406.381 153.702 406.133 152.909 405.967 152.044C405.523 149.937 405.231 147.8 405.091 145.652C404.949 143.014 405.016 140.37 405.292 137.743C405.607 135.12 406.134 132.527 406.867 129.989C407.475 127.925 408.239 125.911 409.152 123.963C409.484 123.206 409.856 122.468 410.264 121.749C410.547 121.193 410.86 120.65 411.2 120.127C411.453 119.648 411.755 119.195 412.099 118.777Z" fill="#253237"/>
<path d="M422.044 103.517L422.707 96.4139C422.857 94.8855 424.131 93.7134 425.666 93.6909L448.338 93.3476C449.764 93.331 450.96 94.4226 451.073 95.8456L451.653 103.505C449.755 107.528 446.544 110.785 442.549 112.74C435.883 115.972 425.524 116.078 425.524 116.078L422.044 103.517Z" fill="#D5D5D5"/>
<path d="M427.975 93.7502C428.046 93.7502 427.715 94.2119 427.573 94.934C427.445 95.9794 427.445 97.0378 427.573 98.0832C427.771 99.608 427.771 101.152 427.573 102.677C427.165 101.192 426.958 99.6589 426.957 98.1187C426.798 97.0224 426.847 95.906 427.099 94.8275C427.49 94.0106 427.94 93.691 427.975 93.7502Z" fill="#253237"/>
<path d="M433.409 102.535C433.014 101.084 432.822 99.5867 432.841 98.0831C432.753 97.02 432.753 95.9498 432.841 94.8867C432.959 94.0343 433.303 93.5962 433.374 93.7028C433.445 93.8093 433.267 94.2 433.279 94.9813C433.291 95.7627 433.409 96.8756 433.409 98.0594C433.608 99.544 433.608 101.05 433.409 102.535Z" fill="#253237"/>
<path d="M440.216 102.345C439.726 100.964 439.428 99.5216 439.328 98.0595C439.036 96.6104 438.945 95.1294 439.056 93.6555C439.551 95.0477 439.849 96.5015 439.944 97.9766C440.232 99.4138 440.324 100.883 440.216 102.345Z" fill="#253237"/>
<path d="M446.088 102.795C445.547 101.274 445.26 99.6743 445.236 98.0595C445.009 96.4494 445.049 94.8145 445.354 93.2174C445.665 94.7778 445.83 96.363 445.852 97.9529C446.081 99.5559 446.161 101.177 446.088 102.795Z" fill="#253237"/>
<path d="M450.587 129.918C449.676 137.885 450.279 151.618 453.097 159.136L466.333 137.27L450.587 129.918Z" fill="black"/>
<path d="M421.914 118.02C420.588 117.248 419.369 116.304 418.291 115.214C417.075 114.275 415.992 113.176 415.071 111.946C417.613 113.656 419.914 115.699 421.914 118.02Z" fill="#FAFAFA"/>
<path d="M418.397 131.717C417.469 132.671 416.393 133.471 415.213 134.085C414.13 134.871 412.931 135.486 411.661 135.908C413.67 134.181 415.935 132.776 418.374 131.741L418.397 131.717Z" fill="#FAFAFA"/>
<path d="M432.924 135.091C432.713 133.409 432.713 131.707 432.924 130.024C432.932 128.332 433.139 126.648 433.539 125.005C433.747 126.683 433.747 128.381 433.539 130.06C433.535 131.755 433.329 133.444 432.924 135.091Z" fill="#FAFAFA"/>
<path d="M447.047 148.789C445.869 147.683 444.77 146.496 443.756 145.237C442.592 144.128 441.504 142.942 440.5 141.685C441.921 142.509 443.177 143.589 444.206 144.87C445.378 145.998 446.339 147.324 447.047 148.789Z" fill="#FAFAFA"/>
<path d="M449.036 120.151C448.021 121.208 446.861 122.116 445.591 122.85C444.429 123.745 443.15 124.478 441.791 125.028C442.81 123.97 443.974 123.061 445.248 122.329C446.409 121.439 447.683 120.706 449.036 120.151Z" fill="#FAFAFA"/>
<path d="M436.274 109.792C435.151 110.884 433.884 111.821 432.509 112.574C431.248 113.507 429.872 114.272 428.413 114.847C429.538 113.752 430.805 112.813 432.178 112.053C433.443 111.131 434.819 110.372 436.274 109.792Z" fill="#FAFAFA"/>
<path d="M447.781 113.912C447.006 112.766 446.4 111.513 445.982 110.194C445.4 108.939 445.001 107.609 444.798 106.24C445.583 107.385 446.19 108.642 446.598 109.969C447.187 111.217 447.586 112.545 447.781 113.912Z" fill="#FAFAFA"/>
<path d="M417.202 152.115C416.237 150.779 415.441 149.327 414.834 147.794C414.041 146.348 413.429 144.809 413.011 143.213C413.976 144.549 414.771 146.001 415.379 147.534C416.174 148.979 416.786 150.518 417.202 152.115Z" fill="#FAFAFA"/>
<path d="M434.593 170.797C433.48 169.786 432.513 168.627 431.716 167.352C430.765 166.189 429.97 164.907 429.348 163.54C430.464 164.552 431.436 165.711 432.237 166.985C433.192 168.143 433.986 169.425 434.593 170.797Z" fill="#FAFAFA"/>
<path d="M448.965 162.96C447.747 163.754 446.424 164.376 445.035 164.807C443.718 165.428 442.319 165.854 440.879 166.073C443.412 164.654 446.135 163.605 448.965 162.96Z" fill="#FAFAFA"/>
<path d="M413.555 178.09C414.124 175.856 415.081 173.74 416.385 171.839C416.185 172.985 415.783 174.087 415.201 175.095C414.833 176.181 414.275 177.196 413.555 178.09Z" fill="#FAFAFA"/>
<path d="M402.415 124.59C401.731 123.724 401.319 122.672 401.231 121.571C400.952 120.505 401.001 119.378 401.373 118.339C401.617 119.366 401.776 120.411 401.847 121.465C402.12 122.49 402.311 123.534 402.415 124.59Z" fill="#FAFAFA"/>
<path d="M422.198 166.109C420.933 165.776 419.734 165.236 418.646 164.511C417.467 163.976 416.38 163.256 415.426 162.38C416.688 162.718 417.887 163.258 418.978 163.978C420.152 164.522 421.238 165.24 422.198 166.109Z" fill="#FAFAFA"/>
<path d="M433.622 146.385C431.681 148.711 429.425 150.754 426.921 152.459C427.82 151.233 428.88 150.135 430.071 149.191C431.121 148.099 432.316 147.155 433.622 146.385Z" fill="#FAFAFA"/>
<path d="M426.625 146.018C427.2 150.145 429.041 153.992 431.894 157.029C434.853 159.917 439.435 161.373 443.283 159.87C444.136 159.635 444.821 158.999 445.118 158.165C445.251 157.124 444.632 156.134 443.638 155.797C442.679 155.49 441.674 155.345 440.666 155.371C434.83 154.988 429.606 151.611 426.862 146.445" fill="black"/>
<path d="M442.016 155.561C442.016 155.561 441.744 155.655 441.223 155.703C440.491 155.777 439.752 155.777 439.021 155.703C437.933 155.575 436.865 155.32 435.836 154.945C433.298 154.032 431.045 152.468 429.301 150.411C428.593 149.576 427.986 148.663 427.49 147.688C427.141 147.038 426.867 146.351 426.673 145.64C426.578 145.386 426.526 145.118 426.519 144.846C426.637 144.846 426.957 145.912 427.869 147.475C428.403 148.386 429.025 149.243 429.727 150.032C430.598 150.992 431.571 151.853 432.628 152.601C433.696 153.325 434.839 153.933 436.037 154.412C437.02 154.798 438.039 155.085 439.08 155.265C440.868 155.525 442.016 155.442 442.016 155.561Z" fill="#253237"/>
<path d="M466.66 109.416L466.728 109.49C470.296 113.598 472.82 118.508 474.083 123.8L476.009 135.017L449.807 137.844C448.591 133.068 448.48 128.078 449.481 123.252C451.142 114.938 466.66 109.416 466.66 109.416Z" fill="#D5D5D5"/>
<path d="M476.009 135.017C475.837 135.068 475.662 135.104 475.483 135.123L473.98 135.327L468.368 135.982L449.386 137.979L449.055 137.964L449.07 137.621C449.083 136.045 449.111 134.411 449.153 132.73C449.294 128.364 449.544 124.192 449.979 120.407C450.315 117.013 451.508 113.761 453.446 110.955C454.749 109.068 456.486 107.521 458.512 106.447C459.059 106.155 459.634 105.919 460.227 105.743C460.426 105.662 460.636 105.613 460.85 105.594C460.85 105.594 460.008 105.875 458.62 106.677C456.688 107.794 455.04 109.339 453.803 111.196C451.957 113.988 450.834 117.194 450.53 120.527C450.086 124.276 449.906 128.439 449.777 132.806C449.701 134.462 449.709 136.11 449.673 137.672L449.343 137.361L468.387 135.568L474.014 135.103L475.536 134.995C475.694 134.982 475.853 134.99 476.009 135.017Z" fill="#253237"/>
<path d="M463.403 119.186C461.572 117.788 460.006 116.075 458.776 114.127C459.752 114.745 460.61 115.531 461.312 116.447C462.169 117.226 462.878 118.153 463.403 119.186Z" fill="#FAFAFA"/>
<path d="M456.358 130.418C456.035 129.232 455.92 128 456.015 126.776C455.894 125.557 455.986 124.326 456.289 123.138C456.723 125.544 456.747 128.005 456.358 130.418Z" fill="#FAFAFA"/>
<path d="M469.606 128.632C468.22 128.787 466.817 128.676 465.474 128.3C464.093 128.123 462.758 127.688 461.539 127.017C462.912 127.094 464.273 127.324 465.596 127.701C466.962 127.868 468.307 128.18 469.606 128.632Z" fill="#FAFAFA"/>
<path d="M374.182 170.687L391.399 169.474L403.111 177.94L449.741 168.986L452.279 137.436L472.898 135.68L471.142 173.938C470.46 183.598 462.091 190.884 452.429 190.229L384.915 185.247L382.305 179.368L367.814 178.264L374.182 170.687Z" fill="#FFBE9D"/>
<path d="M449.2 168.902C448.911 169.003 448.613 169.081 448.312 169.134L445.775 169.67L436.41 171.539L405.463 177.55L402.581 178.105L402.463 178.1L402.369 178.096L390.67 169.607L390.835 169.614L373.608 170.815L373.729 170.749L368.924 176.301L367.672 177.76C367.532 177.935 367.373 178.095 367.199 178.236C367.318 178.048 367.45 177.868 367.592 177.697L368.846 176.19L373.513 170.55L373.584 170.553L390.795 169.198L390.89 169.202L390.961 169.205L402.685 177.66L402.472 177.65L405.354 177.095L436.329 171.239L445.734 169.526L448.291 169.086C448.588 169.001 448.892 168.939 449.2 168.902Z" fill="#EB996E"/>
<path d="M383.312 176.024C381.091 176.182 378.861 176.166 376.642 175.979L375.459 175.925L375.628 175.873C374.234 177.042 372.738 178.084 371.159 178.987C372.44 177.697 373.826 176.516 375.303 175.455L375.377 175.388L376.69 175.448C378.909 175.458 381.124 175.651 383.312 176.024Z" fill="#EB996E"/>
<path d="M457.466 174.461C456.649 173.029 455.559 171.772 454.258 170.758C452.869 169.887 451.321 169.301 449.704 169.032C450.19 168.889 450.704 168.871 451.199 168.982C453.635 169.354 455.758 170.84 456.94 173.002C457.24 173.433 457.421 173.937 457.466 174.461Z" fill="#EB996E"/>
<path d="M139.004 353.595L143.154 353.337C146.105 353.157 148.982 352.34 151.587 350.942C152.863 350.233 154.181 349.604 155.534 349.058C160.701 347.116 166.422 347.602 171.944 347.431C180.99 347.163 189.892 345.084 198.121 341.318C198.615 341.113 199.035 340.761 199.326 340.313C200.211 338.78 198.653 337.362 197.309 336.494C190.403 332.04 183.38 327.538 175.505 325.232C167.631 322.925 158.616 323.106 151.773 327.618C143.73 332.923 140.598 344.084 139.063 353.596" fill="#0E9D1C"/>
<path d="M199.373 339.769C199.136 339.666 198.905 339.551 198.682 339.423L196.738 338.353C195.052 337.418 192.63 336.042 189.547 334.498C185.979 332.642 182.25 331.114 178.404 329.933C173.703 328.476 168.757 327.971 163.858 328.448C158.953 328.892 154.29 330.781 150.46 333.879C147.463 336.55 145.043 339.804 143.347 343.442C141.827 346.525 140.861 349.157 140.184 350.943L139.395 353.023C139.317 353.27 139.217 353.509 139.096 353.739C139.136 353.481 139.2 353.229 139.289 352.985C139.466 352.456 139.694 351.75 139.972 350.879C140.815 348.309 141.809 345.792 142.946 343.339C144.619 339.615 147.051 336.281 150.088 333.552C153.973 330.342 158.734 328.378 163.751 327.913C168.717 327.417 173.732 327.923 178.498 329.402C182.364 330.625 186.109 332.2 189.686 334.11C192.743 335.712 195.141 337.135 196.802 338.129L198.696 339.293C198.941 339.422 199.169 339.582 199.373 339.769Z" fill="#253237"/>
<path d="M189.308 344.949C189.222 345.065 183.862 341.449 177.349 336.862C170.837 332.275 165.623 328.449 165.684 328.332C165.746 328.215 171.118 331.831 177.631 336.418C184.143 341.005 189.393 344.82 189.308 344.949Z" fill="#253237"/>
<path d="M184.444 328.187C181.662 328.999 178.739 329.208 175.87 328.803C177.282 328.54 178.716 328.403 180.153 328.395C181.574 328.201 183.01 328.133 184.444 328.187Z" fill="#253237"/>
<path d="M160.21 323.329C159.124 325.757 157.72 328.03 156.033 330.086C156.483 328.835 157.105 327.652 157.882 326.572C158.501 325.386 159.285 324.293 160.21 323.329Z" fill="#253237"/>
<path d="M164.563 347.634C163.656 347.234 162.792 346.74 161.988 346.16C160.433 345.18 158.344 343.716 156.152 342.049C153.961 340.381 151.969 338.765 150.549 337.599C149.752 337.01 149.013 336.35 148.34 335.623C149.21 336.099 150.031 336.66 150.792 337.296L156.493 341.618C158.708 343.297 160.75 344.773 162.243 345.845C163.067 346.373 163.843 346.971 164.563 347.634Z" fill="#253237"/>
<path d="M144.736 371.345C140.804 370.21 136.002 373.959 135.126 377.955C134.25 381.951 135.657 386.077 137.331 389.842C140.93 398.198 146.37 405.633 153.246 411.592C160.183 417.525 168.922 420.939 178.043 421.282C176.535 413.483 178.809 405.406 178.049 397.493C176.647 383.138 165.514 371.655 151.209 369.809C148.694 369.485 145.778 369.034 144.724 371.345" fill="#0E9D1C"/>
<path d="M178.043 421.282C177.846 421.211 177.657 421.121 177.48 421.01C176.968 420.706 176.48 420.364 176.021 419.985C174.393 418.508 173.099 416.701 172.223 414.684C171.62 413.488 170.939 412.1 170.283 410.606C169.627 409.112 168.973 407.536 168.25 405.828C167.527 404.079 166.687 402.38 165.738 400.743C164.72 398.998 163.567 397.335 162.289 395.769C159.656 392.542 156.801 389.735 154.334 387.044C152.102 384.699 150.078 382.166 148.286 379.47C147.085 377.643 146.108 375.679 145.375 373.62C145.142 372.893 144.964 372.309 144.878 371.916C144.817 371.72 144.781 371.516 144.772 371.31C144.772 371.31 145.027 372.121 145.578 373.553C146.381 375.56 147.398 377.475 148.61 379.264C150.439 381.902 152.479 384.387 154.708 386.696C157.187 389.353 160.054 392.159 162.722 395.423C164.03 397.01 165.211 398.698 166.253 400.47C167.198 402.134 168.036 403.855 168.763 405.625L170.749 410.403C171.381 411.884 172.04 413.248 172.63 414.479C173.453 416.476 174.672 418.286 176.215 419.799C177.33 420.841 178.103 421.236 178.043 421.282Z" fill="#253237"/>
<path d="M157.735 414.408C157.777 413.51 157.919 412.619 158.157 411.753C158.499 410.126 159.054 407.899 159.791 405.475C160.528 403.051 161.306 400.9 161.93 399.362C162.207 398.507 162.585 397.687 163.058 396.922C162.88 397.798 162.625 398.657 162.295 399.488C161.765 401.064 161.033 403.227 160.32 405.64C159.607 408.053 159.041 410.243 158.534 411.843C158.353 412.723 158.085 413.582 157.735 414.408Z" fill="#253237"/>
<path d="M177.849 395.748C176.903 395.588 175.974 395.353 175.069 395.039C173.373 394.566 171.031 393.902 168.427 393.256C165.823 392.61 163.442 392.111 161.721 391.743C160.775 391.602 159.845 391.377 158.94 391.07C159.897 391.065 160.852 391.165 161.788 391.366C163.535 391.627 165.941 392.079 168.557 392.69C171.173 393.301 173.514 394.06 175.184 394.639C176.107 394.915 177.001 395.286 177.849 395.748Z" fill="#253237"/>
<path d="M143.338 400.576C143.404 399.536 143.568 398.505 143.828 397.495C144.222 395.621 144.82 393.028 145.624 390.215C146.429 387.401 147.262 384.873 147.916 383.062C148.24 382.067 148.656 381.105 149.159 380.187C148.966 381.209 148.692 382.212 148.339 383.19C147.78 385.025 146.994 387.555 146.202 390.357C145.41 393.159 144.741 395.738 144.264 397.587C144.041 398.608 143.731 399.608 143.338 400.576Z" fill="#253237"/>
<path d="M169.114 378.942C169.111 379.084 164.16 378.591 158.101 377.814C152.043 377.038 147.132 376.297 147.159 376.155C150.846 376.338 154.522 376.71 158.172 377.271C161.845 377.642 165.498 378.199 169.114 378.942Z" fill="#253237"/>
<path d="M141.155 372.727C141.099 372.93 141.023 373.127 140.93 373.315C140.743 373.749 140.495 374.289 140.209 374.946C140.048 375.31 139.874 375.697 139.676 376.119C139.477 376.541 139.325 377.047 139.137 377.552L138.499 379.197C138.285 379.785 138.107 380.373 137.892 381.079C136.909 384.168 136.12 387.316 135.53 390.503C134.854 394.414 134.377 398.356 134.101 402.315C133.673 409.519 133.73 416.744 134.27 423.941C134.461 426.716 134.664 428.946 134.821 430.489C134.877 431.212 134.936 431.805 134.974 432.268C134.985 432.477 134.981 432.687 134.961 432.895C134.891 432.696 134.848 432.488 134.832 432.277C134.758 431.814 134.676 431.232 134.572 430.519C134.355 428.975 134.082 426.743 133.843 423.979C133.187 416.765 133.08 409.51 133.522 402.279C133.779 398.299 134.257 394.336 134.951 390.408C135.565 387.214 136.398 384.067 137.443 380.987C137.67 380.328 137.861 379.693 138.086 379.117L138.759 377.474L139.357 376.053C139.556 375.619 139.753 375.244 139.926 374.881L140.752 373.287C140.856 373.08 140.992 372.891 141.155 372.727Z" fill="#253237"/>
<path d="M139.603 352.127C139.532 352.411 139.444 352.69 139.337 352.962C139.124 353.538 138.835 354.325 138.483 355.313L137.856 357.005C137.654 357.64 137.427 358.322 137.187 359.052C136.706 360.51 136.151 362.168 135.651 364.04L134.808 366.972C134.55 367.996 134.291 369.069 134.02 370.164C133.43 372.366 132.99 374.761 132.441 377.236C131.485 382.261 130.623 387.856 129.981 393.704C129.339 399.552 129.044 405.218 128.867 410.342C128.69 415.466 128.666 420.083 128.846 423.959C128.865 425.901 128.96 427.644 129.022 429.185C129.085 430.725 129.153 432.053 129.225 433.132C129.297 434.211 129.328 435.005 129.363 435.633C129.372 435.921 129.366 436.21 129.345 436.497C129.275 436.218 129.233 435.93 129.22 435.642C129.162 435.014 129.085 434.195 128.976 433.151C128.867 432.106 128.764 430.778 128.679 429.201C128.593 427.625 128.474 425.917 128.42 423.974C128.24 420.086 128.228 415.468 128.323 410.331C128.417 405.193 128.782 399.553 129.402 393.657C130.021 387.761 130.93 382.179 131.91 377.131C132.471 374.62 132.935 372.226 133.537 370.06C133.82 368.952 134.103 367.881 134.361 366.856L135.238 363.937C135.762 362.065 136.353 360.408 136.869 358.95C137.121 358.221 137.36 357.551 137.574 356.916C137.788 356.281 138.036 355.742 138.248 355.237L139.197 352.888C139.303 352.62 139.44 352.365 139.603 352.127Z" fill="#253237"/>
<path d="M122.761 436.323C122.607 436.32 122.943 410.891 123.498 379.5C124.052 348.108 124.672 322.685 124.791 322.688C124.909 322.69 124.608 348.119 124.054 379.511C123.5 410.903 122.915 436.326 122.761 436.323Z" fill="#253237"/>
<path d="M117.779 440.719C117.769 440.621 117.772 440.522 117.785 440.424C117.79 440.199 117.796 439.915 117.732 439.546C117.69 438.74 117.642 437.614 117.577 436.18C117.449 433.205 117.276 428.986 117.052 423.771C116.605 413.306 115.933 398.881 114.498 382.925C113.763 374.953 112.877 367.391 111.93 360.527C111.432 357.107 110.979 353.853 110.438 350.81C109.897 347.768 109.375 344.951 108.954 342.372C108.534 339.794 107.978 337.485 107.558 335.452C107.138 333.418 106.76 331.658 106.482 330.231C106.203 328.805 105.929 327.733 105.745 326.936C105.681 326.591 105.616 326.306 105.573 326.08C105.557 325.981 105.559 325.882 105.579 325.784C105.626 325.874 105.659 325.97 105.68 326.07L105.899 326.915C106.108 327.701 106.381 328.796 106.743 330.189C107.105 331.582 107.53 333.344 107.974 335.389C108.417 337.435 108.961 339.732 109.441 342.311C109.92 344.891 110.514 347.698 110.996 350.739C111.477 353.78 112.049 357.037 112.547 360.469C113.518 367.334 114.415 374.907 115.151 382.868C116.585 398.812 117.198 413.283 117.55 423.758C117.725 429.007 117.839 433.237 117.897 436.175C117.867 437.607 117.939 438.733 117.946 439.551C117.938 439.906 117.932 440.202 117.927 440.427C117.893 440.531 117.843 440.63 117.779 440.719Z" fill="#253237"/>
<path d="M124.229 334.979C123.959 331.421 120.382 328.577 116.761 328.466C113.087 328.553 109.657 330.324 107.461 333.271C105.317 336.199 103.742 339.504 102.819 343.015C100.205 351.451 98.6955 360.337 99.5557 369.129C100.416 377.921 103.788 386.623 109.957 392.944C110.954 393.983 112.283 395.017 113.674 394.738C114.428 394.534 115.117 394.141 115.675 393.595C128.381 382.437 135.646 366.333 135.606 349.424C135.58 346.096 135.214 342.607 133.436 339.8C131.659 336.992 127.4 333.944 124.24 334.992" fill="#0E9D1C"/>
<path d="M97.8035 305.54L92.5231 314.667C92.4003 314.878 92.2413 315.123 91.9925 315.13C91.7437 315.137 91.5237 314.895 91.3863 314.667L78.3429 293.77L81.4805 292.071L97.8035 305.54Z" fill="#0E9D1C"/>
<path d="M97.8035 305.54L92.5231 314.667C92.4003 314.878 92.2413 315.123 91.9925 315.13C91.7437 315.137 91.5237 314.895 91.3863 314.667L78.3429 293.77L81.4805 292.071L97.8035 305.54Z" fill="black"/>
<path d="M124.79 322.735L79.4019 294.668C78.8782 294.455 78.4604 294.041 78.2415 293.519C78.0779 292.841 78.6006 292.189 79.0964 291.69C85.631 285.193 94.6674 281.857 103.856 282.551C113.068 283.406 121.267 288.744 125.775 296.823C130.038 304.833 129.975 315.323 124.73 322.734" fill="#0E9D1C"/>
<path d="M86.2564 286.154C86.454 286.104 86.6581 286.084 86.8615 286.095C87.2521 286.104 87.8459 286.021 88.6032 286.049C90.7367 286.064 92.8649 286.274 94.9608 286.677C98.0827 287.28 101.117 288.268 103.994 289.623C114.046 294.398 121.438 303.415 124.149 314.208C124.699 316.277 125.052 318.394 125.202 320.529C125.282 321.277 125.246 321.868 125.261 322.271C125.277 322.473 125.273 322.674 125.249 322.875C125.249 322.875 125.159 322.044 125.002 320.502C124.783 318.394 124.394 316.307 123.84 314.261C120.194 300.415 108.989 289.85 94.9537 287.021C92.881 286.582 90.7753 286.313 88.6589 286.216C87.0371 286.194 86.2554 286.201 86.2564 286.154Z" fill="#253237"/>
<path d="M118.951 303.893C118.2 304.329 117.398 304.666 116.562 304.898C115.082 305.447 112.984 306.138 110.72 306.826C108.455 307.513 106.313 308.037 104.767 308.384C103.945 308.617 103.1 308.758 102.248 308.806C103.013 308.455 103.812 308.185 104.632 308.002L110.517 306.289L116.392 304.527C117.222 304.232 118.079 304.02 118.951 303.893Z" fill="#253237"/>
<path d="M112.121 284.309C112.497 285.993 112.644 287.722 112.559 289.445C112.658 291.169 112.527 292.899 112.169 294.588C111.982 292.88 111.93 291.161 112.014 289.446C111.915 287.734 111.95 286.015 112.121 284.309Z" fill="#253237"/>
<path d="M78.9864 294.151C80.0713 293.679 81.1969 293.306 82.3487 293.036C84.4453 292.428 87.374 291.672 90.6806 290.958C93.9872 290.245 96.9112 289.714 99.0022 289.378C100.175 289.142 101.366 289.008 102.563 288.978C101.432 289.316 100.279 289.577 99.1128 289.759C96.9724 290.189 94.0224 290.838 90.7877 291.505C87.5531 292.173 84.6131 292.905 82.4595 293.405C81.3196 293.73 80.1599 293.979 78.9864 294.151Z" fill="#253237"/>
<path d="M103.526 326.002C99.6347 322.926 95.468 322.283 90.5054 322.334C85.5383 322.548 80.6562 323.688 76.1079 325.696C68.2852 328.92 60.9024 333.777 56.128 340.759C51.3537 347.741 49.5383 357.082 52.8468 364.871C53.1035 365.684 53.6493 366.374 54.3816 366.809C55.2371 367.067 56.1571 367.014 56.9779 366.662C65.8554 363.968 74.7807 361.251 82.9815 356.921C91.1824 352.591 98.6858 346.482 103.199 338.393C104.351 336.507 105.111 334.409 105.434 332.223C105.721 329.985 105.03 327.731 103.537 326.038" fill="#0E9D1C"/>
<path d="M103.616 325.08C103.416 325.189 103.204 325.272 102.984 325.328L101.124 325.929L99.7774 326.339C99.2884 326.506 98.7632 326.709 98.2022 326.922C97.0803 327.349 95.8164 327.773 94.3942 328.406L92.2197 329.344C91.455 329.672 90.7005 330.083 89.899 330.48C88.2849 331.229 86.6544 332.201 84.9052 333.184C77.4295 337.607 70.7422 343.242 65.117 349.861C63.9008 351.411 62.6274 352.865 61.6141 354.336C61.09 355.059 60.5668 355.735 60.1026 356.424L58.8774 358.412C58.0227 359.661 57.3817 360.88 56.7681 361.921C56.4733 362.436 56.1792 362.915 55.9329 363.372C55.6867 363.829 55.4887 364.239 55.3031 364.626L54.391 366.36C54.3038 366.57 54.1884 366.766 54.0473 366.945C54.1099 366.726 54.1936 366.513 54.2973 366.31L55.1038 364.527C55.2894 364.14 55.4876 363.718 55.6986 363.249C55.9096 362.779 56.2156 362.3 56.4988 361.773C57.0893 360.708 57.7314 359.43 58.5383 358.204C58.9542 357.561 59.3708 356.883 59.7643 356.181C60.1577 355.478 60.74 354.804 61.2526 354.068C62.2545 352.573 63.4808 351.106 64.7329 349.534C67.5621 346.2 70.6506 343.096 73.9717 340.252C77.3273 337.456 80.9045 334.936 84.6662 332.717C86.4272 331.735 88.0812 330.774 89.7068 330.038C90.52 329.653 91.2861 329.254 92.0985 328.904L94.3078 328.002C95.7061 327.38 97.0169 326.98 98.162 326.578C98.7343 326.388 99.2593 326.198 99.7598 326.042L101.117 325.668L103.01 325.174C103.21 325.127 103.412 325.096 103.616 325.08Z" fill="#253237"/>
<path d="M72.4016 341.155C69.2296 342.289 66.0006 343.253 62.7267 344.045C59.4987 345.022 56.2165 345.812 52.8968 346.412C56.0689 345.278 59.2978 344.313 62.5717 343.521C65.802 342.552 69.0841 341.761 72.4016 341.155Z" fill="#253237"/>
<path d="M71.5617 362.31C71.4211 361.317 71.3697 360.313 71.4105 359.311C71.4487 357.464 71.5018 354.896 71.56 352.079C71.6183 349.262 71.9081 346.698 72.1002 344.855C72.1446 343.85 72.2931 342.854 72.5406 341.88C72.5992 342.882 72.5784 343.888 72.4785 344.886C72.3656 346.909 72.2436 349.369 72.1043 352.102C71.9649 354.834 71.8666 357.295 71.7656 359.318C71.7887 360.319 71.7206 361.321 71.5617 362.31Z" fill="#253237"/>
<path d="M89.9325 353.477C89.7786 353.474 89.4008 348.268 89.0957 341.831C88.7907 335.395 88.65 330.17 88.8039 330.174C88.9578 330.177 89.3241 335.371 89.6409 341.807C89.9578 348.244 90.0866 353.468 89.9325 353.477Z" fill="#253237"/>
<path d="M67.8051 329.23C68.828 329.122 69.8596 329.112 70.8844 329.199C72.7783 329.238 75.4044 329.364 78.3024 329.518C81.2003 329.673 83.8137 329.845 85.7053 329.991C86.7336 330.025 87.7565 330.146 88.7648 330.35C87.7418 330.458 86.7102 330.469 85.6854 330.381C83.7916 330.342 81.1651 330.229 78.2674 330.062C75.3698 329.896 72.7561 329.735 70.8527 329.589C69.8279 329.556 68.8085 329.436 67.8051 329.23Z" fill="#253237"/>
<path d="M111.883 395.446C111.835 395.237 111.815 395.021 111.825 394.806C111.835 394.344 111.847 393.741 111.78 393.005C111.741 391.429 111.776 389.168 111.917 386.353C112.058 383.538 112.281 380.215 112.689 376.529C113.096 372.843 113.725 368.794 114.558 364.584C115.391 360.374 116.396 356.428 117.407 352.802C118.417 349.175 119.5 346.06 120.479 343.392C121.457 340.724 122.281 338.693 122.975 337.215C123.273 336.535 123.508 336.042 123.707 335.561C123.784 335.365 123.879 335.176 123.991 334.998C123.961 335.207 123.896 335.409 123.801 335.598L123.091 337.324C122.516 338.781 121.727 340.848 120.807 343.553C119.887 346.257 118.874 349.434 117.865 352.965C116.857 356.497 115.898 360.479 115.053 364.677C114.209 368.875 113.616 372.936 113.162 376.562C112.708 380.188 112.425 383.557 112.273 386.349C112.12 389.14 112.014 391.411 111.981 392.986C111.966 393.719 111.954 394.311 111.944 394.785C111.94 395.006 111.918 395.227 111.883 395.446Z" fill="#253237"/>
<path d="M114.946 364.142C114.393 364.866 113.764 365.528 113.07 366.116C111.862 367.276 110.136 368.827 108.184 370.48C106.231 372.133 104.39 373.551 103.031 374.553C102.335 375.134 101.579 375.638 100.774 376.058C101.391 375.389 102.069 374.781 102.801 374.24L107.825 370.058L112.815 365.827C113.47 365.199 114.184 364.634 114.946 364.142Z" fill="#253237"/>
<path d="M129.251 376.149C128.548 375.287 127.914 374.371 127.353 373.41L122.957 366.688L118.453 360.035C117.783 359.146 117.181 358.206 116.652 357.227C117.437 358.016 118.145 358.88 118.766 359.804C120.01 361.452 121.668 363.76 123.366 366.389C125.064 369.017 126.601 371.429 127.642 373.203C128.269 374.132 128.808 375.119 129.251 376.149Z" fill="#253237"/>
<path d="M122.39 339.145C122.47 339.277 117.585 342.432 111.457 346.19C105.328 349.947 100.306 352.898 100.226 352.766C100.145 352.634 105.03 349.479 111.17 345.722C117.311 341.965 122.321 339.025 122.39 339.145Z" fill="#253237"/>
<path d="M135.768 354.164C133.261 351.988 130.871 349.682 128.605 347.255C126.214 344.966 123.951 342.547 121.827 340.01C124.344 342.18 126.739 344.487 129.002 346.919C131.395 349.202 133.654 351.621 135.768 354.164Z" fill="#253237"/>
<path d="M164.397 439.078C164.394 439.232 147.028 438.992 125.616 438.549C104.204 438.106 86.8428 437.629 86.8459 437.475C86.8491 437.321 104.215 437.562 125.627 438.004C147.039 438.447 164.4 438.924 164.397 439.078Z" fill="#455964"/>
<path d="M86.8282 427.498H164.136V438.117H86.8282V427.498Z" fill="#253237"/>
<path d="M164.266 438.259H86.698V427.368H164.266V438.259ZM86.9584 437.987H164.005V427.628H86.9584V437.987Z" fill="#253237"/>
<path d="M94.0024 434.589L105.119 489.486H146.294L157.056 438.129L94.0024 434.589Z" fill="#253237"/>
<path d="M94.0024 484.288L99.9337 492.457H149.976L157.056 484.288H94.0024Z" fill="#455964"/>
<path d="M152.19 460.421C152.19 460.575 140.481 460.706 126.05 460.706C111.618 460.706 99.9218 460.575 99.9218 460.421C99.9218 460.268 111.618 460.149 126.05 460.149C140.481 460.149 152.19 460.327 152.19 460.421Z" fill="#455964"/>
<path d="M152.64 463.618C152.64 463.772 140.943 463.89 126.512 463.89C112.08 463.89 100.384 463.772 100.384 463.618C100.384 463.464 112.08 463.346 126.512 463.346C140.943 463.346 152.64 463.464 152.64 463.618Z" fill="#455964"/>
<path d="M152.64 457.793C152.64 457.947 140.541 458.066 125.612 458.066C110.683 458.066 98.5841 457.947 98.5841 457.793C98.5841 457.639 110.683 457.521 125.612 457.521C140.541 457.521 152.64 457.639 152.64 457.793Z" fill="#455964"/>
<g opacity="0.01">
<path d="M5.45776 37.1962H114.067V194.629H5.45776V37.1962Z" fill="#DFDFDF"/>
<path d="M0.0119629 37.1962H108.621V194.629H0.0119629V37.1962Z" fill="#F5F5F5"/>
<path d="M13.5079 54.2441H95.1365V177.569H13.5079V54.2441Z" fill="white"/>
<path d="M95.1365 177.581C95.1365 177.581 95.1365 177.368 95.1365 176.977C95.1365 176.586 95.1365 175.982 95.1365 175.225C95.1365 173.674 95.1365 171.401 95.1365 168.465C95.1365 162.545 95.1365 153.939 95.0536 143.059C95.0536 121.311 94.9826 90.5063 94.9234 54.2677L95.1957 54.54H13.5789L13.8749 54.2441C13.8749 100.771 13.8749 143.663 13.8749 177.581L13.6382 177.344L73.0571 177.462L89.4657 177.521H93.775H95.2667H93.8223H89.5604H73.1992L13.6382 177.64H13.4014V177.403C13.4014 143.485 13.4014 100.593 13.4014 54.0665V53.7705H13.7092H95.3259H95.5982V54.2559C95.5982 90.601 95.4916 121.453 95.4679 143.248C95.4679 154.104 95.4087 162.687 95.3851 168.583C95.3851 171.507 95.3851 173.757 95.3851 175.296C95.3851 176.042 95.3851 176.622 95.3851 177.012C95.3851 177.403 95.1365 177.581 95.1365 177.581Z" fill="#DFDFDF"/>
<path d="M108.941 37.1962C108.38 38.2025 107.73 39.1579 106.999 40.0493C105.744 41.7304 103.945 44.0272 101.908 46.5133C99.8722 48.9995 97.9543 51.1896 96.5337 52.7524C95.8198 53.6355 95.0278 54.4512 94.1659 55.1911C94.7791 54.231 95.4717 53.3242 96.2377 52.4801L101.47 46.1345L106.68 39.7534C107.359 38.8382 108.116 37.9835 108.941 37.1962Z" fill="#DFDFDF"/>
<path d="M95.5509 177.178C99.6045 183.613 104.37 189.57 109.757 194.936L95.5509 177.178Z" fill="white"/>
<path d="M109.793 194.984C108.883 194.325 108.048 193.567 107.307 192.722C105.414 190.799 103.62 188.779 101.932 186.673C99.9668 184.199 98.3212 181.843 97.1965 180.102C96.5501 179.184 95.9949 178.205 95.5391 177.178C96.2707 178.023 96.9396 178.922 97.5398 179.866C98.7237 181.547 100.428 183.843 102.382 186.294C104.335 188.745 106.229 190.899 107.603 192.438C108.392 193.233 109.125 194.084 109.793 194.984Z" fill="#DFDFDF"/>
<path d="M0 194.498L14.2066 176.953L0 194.498Z" fill="white"/>
<path d="M14.2302 176.953C12.0874 180.056 9.78714 183.047 7.34003 185.915C5.04923 188.906 2.59978 191.772 0 194.498C2.14282 191.395 4.44309 188.405 6.89015 185.536C9.18096 182.546 11.6304 179.68 14.2302 176.953Z" fill="#DFDFDF"/>
<path d="M0.0119629 37.1962C2.46614 39.8303 4.77472 42.597 6.92582 45.4833C9.22967 48.2394 11.3796 51.121 13.3661 54.1138C10.9167 51.4797 8.61168 48.7129 6.46412 45.8267C4.15674 43.0706 2.00326 40.189 0.0119629 37.1962Z" fill="#DFDFDF"/>
<path d="M42.3711 79.2831H69.7069V156.886H42.3711V79.2831Z" fill="#DFDFDF"/>
</g>
<g opacity="0.754308">
<path d="M332.696 0V68.9492H233.677L230.113 0.485377L332.696 0Z" fill="#DFDFDF"/>
<path d="M230.101 68.7952V0.485352H329.121V68.7952H230.101Z" fill="white"/>
<path d="M329.595 69.2685H229.64V0.0115356H329.595V69.2685ZM230.587 68.3332H328.66V0.934961H230.587V68.3332Z" fill="#DFDFDF"/>
<path d="M240.839 8.97379H318.407V60.3068H240.839V8.97379Z" fill="white"/>
<path d="M318.407 8.97382H316.915H312.653H296.671L240.839 9.22245L241.064 8.99751C241.064 24.6839 241.064 42.0633 241.064 60.3305L240.827 60.0938H318.395L318.194 60.2832C318.194 44.6678 318.277 31.8701 318.3 22.9318C318.3 18.4804 318.3 14.9998 318.3 12.6083C318.3 11.4245 318.3 10.5247 318.3 9.89727C318.3 9.26979 318.3 8.95016 318.3 8.95016C318.3 8.95016 318.3 9.24613 318.3 9.8499C318.3 10.4537 318.3 11.3653 318.3 12.5255C318.3 14.8932 318.3 18.3738 318.36 22.8134C318.36 31.7635 318.419 44.6205 318.454 60.2832V60.4845H318.265H240.697H240.448V60.2358C240.448 41.9686 240.448 24.5892 240.448 8.90279V8.7489H240.673L296.659 8.85545L312.594 8.92648H316.809H318.241L318.407 8.97382Z" fill="#DFDFDF"/>
<path d="M329.133 0.485352C327.505 2.08716 325.764 3.57055 323.924 4.9249C322.182 6.40239 320.339 7.75557 318.407 8.97377C320.035 7.37198 321.776 5.88859 323.616 4.53422C325.355 3.0532 327.198 1.70001 329.133 0.485352Z" fill="#DFDFDF"/>
<path d="M329.05 68.8071L318.004 59.857L329.05 68.8071Z" fill="white"/>
<path d="M318.004 59.857C319.991 61.1592 321.889 62.5905 323.687 64.1426C325.578 65.5751 327.369 67.1343 329.05 68.8071C327.062 67.5119 325.167 66.0806 323.379 64.5215C321.48 63.0949 319.684 61.5357 318.004 59.857Z" fill="#DFDFDF"/>
<path d="M256.585 42.158V24.968H305.396V42.158H256.585Z" fill="#DFDFDF"/>
</g>
</svg>
