<svg width="54" height="24" viewBox="0 0 54 24" fill="none" xmlns="http://www.w3.org/2000/svg">
<g clip-path="url(#clip0_365_42)">
<path d="M12 24C18.6274 24 24 18.6274 24 12C24 5.37258 18.6274 0 12 0C5.37258 0 0 5.37258 0 12C0 18.6274 5.37258 24 12 24Z" fill="#012169"/>
<path d="M21.2463 4.3528L11.9999 9.9008L2.75354 4.3528C1.9845 5.28275 1.36039 6.32356 0.902344 7.44L8.50234 12L0.902344 16.56C1.36004 17.6767 1.98389 18.7178 2.75274 19.648L11.9999 14.0992L21.2471 19.6472C22.016 18.717 22.6398 17.6759 23.0975 16.5592L15.4975 11.9992L23.0975 7.4392C22.6394 6.32304 22.0153 5.2825 21.2463 4.3528Z" fill="white"/>
<path d="M2.39036 19.1656L13.1656 12.7L22.2792 18.168C22.4858 17.8244 22.6751 17.4706 22.8464 17.108L13.1664 11.3L22.2792 5.8328C22.0717 5.48826 21.8485 5.15546 21.6096 4.8344L10.8336 11.3L1.71996 5.8328C1.51463 6.1752 1.32583 6.52826 1.15356 6.892L10.8336 12.7L1.71996 18.168C1.92663 18.5115 2.15037 18.8445 2.39036 19.1656Z" fill="#C8102E"/>
<path d="M15 0.393604C13.0344 -0.131201 10.9656 -0.131201 9.00001 0.393604V9.00001H0.393604C-0.131201 10.9656 -0.131201 13.0344 0.393604 15H9.00001V23.6064C10.9656 24.1312 13.0344 24.1312 15 23.6064V15H23.6064C24.1312 13.0344 24.1312 10.9656 23.6064 9.00001H15V0.393604Z" fill="white"/>
<path d="M13.8 0.1496C13.2046 0.0546811 12.6029 0.00467342 12 0C11.3971 0.00467342 10.7954 0.0546811 10.2 0.1496V10.2H0.1496C0.0546811 10.7954 0.00467342 11.3971 0 12C0.00467342 12.6029 0.0546811 13.2046 0.1496 13.8H10.2V23.8504C10.7954 23.9453 11.3971 23.9953 12 24C12.6029 23.9953 13.2046 23.9453 13.8 23.8504V13.8H23.8504C23.9453 13.2046 23.9953 12.6029 24 12C23.9953 11.3971 23.9453 10.7954 23.8504 10.2H13.8V0.1496Z" fill="#C8102E"/>
</g>
<path d="M33.5455 18V6.36364H40.2955V7.31818H34.608V11.6989H39.9375V12.6534H34.608V17.0455H40.4091V18H33.5455ZM52.108 6.36364V18H51.0739L44.1989 8.25568H44.108V18H43.0455V6.36364H44.0739L50.9716 16.1193H51.0625V6.36364H52.108Z" fill="black"/>
<defs>
<clipPath id="clip0_365_42">
<rect width="24" height="24" fill="white"/>
</clipPath>
</defs>
</svg>
