<svg width="92" height="56" viewBox="0 0 92 56" fill="none" xmlns="http://www.w3.org/2000/svg">
<mask id="mask0_365_41" style="mask-type:alpha" maskUnits="userSpaceOnUse" x="60" y="11" width="32" height="30">
<path d="M91.26 11H60.1458V41H91.26V11Z" fill="white"/>
</mask>
<g mask="url(#mask0_365_41)">
<path d="M76.1341 33.5143C77.3003 32.8275 78.1944 31.8945 78.8164 30.832C79.1662 30.223 79.6845 29.6917 80.3195 29.3418C81.7189 28.5255 83.4164 28.668 84.6604 29.5232C84.2327 27.5925 83.0277 25.8432 81.1747 24.7936C80.0344 24.1328 78.7645 23.8218 77.5206 23.8218C76.8209 23.8218 76.1211 23.6274 75.4992 23.2776C74.0997 22.4612 73.3611 20.9322 73.5037 19.4161L73.4389 19.4291L73.4259 19.442C71.9876 20.7767 71.0805 22.6945 71.0805 24.8195C71.0805 26.1542 71.4434 27.4111 72.0653 28.4866C72.4152 29.0956 72.6096 29.7694 72.6096 30.508C72.6096 32.1278 71.6507 33.5272 70.2901 34.1751C72.182 34.7582 74.2811 34.5768 76.1341 33.5143V33.5143ZM84.4028 31.6265C83.7549 30.5121 82.2 30.0845 81.0856 30.7453C80.6969 30.9656 80.4118 31.2766 80.1915 31.6394C79.4011 33 78.2738 34.1403 76.9262 34.9307C75.5656 35.7212 74.0107 36.1358 72.4557 36.1358C69.2551 36.1358 66.2878 34.4254 64.694 31.6524C64.0461 30.538 62.4911 30.1104 61.3638 30.7583C60.1976 31.4321 59.7959 32.9223 60.4697 34.0755C62.9317 38.3516 67.5317 40.995 72.4687 40.995L72.4039 40.9691C74.827 40.9691 77.2112 40.3212 79.3234 39.1161C81.4225 37.8981 83.1718 36.1617 84.3769 34.0626C84.8305 33.298 84.8304 32.3651 84.4028 31.6265V31.6265ZM89.3972 38.0793C91.2502 34.8658 91.7426 31.1469 90.7837 27.5834C89.8249 24.02 87.5443 21.0268 84.3566 19.1868C82.2575 17.9687 79.8603 17.3338 77.4501 17.3338C76.569 17.3468 75.7786 17.8003 75.3509 18.5518C74.6642 19.7051 75.0788 21.1952 76.245 21.869C76.6079 22.0893 77.0355 22.2059 77.4631 22.2059C79.0439 22.2059 80.573 22.6206 81.9335 23.3981C86.2226 25.873 87.6998 31.3671 85.2248 35.6432C84.551 36.8094 84.9527 38.2996 86.1189 38.9734C86.4947 39.1937 86.9093 39.2973 87.337 39.2973L87.3499 39.2844H87.2981C88.1533 39.2844 88.9696 38.8179 89.3972 38.0793V38.0793ZM68.5421 32.9506C69.8897 32.9506 70.9782 31.8621 70.9782 30.5145C70.9782 30.0869 70.8615 29.6593 70.6542 29.2965C69.8638 27.9359 69.4491 26.3939 69.4491 24.826C69.4491 19.8891 73.4661 15.8721 78.403 15.8721C79.7506 15.8721 80.8391 14.7707 80.8391 13.4361C80.8391 12.0885 79.7506 11 78.416 11C70.7838 11 64.5899 17.2068 64.5899 24.826C64.5899 27.2491 65.2249 29.6334 66.4429 31.7325C66.8835 32.4841 67.6869 32.9506 68.5421 32.9506V32.9506Z" fill="#7F00FF"/>
</g>
<path d="M13.3574 28.3184H7.69727V33.6367H12.7148L13.3574 31.3398H15.873V37H1.25781V34.6211L3.36328 33.7734V20.6211L1.25781 19.7734V17.3945L7.69727 17.2578H15.5449V22.6582H13.0156L12.3184 20.6211H7.69727V25.2422H13.3574V28.3184ZM18.4023 34.6211L20.4941 33.7734V20.6211L18.4023 19.7734V17.3945L25.1152 17.2578L32.6758 30.1914V20.6211L30.6387 19.7734V17.3945L38.6094 17.2578V19.7734L36.5176 20.6211V37H31.8418L24.3359 24.3125V33.7734L26.5234 34.6211V37H18.4023V34.6211ZM50.2305 20.6211H44.3516L43.6543 23.1367H41.002V17.2578H55.8359V20.4297L46.0879 33.6367H52.4727L53.0879 30.834H55.7539V37H40.291V34.0605L50.2305 20.6211Z" fill="black"/>
</svg>
