<svg width="62" height="40" viewBox="0 0 62 40" fill="none" xmlns="http://www.w3.org/2000/svg">
<rect x="9" y="8" width="53" height="23" rx="11.5" fill="#ECD9FF"/>
<rect x="9" y="8" width="21" height="23" rx="10.5" fill="#9747FF"/>
<g clip-path="url(#clip0_176_9)">
<path d="M20 31.2874C26.3513 31.2874 31.5 26.01 31.5 19.4999C31.5 12.9899 26.3513 7.71248 20 7.71248C13.6487 7.71248 8.5 12.9899 8.5 19.4999C8.5 26.01 13.6487 31.2874 20 31.2874Z" fill="#FCD462"/>
<path d="M25.45 9.09628C25.9501 10.7362 26.3 12.4787 26.35 14.2725C26.65 21.3963 21.95 27.7 15.85 30.4676C17.15 30.9801 18.55 31.2876 20 31.2876C26.35 31.2876 31.5 26.0089 31.5 19.5001C31.5 14.99 29.05 11.095 25.45 9.09628ZM20 -1C19.05 -1 18.3 -0.231276 18.3 0.742498V3.61251C18.3 4.58629 19.05 5.35501 20 5.35501C20.95 5.35501 21.7 4.58629 21.7 3.61251V0.742498C21.7 -0.231276 20.95 -1 20 -1ZM20 33.645C19.05 33.645 18.3 34.4137 18.3 35.3875V38.2575C18.3 39.2313 19.05 40 20 40C20.95 40 21.7 39.2313 21.7 38.2575V35.3875C21.7 34.4137 20.95 33.645 20 33.645ZM40 19.5C40 18.5262 39.25 17.7575 38.3 17.7575H35.5C34.55 17.7575 33.8 18.5262 33.8 19.5C33.8 20.4737 34.55 21.2425 35.5 21.2425H38.3C39.25 21.2425 40 20.4737 40 19.5ZM6.20002 19.5C6.20002 18.5262 5.45005 17.7575 4.50002 17.7575H1.7C0.749976 17.7575 0 18.5262 0 19.5C0 20.4737 0.749976 21.2425 1.7 21.2425H4.50002C5.44997 21.2425 6.20002 20.4737 6.20002 19.5ZM34.15 4.99622C33.5 4.32993 32.4 4.32993 31.75 4.99622L29.75 7.0462C29.1 7.71249 29.1 8.83992 29.75 9.50621C30.4001 10.1725 31.5 10.1725 32.15 9.50621L34.15 7.45622C34.8001 6.79002 34.8001 5.6625 34.15 4.99622ZM10.25 29.4937C9.59994 28.8274 8.50001 28.8274 7.84997 29.4937L5.84998 31.5437C5.19994 32.21 5.19994 33.3374 5.84998 34.0037C6.50001 34.67 7.59995 34.67 8.24999 34.0037L10.25 31.9537C10.9 31.2874 10.9 30.2112 10.25 29.4937ZM34.15 34.0037C34.8001 33.3374 34.8001 32.21 34.15 31.5437L32.15 29.4937C31.5 28.8274 30.4001 28.8274 29.75 29.4937C29.1 30.16 29.1 31.2874 29.75 31.9537L31.75 34.0037C32.4 34.67 33.5 34.67 34.15 34.0037ZM10.25 9.50621C10.9 8.83992 10.9 7.71249 10.25 7.0462L8.24999 4.99622C7.59995 4.32993 6.50001 4.32993 5.84998 4.99622C5.19994 5.6625 5.19994 6.78993 5.84998 7.45622L7.84997 9.50621C8.50001 10.1725 9.54997 10.1725 10.25 9.50621Z" fill="#F6C358"/>
</g>
<defs>
<clipPath id="clip0_176_9">
<rect width="40" height="40" fill="white"/>
</clipPath>
</defs>
</svg>
