<svg width="307" height="279" viewBox="0 0 307 279" fill="none" xmlns="http://www.w3.org/2000/svg">
<path d="M147.562 55.9054C150.98 52.4255 155.544 51.3694 157.758 53.5458C159.972 55.7223 158.994 60.3067 155.575 63.7873C154.228 65.1968 152.564 66.2631 150.721 66.897L136.053 81.458L129.368 74.4245L144.538 60.8169C145.139 58.9615 146.176 57.2774 147.562 55.9054Z" fill="#FFB6B6"/>
<path d="M100.652 43.8859L116.03 78.0163L140.588 64.7177L149.375 69.3843C149.375 69.3843 129.3 102.961 115.555 99.1381C101.81 95.3154 77.4024 60.6593 81.8001 49.9633C86.1979 39.2673 100.652 43.8859 100.652 43.8859Z" fill="#D8B3FF"/>
<path d="M171.94 63.1526C168.371 59.8294 167.19 55.2926 169.304 53.0202C171.418 50.7478 176.026 51.5997 179.597 54.9244C181.041 56.233 182.152 57.8687 182.835 59.6946L197.783 73.9665L190.939 80.8417L176.929 66.0424C175.059 65.4915 173.349 64.5006 171.94 63.1526H171.94Z" fill="#ED9DA0"/>
<path d="M247.24 65.3524L218.386 96.0855C218.386 96.0855 211.906 102.5 201.245 93.2499C190.585 84.0001 178.733 68.8249 178.733 68.8249L185.382 61.585L197.16 72.0971C197.16 72.0971 204.152 74.912 204.638 76.7333C205.124 78.5546 203.765 79.3079 205.95 78.7243C208.135 78.1407 208.176 76.8389 208.314 78.8134C208.453 80.7879 207.117 83.0956 209.641 80.8604C212.165 78.6252 212.918 79.9851 212.918 79.9851L231.359 55.5459C231.359 55.5459 243.276 46.1184 246.701 54.5692C250.127 63.0201 247.239 65.3524 247.239 65.3524H247.24Z" fill="#F2F2F2"/>
<path d="M93.9087 271.359H105.122L110.456 228.088H93.9064L93.9087 271.359Z" fill="#ED9DA0"/>
<path d="M132.327 271.105C132.677 271.693 132.861 273.592 132.861 274.276C132.861 275.286 132.46 276.254 131.746 276.968C131.032 277.683 130.064 278.084 129.055 278.084H94.3281C93.6395 278.084 92.979 277.81 92.4921 277.323C92.0052 276.836 91.7316 276.175 91.7316 275.486V274.04C91.7316 274.04 90.0136 269.692 93.5506 264.334C93.5506 264.334 97.9465 268.529 104.515 261.958L106.452 258.448L120.472 268.706L128.244 269.664C129.944 269.873 131.451 269.631 132.326 271.105H132.327Z" fill="#090814"/>
<path d="M244.7 59.1464L243.727 47.3804H230.786L227.918 59.8463L244.7 59.1464Z" fill="#ED9DA0"/>
<path d="M102.394 46.0766L102.621 30.9455L93.2954 25.1292L83.1521 37.5397L102.394 46.0766Z" fill="#ED9DA0"/>
<path d="M235.219 51.1243C243.031 51.1243 249.363 44.7887 249.363 36.9734C249.363 29.1581 243.031 22.8225 235.219 22.8225C227.407 22.8225 221.074 29.1581 221.074 36.9734C221.074 44.7887 227.407 51.1243 235.219 51.1243Z" fill="#ED9DA0"/>
<path d="M102.423 35.6542C111.584 35.6542 119.01 28.2246 119.01 19.0596C119.01 9.89472 111.584 2.46509 102.423 2.46509C93.2624 2.46509 85.8361 9.89472 85.8361 19.0596C85.8361 28.2246 93.2624 35.6542 102.423 35.6542Z" fill="#ED9DA0"/>
<path d="M125.044 146.13L109.592 251.324H90.2066L92.7842 191.277L94.1408 159.704L90.2066 144.675C88.9572 142.28 87.8534 139.812 86.9013 137.285C85.1979 132.716 83.8524 127.237 85.8498 124.639C86.5847 123.681 88.4954 122.972 91.0923 122.444C92.8871 122.095 94.6984 121.838 96.5192 121.672C107.984 120.537 124.291 121.245 124.291 121.245L124.706 134.932L124.936 142.575L125.044 146.13Z" fill="#090814"/>
<path d="M30.0625 254.599L39.941 259.907L65.1108 224.315L50.5313 216.479L30.0625 254.599Z" fill="#ED9DA0"/>
<path d="M64.0267 272.566C64.0559 273.25 63.3199 275.01 62.9963 275.612C62.5186 276.502 61.7073 277.165 60.7408 277.456C59.7743 277.747 58.7318 277.642 57.8426 277.164L27.2512 260.721C26.6446 260.395 26.1924 259.841 25.9939 259.181C25.7954 258.522 25.867 257.81 26.1928 257.203L26.877 255.929C26.877 255.929 27.4204 251.286 33.0708 248.241C33.0708 248.241 34.9584 254.018 43.8541 251.339L47.2212 249.164L54.7196 264.84L61.1129 269.363C62.5117 270.352 63.9527 270.853 64.0275 272.566L64.0267 272.566Z" fill="#090814"/>
<path d="M124.935 142.575L116.734 159.025L92.7838 191.277L53.3562 244.375L36.2793 235.199L83.0872 156.352L86.7351 141.248C86.7351 141.248 86.7351 139.615 86.9009 137.285C87.2252 132.674 88.1972 125.325 91.0918 122.445C91.4598 122.066 91.8941 121.758 92.3732 121.536C93.2439 121.144 94.691 121.238 96.5177 121.672C104.154 123.497 118.403 131.336 124.704 134.932L124.934 142.575H124.935Z" fill="#090814"/>
<path d="M243.647 272.679H234.005L229.418 235.472H243.648L243.647 272.679Z" fill="#ED9DA0"/>
<path d="M210.614 272.459C210.313 272.965 210.153 274.598 210.153 275.185C210.153 276.053 210.498 276.886 211.111 277.5C211.725 278.114 212.557 278.459 213.425 278.459H243.286C243.878 278.459 244.445 278.224 244.864 277.805C245.283 277.386 245.518 276.818 245.518 276.226V274.982C245.518 274.982 246.995 271.244 243.954 266.637C243.954 266.637 240.174 270.246 234.527 264.594L232.861 261.576L220.806 270.398L214.124 271.22C212.662 271.4 211.366 271.192 210.614 272.459Z" fill="#090814"/>
<path d="M281.628 261.312L272.715 264.99L254.29 232.346L267.444 226.917L281.628 261.312Z" fill="#ED9DA0"/>
<path d="M251.009 273.715C250.924 274.297 251.401 275.865 251.623 276.41C251.787 276.808 252.028 277.169 252.331 277.473C252.635 277.778 252.995 278.019 253.392 278.185C253.789 278.35 254.214 278.435 254.644 278.435C255.073 278.436 255.499 278.352 255.896 278.188L283.497 266.794C283.768 266.682 284.015 266.517 284.223 266.31C284.43 266.103 284.595 265.857 284.708 265.586C284.82 265.315 284.878 265.024 284.879 264.731C284.879 264.438 284.821 264.147 284.709 263.876L284.235 262.726C284.235 262.726 284.175 258.707 279.608 255.609C279.608 255.609 277.49 260.386 270.115 257.318L267.424 255.164L259.645 267.918L253.781 271.228C252.499 271.953 251.221 272.255 251.009 273.713V273.715Z" fill="#090814"/>
<path d="M248.07 145.052L244.135 160.079L245.183 184.466L246.92 224.969L246.969 226.112L247.165 230.666L248.07 251.697H228.684L220.053 192.944L213.232 146.507L213.948 122.858L213.986 121.621C213.986 121.621 248.658 120.113 252.427 125.015C256.195 129.916 248.07 145.05 248.07 145.05L248.07 145.052Z" fill="#090814"/>
<path d="M275.042 236.581L271.756 238.282L259.602 244.575L257.823 245.496L247.165 230.671L220.053 192.949L213.232 146.507L213.948 122.858C217.016 121.881 219.469 121.482 220.713 122.062C226.313 124.683 226.047 141.861 226.047 141.861L229.458 157.018L245.184 184.466L275.042 236.581Z" fill="#090814"/>
<path d="M85.2846 34.3386L104.127 43.3876C104.127 43.3876 124.101 102.583 124.101 105.599C124.101 108.615 129.754 110.5 126.362 113.894C122.97 117.287 132.675 120.161 127.446 122.871C122.216 125.582 89.5949 140.408 85.9673 139.073C75.9629 135.387 86.3894 121.835 86.3894 121.835C86.3894 121.835 78.8745 115.78 80.005 112.763C81.1355 109.747 73.2214 52.0604 73.2214 52.0604L85.2812 34.3398L85.2846 34.3386Z" fill="#E5CCFF"/>
<path d="M101.41 23.0353L103.543 27.3041C103.543 27.3041 105.677 19.6204 109.09 17.9127C112.504 16.205 112.93 13.6439 112.93 13.6439C112.93 13.6439 117.197 19.1934 120.183 17.9127C123.169 16.6319 124.45 15.7785 121.037 10.6566C117.623 5.53473 118.477 8.09547 118.477 8.09547C118.477 8.09547 115.49 3.82667 115.917 5.10742C116.343 6.38818 113.357 1.69054 113.357 2.97321C113.357 4.25589 111.223 0.412084 111.223 1.69246C111.223 2.97283 102.263 -1.29559 103.543 0.4117C104.823 2.11899 95.8627 -3.00519 91.5958 3.82859C87.3289 10.6624 81.4122 9.39543 83.5171 13.6569C85.6219 17.9184 84.7685 29.4426 84.7685 29.4426H90.6533C90.6533 29.4426 96.7161 17.9115 101.41 23.0353Z" fill="#090814"/>
<path d="M226.988 59.223L227.333 59.1255L244.324 54.3215L257.891 72.7965L248.845 111.254L252.237 126.713C252.237 126.713 224.725 119.549 213.796 125.582C213.796 125.582 213.042 122.144 213.796 120.469C214.55 118.795 215.68 111.827 214.55 108.713C213.419 105.599 216.811 90.8941 216.811 90.8941C216.811 90.8941 215.68 81.0911 220.579 76.19C225.479 71.2889 226.988 59.2234 226.988 59.2234L226.988 59.223Z" fill="#F2F2F2"/>
<path d="M151.852 98.9819C151.557 98.8352 151.294 98.6296 151.081 98.3776L141.765 87.3936C141.462 87.0361 141.269 86.5989 141.209 86.1343C141.148 85.6698 141.223 85.1976 141.424 84.7745L158.892 48.1102C159.043 47.7929 159.261 47.5121 159.531 47.2871C159.801 47.0622 160.116 46.8985 160.455 46.8072C160.795 46.716 161.15 46.6994 161.496 46.7587C161.842 46.8179 162.171 46.9515 162.461 47.1504L204.566 76.0453C204.987 76.3339 205.306 76.7478 205.479 77.2283C205.651 77.7087 205.667 78.2313 205.526 78.7216C196.744 109.299 212.908 128.923 151.852 98.9819Z" fill="#090814"/>
<path d="M192.675 110.604L195.752 107.014L203.528 78.4506C203.646 78.1003 203.648 77.7208 203.532 77.3696C203.415 77.0184 203.188 76.7148 202.883 76.5049L163.425 49.4769C163.225 49.34 162.997 49.2476 162.758 49.2061C162.519 49.1646 162.274 49.175 162.039 49.2364C161.804 49.2979 161.586 49.4091 161.398 49.5624C161.209 49.7158 161.056 49.9078 160.949 50.1254L144.314 83.9192C144.19 84.1656 144.129 84.439 144.137 84.7148C144.145 84.9906 144.222 85.26 144.359 85.499C144.394 85.5673 144.435 85.6317 144.484 85.691L152.849 96.7383L192.675 110.604Z" fill="#F2F2F2"/>
<path d="M150.86 81.8453C150.93 81.8454 150.998 81.826 151.058 81.7894C151.117 81.7528 151.165 81.7004 151.197 81.6379L164.724 54.7543C164.747 54.71 164.761 54.6615 164.766 54.6116C164.77 54.5618 164.764 54.5116 164.749 54.4639C164.734 54.4163 164.709 54.3722 164.677 54.3341C164.644 54.2961 164.604 54.2649 164.56 54.2424C164.515 54.2199 164.466 54.2065 164.416 54.2031C164.367 54.1996 164.316 54.2061 164.269 54.2222C164.222 54.2383 164.178 54.2636 164.141 54.2968C164.103 54.33 164.073 54.3702 164.051 54.4153L150.525 81.2989C150.496 81.3564 150.482 81.4203 150.485 81.4846C150.488 81.5489 150.507 81.6114 150.541 81.6662C150.574 81.721 150.622 81.7662 150.678 81.7976C150.734 81.8291 150.797 81.8456 150.861 81.8456L150.86 81.8453Z" fill="#6C63FF"/>
<path d="M158.02 86.3697C158.09 86.3698 158.159 86.3505 158.218 86.3138C158.278 86.2772 158.326 86.2248 158.357 86.1623L171.883 59.2787C171.906 59.2344 171.92 59.1859 171.924 59.1361C171.929 59.0862 171.923 59.036 171.908 58.9883C171.893 58.9407 171.868 58.8966 171.835 58.8585C171.803 58.8205 171.763 58.7893 171.719 58.7668C171.674 58.7443 171.625 58.7309 171.575 58.7275C171.525 58.724 171.475 58.7305 171.428 58.7466C171.38 58.7627 171.337 58.7881 171.299 58.8212C171.262 58.8544 171.231 58.8947 171.21 58.9397L157.684 85.8233C157.655 85.8808 157.641 85.9447 157.644 86.009C157.647 86.0733 157.666 86.1358 157.7 86.1906C157.733 86.2454 157.78 86.2906 157.837 86.3221C157.893 86.3535 157.956 86.37 158.02 86.3701V86.3697Z" fill="#6C63FF"/>
<path d="M164.05 90.1402C164.12 90.1403 164.188 90.121 164.248 90.0844C164.307 90.0477 164.356 89.9953 164.387 89.9329L177.913 63.0492C177.936 63.0049 177.95 62.9564 177.954 62.9066C177.959 62.8567 177.953 62.8065 177.938 62.7589C177.922 62.7112 177.898 62.6671 177.865 62.629C177.833 62.591 177.793 62.5598 177.748 62.5373C177.704 62.5148 177.655 62.5015 177.605 62.498C177.555 62.4945 177.505 62.501 177.458 62.5171C177.41 62.5332 177.367 62.5586 177.329 62.5917C177.292 62.6249 177.261 62.6652 177.24 62.7102L163.714 89.5939C163.685 89.6513 163.671 89.7152 163.674 89.7795C163.677 89.8438 163.696 89.9063 163.729 89.9611C163.763 90.0159 163.81 90.0611 163.866 90.0926C163.923 90.124 163.986 90.1405 164.05 90.1406V90.1402Z" fill="#6C63FF"/>
<path d="M142.701 86.4987C147.377 85.1166 151.881 86.41 152.759 89.3877C153.638 92.3654 150.56 95.899 145.881 97.2811C144.02 97.8588 142.047 97.9822 140.129 97.6409L120.24 103.246L117.809 93.8527L137.674 89.3225C139.1 87.9923 140.824 87.0234 142.701 86.4968L142.701 86.4987Z" fill="#FFB6B6"/>
<path d="M107.524 53.2083L104.407 90.5173L132.33 90.8175L137.749 99.1654C137.749 99.1654 103.905 118.77 93.7429 108.753C83.5808 98.7351 79.0602 56.5814 88.0941 49.366C97.1279 42.1507 107.524 53.2083 107.524 53.2083Z" fill="#E5CCFF"/>
<path d="M198.994 120.571C194.131 120.205 190.378 117.398 190.612 114.302C190.846 111.206 194.976 108.994 199.841 109.361C201.786 109.481 203.674 110.066 205.347 111.065L225.931 112.878L224.875 122.523L204.695 119.712C202.891 120.45 200.936 120.744 198.994 120.571L198.994 120.571Z" fill="#ED9DA0"/>
<path d="M259.19 75.2615L255.827 117.291C255.827 117.291 254.768 126.349 240.669 125.781C226.571 125.213 207.841 120.76 207.841 120.76L208.517 110.951L224.278 111.808C224.278 111.808 231.497 109.64 233.013 110.759C234.529 111.879 233.937 113.316 235.28 111.495C236.623 109.675 235.843 108.631 237.183 110.088C238.522 111.545 238.92 114.182 239.496 110.859C240.073 107.536 241.51 108.128 241.51 108.128L240.666 77.5185C240.666 77.5185 244.092 62.7111 252.042 67.1734C259.991 71.6357 259.19 75.2615 259.19 75.2615Z" fill="#F2F2F2"/>
<path d="M253.826 53.6917C253.826 53.6917 253.174 58.6497 247.121 58.8113L234.845 59.14C234.845 59.14 245.223 33.8746 240.955 36.719C236.688 39.5635 225.31 27.6328 225.31 27.6328L221.953 33.9325C221.953 33.9325 213.932 31.0267 222.821 23.9122C222.821 23.9122 233.427 15.7086 244.687 20.6347C255.947 25.5608 253.826 53.6917 253.826 53.6917Z" fill="#090814"/>
</svg>
