<svg width="37" height="37" viewBox="0 0 37 37" fill="none" xmlns="http://www.w3.org/2000/svg">
<path d="M32.375 16.573H23.125C22.4098 16.5721 21.724 16.2876 21.2182 15.7819C20.7124 15.2761 20.4279 14.5903 20.4271 13.875V4.62504C20.4279 3.90976 20.7124 3.22401 21.2182 2.71823C21.724 2.21245 22.4098 1.92794 23.125 1.92712H32.375C33.0903 1.92794 33.7761 2.21245 34.2819 2.71823C34.7876 3.22401 35.0721 3.90976 35.073 4.62504V13.875C35.0721 14.5903 34.7876 15.2761 34.2819 15.7819C33.7761 16.2876 33.0903 16.5721 32.375 16.573ZM23.125 4.23962C23.0228 4.23962 22.9248 4.28023 22.8525 4.35251C22.7802 4.42479 22.7396 4.52282 22.7396 4.62504V13.875C22.7396 13.9773 22.7802 14.0753 22.8525 14.1476C22.9248 14.2199 23.0228 14.2605 23.125 14.2605H32.375C32.4773 14.2605 32.5753 14.2199 32.6476 14.1476C32.7199 14.0753 32.7605 13.9773 32.7605 13.875V4.62504C32.7605 4.52282 32.7199 4.42479 32.6476 4.35251C32.5753 4.28023 32.4773 4.23962 32.375 4.23962H23.125ZM27.75 35.8361C27.3958 35.8367 27.045 35.7673 26.7177 35.6318C26.3904 35.4964 26.0932 35.2975 25.843 35.0468L20.4533 29.6571C19.9485 29.1508 19.6651 28.465 19.6651 27.75C19.6651 27.0351 19.9485 26.3493 20.4533 25.843L25.843 20.4533C26.3491 19.9482 27.035 19.6644 27.75 19.6644C28.4651 19.6644 29.151 19.9482 29.6571 20.4533L35.0467 25.843C35.5519 26.3491 35.8356 27.035 35.8356 27.75C35.8356 28.4651 35.5519 29.151 35.0467 29.6571L29.6571 35.0468C29.4069 35.2975 29.1096 35.4964 28.7824 35.6318C28.4551 35.7673 28.1042 35.8367 27.75 35.8361ZM27.75 21.975C27.6994 21.9747 27.6491 21.9845 27.6023 22.0038C27.5555 22.0232 27.5129 22.0516 27.4772 22.0875L22.0875 27.4772C22.0516 27.513 22.0231 27.5555 22.0037 27.6023C21.9843 27.6491 21.9743 27.6993 21.9743 27.75C21.9743 27.8007 21.9843 27.8509 22.0037 27.8978C22.0231 27.9446 22.0516 27.9871 22.0875 28.0229L27.4772 33.4126C27.513 33.4485 27.5555 33.477 27.6023 33.4964C27.6491 33.5158 27.6993 33.5258 27.75 33.5258C27.8007 33.5258 27.8509 33.5158 27.8978 33.4964C27.9446 33.477 27.9871 33.4485 28.0229 33.4126L33.4126 28.0229C33.4485 27.9871 33.4769 27.9446 33.4964 27.8978C33.5158 27.8509 33.5258 27.8007 33.5258 27.75C33.5258 27.6993 33.5158 27.6491 33.4964 27.6023C33.4769 27.5555 33.4485 27.513 33.4126 27.4772L28.0229 22.0875C27.9872 22.0516 27.9446 22.0232 27.8978 22.0038C27.8509 21.9845 27.8007 21.9747 27.75 21.975ZM13.875 16.573H4.62504C3.90976 16.5721 3.22401 16.2876 2.71823 15.7819C2.21245 15.2761 1.92794 14.5903 1.92712 13.875V4.62504C1.92794 3.90976 2.21245 3.22401 2.71823 2.71823C3.22401 2.21245 3.90976 1.92794 4.62504 1.92712H13.875C14.5903 1.92794 15.2761 2.21245 15.7819 2.71823C16.2876 3.22401 16.5721 3.90976 16.573 4.62504V13.875C16.5721 14.5903 16.2876 15.2761 15.7819 15.7819C15.2761 16.2876 14.5903 16.5721 13.875 16.573ZM4.62504 4.23962C4.52282 4.23962 4.42479 4.28023 4.35251 4.35251C4.28023 4.42479 4.23962 4.52282 4.23962 4.62504V13.875C4.23962 13.9773 4.28023 14.0753 4.35251 14.1476C4.42479 14.2199 4.52282 14.2605 4.62504 14.2605H13.875C13.9773 14.2605 14.0753 14.2199 14.1476 14.1476C14.2199 14.0753 14.2605 13.9773 14.2605 13.875V4.62504C14.2605 4.52282 14.2199 4.42479 14.1476 4.35251C14.0753 4.28023 13.9773 4.23962 13.875 4.23962H4.62504ZM13.875 35.073H4.62504C3.90976 35.0721 3.22401 34.7876 2.71823 34.2819C2.21245 33.7761 1.92794 33.0903 1.92712 32.375V23.125C1.92794 22.4098 2.21245 21.724 2.71823 21.2182C3.22401 20.7124 3.90976 20.4279 4.62504 20.4271H13.875C14.5903 20.4279 15.2761 20.7124 15.7819 21.2182C16.2876 21.724 16.5721 22.4098 16.573 23.125V32.375C16.5721 33.0903 16.2876 33.7761 15.7819 34.2819C15.2761 34.7876 14.5903 35.0721 13.875 35.073ZM4.62504 22.7396C4.52282 22.7396 4.42479 22.7802 4.35251 22.8525C4.28023 22.9248 4.23962 23.0228 4.23962 23.125V32.375C4.23962 32.4773 4.28023 32.5753 4.35251 32.6476C4.42479 32.7199 4.52282 32.7605 4.62504 32.7605H13.875C13.9773 32.7605 14.0753 32.7199 14.1476 32.6476C14.2199 32.5753 14.2605 32.4773 14.2605 32.375V23.125C14.2605 23.0228 14.2199 22.9248 14.1476 22.8525C14.0753 22.7802 13.9773 22.7396 13.875 22.7396H4.62504Z" fill="#7F00FF"/>
</svg>
