<svg width="132" height="132" viewBox="0 0 132 132" fill="none" xmlns="http://www.w3.org/2000/svg">
<g clip-path="url(#clip0_184_99)">
<path d="M75.2276 12.2828C74.1635 11.4507 72.8515 10.9987 71.5007 10.9987C70.1499 10.9987 68.8379 11.4507 67.7738 12.2828L57.7305 20.1359L45.122 18.3572C43.786 18.1695 42.4257 18.4338 41.2571 19.108C40.0886 19.7821 39.1789 20.8275 38.6726 22.078L33.899 33.894L22.0831 38.6675C20.8326 39.1738 19.7872 40.0835 19.113 41.2521C18.4388 42.4206 18.1746 43.781 18.3622 45.117L20.1349 57.7376L12.2879 67.7809C11.4587 68.8439 11.0084 70.1535 11.0084 71.5017C11.0084 72.8499 11.4587 74.1595 12.2879 75.2225L20.1349 85.2658L18.3622 97.8864C18.1746 99.2224 18.4388 100.583 19.113 101.751C19.7872 102.92 20.8326 103.83 22.0831 104.336L33.899 109.109L38.6726 120.925C39.1778 122.177 40.0871 123.224 41.2558 123.899C42.4244 124.574 43.7853 124.839 45.122 124.652L57.7426 122.874L67.7859 130.721C68.849 131.55 70.1585 132 71.5067 132C72.8549 132 74.1645 131.55 75.2276 130.721L85.2708 122.874L97.8914 124.652C99.2281 124.839 100.589 124.574 101.758 123.899C102.926 123.224 103.836 122.177 104.341 120.925L109.114 109.109L120.93 104.336C122.182 103.831 123.229 102.921 123.904 101.753C124.579 100.584 124.845 99.2231 124.657 97.8864L122.879 85.2658L130.726 75.2225C131.555 74.1595 132.005 72.8499 132.005 71.5017C132.005 70.1535 131.555 68.8439 130.726 67.7809L122.879 57.7376L124.657 45.117C124.845 43.7803 124.579 42.4194 123.904 41.2507C123.229 40.0821 122.182 39.1728 120.93 38.6675L109.114 33.894L104.341 22.078C103.835 20.8275 102.925 19.7821 101.756 19.108C100.588 18.4338 99.2274 18.1695 97.8914 18.3572L85.2708 20.1299L75.2276 12.2828Z" fill="#FFEFC3"/>
<g clip-path="url(#clip1_184_99)">
<path d="M82.8196 54.8576C82.729 54.579 82.5622 54.3313 82.3382 54.1424C82.1142 53.9536 81.8419 53.8311 81.552 53.7888L75.9285 52.9715L73.4127 47.8751C73.2832 47.6123 73.0828 47.3911 72.834 47.2364C72.5852 47.0818 72.2981 46.9999 72.0052 47C71.7122 46.9999 71.4251 47.0818 71.1763 47.2364C70.9276 47.3911 70.727 47.6123 70.5975 47.8751L68.0817 52.9716L62.4573 53.7889C62.1674 53.8312 61.8951 53.9536 61.6711 54.1425C61.4471 54.3314 61.2804 54.5791 61.1897 54.8577C61.0991 55.1363 61.0883 55.4348 61.1586 55.7193C61.2289 56.0037 61.3774 56.2629 61.5874 56.4672L65.6581 60.4342L64.6962 66.0352C64.6466 66.324 64.6788 66.6209 64.7892 66.8924C64.8996 67.1638 65.0838 67.399 65.3209 67.5712C65.8055 67.9239 66.4465 67.9673 66.9749 67.6908L72.0056 65.0462L77.0351 67.6908C77.2945 67.8272 77.5869 67.8883 77.8792 67.8672C78.1716 67.846 78.4521 67.7435 78.6892 67.5712C78.9262 67.399 79.1103 67.164 79.2207 66.8927C79.3311 66.6213 79.3634 66.3245 79.3138 66.0358L78.3529 60.4342L82.4226 56.4672C82.6322 56.2626 82.7804 56.0034 82.8506 55.719C82.9207 55.4346 82.91 55.1362 82.8196 54.8576ZM78.2808 70.9236H65.7192C64.8521 70.9236 64.149 71.6266 64.149 72.4938V95H79.851V72.4938C79.851 71.6266 79.148 70.9236 78.2808 70.9236ZM50.0172 77.2044C49.1501 77.2044 48.447 77.9074 48.447 78.7746V93.7586C48.447 94.4442 49.0029 95 49.6885 95H61.0087V77.2044H50.0172ZM93.9828 83.4852H82.9915V95H94.3117C94.9974 95 95.5531 94.4442 95.5531 93.7586V85.0554C95.553 84.1882 94.85 83.4852 93.9828 83.4852Z" fill="black"/>
</g>
</g>
<defs>
<clipPath id="clip0_184_99">
<rect width="132" height="132" fill="white"/>
</clipPath>
<clipPath id="clip1_184_99">
<rect width="48" height="48" fill="white" transform="translate(48 47)"/>
</clipPath>
</defs>
</svg>
