<svg width="36" height="35" viewBox="0 0 36 35" fill="none" xmlns="http://www.w3.org/2000/svg">
<path d="M18.4993 26.0453C19.8484 25.2508 20.8827 24.1715 21.6022 22.9423C22.0069 22.2378 22.6065 21.6232 23.3411 21.2185C24.96 20.2741 26.9237 20.439 28.3627 21.4283C27.8681 19.1948 26.474 17.1711 24.3304 15.9569C23.0113 15.1925 21.5422 14.8327 20.1032 14.8327C19.2937 14.8327 18.4843 14.6078 17.7647 14.2031C16.1458 13.2587 15.2914 11.4899 15.4563 9.73606L15.3813 9.75105L15.3663 9.76604C13.7024 11.31 12.6531 13.5286 12.6531 15.9869C12.6531 17.5309 13.0728 18.9849 13.7924 20.2291C14.1971 20.9337 14.422 21.7131 14.422 22.5676C14.422 24.4413 13.3127 26.0603 11.7387 26.8098C13.9273 27.4843 16.3557 27.2745 18.4993 26.0453ZM28.0648 23.8614C27.3153 22.5723 25.5165 22.0776 24.2274 22.8421C23.7777 23.0969 23.4479 23.4567 23.1931 23.8764C22.2787 25.4504 20.9745 26.7695 19.4156 27.6839C17.8416 28.5983 16.0428 29.078 14.244 29.078C10.5414 29.078 7.1087 27.0993 5.26492 23.8914C4.51541 22.6023 2.7166 22.1076 1.41247 22.8571C0.0633581 23.6366 -0.401335 25.3604 0.37815 26.6946C3.22627 31.6413 8.54775 34.6993 14.259 34.6993L14.184 34.6693C16.9872 34.6693 19.7453 33.9198 22.1887 32.5257C24.6171 31.1166 26.6408 29.108 28.0349 26.6796C28.5595 25.7951 28.5595 24.7159 28.0648 23.8614ZM33.8425 31.3263C35.9861 27.6087 36.5557 23.3066 35.4465 19.1843C34.3372 15.062 31.699 11.5993 28.0114 9.47073C25.583 8.06167 22.8098 7.32715 20.0217 7.32715C19.0024 7.34214 18.088 7.8668 17.5933 8.73622C16.7988 10.0703 17.2785 11.7942 18.6276 12.5737C19.0473 12.8285 19.542 12.9634 20.0367 12.9634C21.8655 12.9634 23.6343 13.4431 25.2082 14.3425C30.17 17.2056 31.8788 23.5614 29.0157 28.5081C28.2362 29.8572 28.7009 31.5811 30.05 32.3606C30.4848 32.6154 30.9644 32.7353 31.4591 32.7353L31.4741 32.7204H31.4141C32.4035 32.7204 33.3479 32.1807 33.8425 31.3263ZM9.71657 25.3932C11.2755 25.3932 12.5347 24.134 12.5347 22.5751C12.5347 22.0804 12.3998 21.5857 12.16 21.166C11.2456 19.592 10.7659 17.8082 10.7659 15.9944C10.7659 10.2832 15.4128 5.63627 21.124 5.63627C22.683 5.63627 23.9422 4.36211 23.9422 2.81814C23.9422 1.25917 22.683 0 21.139 0C12.3099 0 5.14459 7.18025 5.14459 15.9944C5.14459 18.7976 5.87911 21.5557 7.28817 23.9841C7.79784 24.8536 8.72722 25.3932 9.71657 25.3932Z" fill="black"/>
</svg>
