<svg width="132" height="132" viewBox="0 0 132 132" fill="none" xmlns="http://www.w3.org/2000/svg">
<g clip-path="url(#clip0_184_81)">
<path d="M75.2276 12.2828C74.1635 11.4507 72.8515 10.9987 71.5007 10.9987C70.1499 10.9987 68.8379 11.4507 67.7738 12.2828L57.7305 20.1359L45.122 18.3572C43.786 18.1695 42.4257 18.4338 41.2571 19.108C40.0886 19.7821 39.1789 20.8275 38.6726 22.078L33.899 33.894L22.0831 38.6675C20.8326 39.1738 19.7872 40.0835 19.113 41.2521C18.4388 42.4206 18.1746 43.781 18.3622 45.117L20.1349 57.7376L12.2879 67.7809C11.4587 68.8439 11.0084 70.1535 11.0084 71.5017C11.0084 72.8499 11.4587 74.1595 12.2879 75.2225L20.1349 85.2658L18.3622 97.8864C18.1746 99.2224 18.4388 100.583 19.113 101.751C19.7872 102.92 20.8326 103.83 22.0831 104.336L33.899 109.109L38.6726 120.925C39.1778 122.177 40.0871 123.224 41.2558 123.899C42.4244 124.574 43.7853 124.839 45.122 124.652L57.7426 122.874L67.7859 130.721C68.849 131.55 70.1585 132 71.5067 132C72.8549 132 74.1645 131.55 75.2276 130.721L85.2708 122.874L97.8914 124.652C99.2281 124.839 100.589 124.574 101.758 123.899C102.926 123.224 103.836 122.177 104.341 120.925L109.114 109.109L120.93 104.336C122.182 103.831 123.229 102.921 123.904 101.753C124.579 100.584 124.845 99.2231 124.657 97.8864L122.879 85.2658L130.726 75.2225C131.555 74.1595 132.005 72.8499 132.005 71.5017C132.005 70.1535 131.555 68.8439 130.726 67.7809L122.879 57.7376L124.657 45.117C124.845 43.7803 124.579 42.4194 123.904 41.2507C123.229 40.0821 122.182 39.1728 120.93 38.6675L109.114 33.894L104.341 22.078C103.835 20.8275 102.925 19.7821 101.756 19.108C100.588 18.4338 99.2274 18.1695 97.8914 18.3572L85.2708 20.1299L75.2276 12.2828Z" fill="#CA96FF" fill-opacity="0.62"/>
<path d="M85.0825 79.32C84.6669 76.4963 83.253 73.915 81.0972 72.0445C78.9414 70.1741 76.1866 69.1382 73.3325 69.125H70.6725C67.8184 69.1382 65.0636 70.1741 62.9078 72.0445C60.752 73.915 59.3381 76.4963 58.9225 79.32L57.6475 88.235C57.6068 88.5232 57.6337 88.8169 57.7261 89.0928C57.8185 89.3688 57.9739 89.6195 58.18 89.825C58.68 90.325 61.7475 92.875 72.005 92.875C82.2625 92.875 85.3225 90.335 85.83 89.825C86.0361 89.6195 86.1915 89.3688 86.2839 89.0928C86.3763 88.8169 86.4032 88.5232 86.3625 88.235L85.0825 79.32ZM60.9 70.5C58.4838 72.7274 56.9117 75.7214 56.45 78.975L55.525 85.375C48.1 85.325 45.85 82.625 45.475 82.075C45.33 81.8752 45.2266 81.6484 45.1708 81.4079C45.115 81.1674 45.1079 80.9182 45.15 80.675L45.7 77.575C45.9866 75.9549 46.6596 74.4277 47.6619 73.1231C48.6643 71.8184 49.9665 70.7747 51.4581 70.0804C52.9497 69.3861 54.5868 69.0617 56.2304 69.1348C57.8741 69.2078 59.4759 69.6761 60.9 70.5ZM98.85 80.675C98.8921 80.9182 98.885 81.1674 98.8292 81.4079C98.7734 81.6484 98.67 81.8752 98.525 82.075C98.15 82.625 95.9 85.325 88.475 85.375L87.55 78.975C87.0882 75.7214 85.5162 72.7274 83.1 70.5C84.5241 69.6761 86.1259 69.2078 87.7696 69.1348C89.4132 69.0617 91.0503 69.3861 92.5419 70.0804C94.0335 70.7747 95.3357 71.8184 96.3381 73.1231C97.3404 74.4277 98.0134 75.9549 98.3 77.575L98.85 80.675ZM61.325 65C60.6957 65.8925 59.8603 66.6199 58.8897 67.1204C57.9191 67.621 56.842 67.8798 55.75 67.875C54.6606 67.875 53.5869 67.6161 52.6172 67.1197C51.6475 66.6233 50.8097 65.9036 50.1727 65.0199C49.5358 64.1362 49.1179 63.1137 48.9536 62.0368C48.7893 60.9599 48.8833 59.8594 49.2278 58.8259C49.5723 57.7925 50.1574 56.8557 50.935 56.0927C51.7126 55.3298 52.6603 54.7625 53.7001 54.4377C54.7399 54.1129 55.842 54.0398 56.9156 54.2245C57.9892 54.4092 59.0035 54.8464 59.875 55.5C59.6243 56.4803 59.4983 57.4882 59.5 58.5C59.5019 60.7929 60.1332 63.0412 61.325 65ZM95.125 61C95.1257 61.903 94.9483 62.7973 94.603 63.6317C94.2577 64.4661 93.7514 65.2243 93.1128 65.8628C92.4743 66.5014 91.7161 67.0077 90.8817 67.353C90.0473 67.6983 89.153 67.8757 88.25 67.875C87.158 67.8798 86.0809 67.621 85.1103 67.1204C84.1397 66.6199 83.3043 65.8925 82.675 65C83.8668 63.0412 84.4981 60.7929 84.5 58.5C84.5017 57.4882 84.3757 56.4803 84.125 55.5C85.1464 54.7339 86.361 54.2674 87.6326 54.1528C88.9042 54.0381 90.1826 54.2798 91.3246 54.8508C92.4666 55.4218 93.427 56.2995 94.0982 57.3856C94.7695 58.4717 95.125 59.7232 95.125 61Z" fill="white"/>
<path d="M72 67.875C77.1777 67.875 81.375 63.6777 81.375 58.5C81.375 53.3223 77.1777 49.125 72 49.125C66.8223 49.125 62.625 53.3223 62.625 58.5C62.625 63.6777 66.8223 67.875 72 67.875Z" fill="white"/>
</g>
<defs>
<clipPath id="clip0_184_81">
<rect width="132" height="132" fill="white"/>
</clipPath>
</defs>
</svg>
