<svg width="18" height="18" viewBox="0 0 18 18" fill="none" xmlns="http://www.w3.org/2000/svg">
<path d="M6.5 17.3333H1.08333C0.433333 17.3333 0 16.9 0 16.25V10.8333C0 10.1833 0.433333 9.75 1.08333 9.75C1.73333 9.75 2.16667 10.1833 2.16667 10.8333V15.1667H6.5C7.15 15.1667 7.58333 15.6 7.58333 16.25C7.58333 16.9 7.15 17.3333 6.5 17.3333ZM16.25 7.58333C15.6 7.58333 15.1667 7.15 15.1667 6.5V2.16667H10.8333C10.1833 2.16667 9.75 1.73333 9.75 1.08333C9.75 0.433333 10.1833 0 10.8333 0H16.25C16.9 0 17.3333 0.433333 17.3333 1.08333V6.5C17.3333 7.15 16.9 7.58333 16.25 7.58333Z" fill="black"/>
</svg>
