<svg width="804" height="124" viewBox="0 0 804 124" fill="none" xmlns="http://www.w3.org/2000/svg">
<rect x="88" y="-12" width="16" height="16" rx="8" fill="#FFEFC3"/>
<rect x="88" y="-12" width="16" height="16" rx="8" fill="#FFEFC3"/>
<g clip-path="url(#clip0_436_41)">
<rect x="88" y="48" width="16" height="16" rx="8" fill="#FFEFC3"/>
<rect x="88" y="48" width="16" height="16" rx="8" fill="#FFEFC3"/>
<rect x="88" y="48" width="16" height="16" rx="8" fill="#FFEFC3"/>
<rect x="88" y="48" width="16" height="16" rx="8" fill="#FFEFC3"/>
</g>
<g clip-path="url(#clip1_436_41)">
<rect x="88" y="78" width="16" height="16" rx="8" fill="#FFEFC3"/>
<rect x="88" y="78" width="16" height="16" rx="8" fill="#FFEFC3"/>
<rect x="88" y="78" width="16" height="16" rx="8" fill="#FFEFC3"/>
<rect x="88" y="78" width="16" height="16" rx="8" fill="#FFEFC3"/>
</g>
<g clip-path="url(#clip2_436_41)">
<rect x="88" y="108" width="16" height="16" rx="8" fill="#FFEFC3"/>
<rect x="88" y="108" width="16" height="16" rx="8" fill="#FFEFC3"/>
<rect x="88" y="108" width="16" height="16" rx="8" fill="#FFEFC3"/>
<rect x="88" y="108" width="16" height="16" rx="8" fill="#FFEFC3"/>
</g>
<rect x="88" y="18" width="16" height="16" rx="8" fill="#FFEFC3"/>
<rect x="88" y="18" width="16" height="16" rx="8" fill="#FFEFC3"/>
<rect x="56" y="-12" width="16" height="16" rx="8" fill="#FFEFC3"/>
<rect x="56" y="-12" width="16" height="16" rx="8" fill="#FFEFC3"/>
<g clip-path="url(#clip3_436_41)">
<rect x="56" y="48" width="16" height="16" rx="8" fill="#FFEFC3"/>
<rect x="56" y="48" width="16" height="16" rx="8" fill="#FFEFC3"/>
<rect x="56" y="48" width="16" height="16" rx="8" fill="#FFEFC3"/>
<rect x="56" y="48" width="16" height="16" rx="8" fill="#FFEFC3"/>
</g>
<g clip-path="url(#clip4_436_41)">
<rect x="56" y="78" width="16" height="16" rx="8" fill="#FFEFC3"/>
<rect x="56" y="78" width="16" height="16" rx="8" fill="#FFEFC3"/>
<rect x="56" y="78" width="16" height="16" rx="8" fill="#FFEFC3"/>
<rect x="56" y="78" width="16" height="16" rx="8" fill="#FFEFC3"/>
</g>
<g clip-path="url(#clip5_436_41)">
<rect x="56" y="108" width="16" height="16" rx="8" fill="#FFEFC3"/>
<rect x="56" y="108" width="16" height="16" rx="8" fill="#FFEFC3"/>
<rect x="56" y="108" width="16" height="16" rx="8" fill="#FFEFC3"/>
<rect x="56" y="108" width="16" height="16" rx="8" fill="#FFEFC3"/>
</g>
<rect x="56" y="18" width="16" height="16" rx="8" fill="#FFEFC3"/>
<rect x="56" y="18" width="16" height="16" rx="8" fill="#FFEFC3"/>
<rect x="24" y="-12" width="16" height="16" rx="8" fill="#FFEFC3"/>
<rect x="24" y="-12" width="16" height="16" rx="8" fill="#FFEFC3"/>
<g clip-path="url(#clip6_436_41)">
<rect x="24" y="48" width="16" height="16" rx="8" fill="#FFEFC3"/>
<rect x="24" y="48" width="16" height="16" rx="8" fill="#FFEFC3"/>
<rect x="24" y="48" width="16" height="16" rx="8" fill="#FFEFC3"/>
<rect x="24" y="48" width="16" height="16" rx="8" fill="#FFEFC3"/>
</g>
<g clip-path="url(#clip7_436_41)">
<rect x="24" y="78" width="16" height="16" rx="8" fill="#FFEFC3"/>
<rect x="24" y="78" width="16" height="16" rx="8" fill="#FFEFC3"/>
<rect x="24" y="78" width="16" height="16" rx="8" fill="#FFEFC3"/>
<rect x="24" y="78" width="16" height="16" rx="8" fill="#FFEFC3"/>
</g>
<g clip-path="url(#clip8_436_41)">
<rect x="24" y="108" width="16" height="16" rx="8" fill="#FFEFC3"/>
<rect x="24" y="108" width="16" height="16" rx="8" fill="#FFEFC3"/>
<rect x="24" y="108" width="16" height="16" rx="8" fill="#FFEFC3"/>
<rect x="24" y="108" width="16" height="16" rx="8" fill="#FFEFC3"/>
</g>
<rect x="24" y="18" width="16" height="16" rx="8" fill="#FFEFC3"/>
<rect x="24" y="18" width="16" height="16" rx="8" fill="#FFEFC3"/>
<rect x="-8" y="-12" width="16" height="16" rx="8" fill="#FFEFC3"/>
<rect x="-8" y="-12" width="16" height="16" rx="8" fill="#FFEFC3"/>
<g clip-path="url(#clip9_436_41)">
<rect x="-8" y="48" width="16" height="16" rx="8" fill="#FFEFC3"/>
<rect x="-8" y="48" width="16" height="16" rx="8" fill="#FFEFC3"/>
<rect x="-8" y="48" width="16" height="16" rx="8" fill="#FFEFC3"/>
<rect x="-8" y="48" width="16" height="16" rx="8" fill="#FFEFC3"/>
</g>
<g clip-path="url(#clip10_436_41)">
<rect x="-8" y="78" width="16" height="16" rx="8" fill="#FFEFC3"/>
<rect x="-8" y="78" width="16" height="16" rx="8" fill="#FFEFC3"/>
<rect x="-8" y="78" width="16" height="16" rx="8" fill="#FFEFC3"/>
<rect x="-8" y="78" width="16" height="16" rx="8" fill="#FFEFC3"/>
</g>
<g clip-path="url(#clip11_436_41)">
<rect x="-8" y="108" width="16" height="16" rx="8" fill="#FFEFC3"/>
<rect x="-8" y="108" width="16" height="16" rx="8" fill="#FFEFC3"/>
<rect x="-8" y="108" width="16" height="16" rx="8" fill="#FFEFC3"/>
<rect x="-8" y="108" width="16" height="16" rx="8" fill="#FFEFC3"/>
</g>
<rect x="-8" y="18" width="16" height="16" rx="8" fill="#FFEFC3"/>
<rect x="-8" y="18" width="16" height="16" rx="8" fill="#FFEFC3"/>
<rect x="118" y="-12" width="16" height="16" rx="8" fill="#FFEFC3"/>
<rect x="118" y="-12" width="16" height="16" rx="8" fill="#FFEFC3"/>
<g clip-path="url(#clip12_436_41)">
<rect x="118" y="48" width="16" height="16" rx="8" fill="#FFEFC3"/>
<rect x="118" y="48" width="16" height="16" rx="8" fill="#FFEFC3"/>
<rect x="118" y="48" width="16" height="16" rx="8" fill="#FFEFC3"/>
<rect x="118" y="48" width="16" height="16" rx="8" fill="#FFEFC3"/>
</g>
<g clip-path="url(#clip13_436_41)">
<rect x="118" y="78" width="16" height="16" rx="8" fill="#FFEFC3"/>
<rect x="118" y="78" width="16" height="16" rx="8" fill="#FFEFC3"/>
<rect x="118" y="78" width="16" height="16" rx="8" fill="#FFEFC3"/>
<rect x="118" y="78" width="16" height="16" rx="8" fill="#FFEFC3"/>
</g>
<g clip-path="url(#clip14_436_41)">
<rect x="118" y="108" width="16" height="16" rx="8" fill="#FFEFC3"/>
<rect x="118" y="108" width="16" height="16" rx="8" fill="#FFEFC3"/>
<rect x="118" y="108" width="16" height="16" rx="8" fill="#FFEFC3"/>
<rect x="118" y="108" width="16" height="16" rx="8" fill="#FFEFC3"/>
</g>
<rect x="118" y="18" width="16" height="16" rx="8" fill="#FFEFC3"/>
<rect x="118" y="18" width="16" height="16" rx="8" fill="#FFEFC3"/>
<rect x="246" y="-12" width="16" height="16" rx="8" fill="#FFEFC3"/>
<rect x="246" y="-12" width="16" height="16" rx="8" fill="#FFEFC3"/>
<g clip-path="url(#clip15_436_41)">
<rect x="246" y="48" width="16" height="16" rx="8" fill="#FFEFC3"/>
<rect x="246" y="48" width="16" height="16" rx="8" fill="#FFEFC3"/>
<rect x="246" y="48" width="16" height="16" rx="8" fill="#FFEFC3"/>
<rect x="246" y="48" width="16" height="16" rx="8" fill="#FFEFC3"/>
</g>
<g clip-path="url(#clip16_436_41)">
<rect x="246" y="78" width="16" height="16" rx="8" fill="#FFEFC3"/>
<rect x="246" y="78" width="16" height="16" rx="8" fill="#FFEFC3"/>
<rect x="246" y="78" width="16" height="16" rx="8" fill="#FFEFC3"/>
<rect x="246" y="78" width="16" height="16" rx="8" fill="#FFEFC3"/>
</g>
<g clip-path="url(#clip17_436_41)">
<rect x="246" y="108" width="16" height="16" rx="8" fill="#FFEFC3"/>
<rect x="246" y="108" width="16" height="16" rx="8" fill="#FFEFC3"/>
<rect x="246" y="108" width="16" height="16" rx="8" fill="#FFEFC3"/>
<rect x="246" y="108" width="16" height="16" rx="8" fill="#FFEFC3"/>
</g>
<rect x="246" y="18" width="16" height="16" rx="8" fill="#FFEFC3"/>
<rect x="246" y="18" width="16" height="16" rx="8" fill="#FFEFC3"/>
<rect x="214" y="-12" width="16" height="16" rx="8" fill="#FFEFC3"/>
<rect x="214" y="-12" width="16" height="16" rx="8" fill="#FFEFC3"/>
<g clip-path="url(#clip18_436_41)">
<rect x="214" y="48" width="16" height="16" rx="8" fill="#FFEFC3"/>
<rect x="214" y="48" width="16" height="16" rx="8" fill="#FFEFC3"/>
<rect x="214" y="48" width="16" height="16" rx="8" fill="#FFEFC3"/>
<rect x="214" y="48" width="16" height="16" rx="8" fill="#FFEFC3"/>
</g>
<g clip-path="url(#clip19_436_41)">
<rect x="214" y="78" width="16" height="16" rx="8" fill="#FFEFC3"/>
<rect x="214" y="78" width="16" height="16" rx="8" fill="#FFEFC3"/>
<rect x="214" y="78" width="16" height="16" rx="8" fill="#FFEFC3"/>
<rect x="214" y="78" width="16" height="16" rx="8" fill="#FFEFC3"/>
</g>
<g clip-path="url(#clip20_436_41)">
<rect x="214" y="108" width="16" height="16" rx="8" fill="#FFEFC3"/>
<rect x="214" y="108" width="16" height="16" rx="8" fill="#FFEFC3"/>
<rect x="214" y="108" width="16" height="16" rx="8" fill="#FFEFC3"/>
<rect x="214" y="108" width="16" height="16" rx="8" fill="#FFEFC3"/>
</g>
<rect x="214" y="18" width="16" height="16" rx="8" fill="#FFEFC3"/>
<rect x="214" y="18" width="16" height="16" rx="8" fill="#FFEFC3"/>
<rect x="182" y="-12" width="16" height="16" rx="8" fill="#FFEFC3"/>
<rect x="182" y="-12" width="16" height="16" rx="8" fill="#FFEFC3"/>
<g clip-path="url(#clip21_436_41)">
<rect x="182" y="48" width="16" height="16" rx="8" fill="#FFEFC3"/>
<rect x="182" y="48" width="16" height="16" rx="8" fill="#FFEFC3"/>
<rect x="182" y="48" width="16" height="16" rx="8" fill="#FFEFC3"/>
<rect x="182" y="48" width="16" height="16" rx="8" fill="#FFEFC3"/>
</g>
<g clip-path="url(#clip22_436_41)">
<rect x="182" y="78" width="16" height="16" rx="8" fill="#FFEFC3"/>
<rect x="182" y="78" width="16" height="16" rx="8" fill="#FFEFC3"/>
<rect x="182" y="78" width="16" height="16" rx="8" fill="#FFEFC3"/>
<rect x="182" y="78" width="16" height="16" rx="8" fill="#FFEFC3"/>
</g>
<g clip-path="url(#clip23_436_41)">
<rect x="182" y="108" width="16" height="16" rx="8" fill="#FFEFC3"/>
<rect x="182" y="108" width="16" height="16" rx="8" fill="#FFEFC3"/>
<rect x="182" y="108" width="16" height="16" rx="8" fill="#FFEFC3"/>
<rect x="182" y="108" width="16" height="16" rx="8" fill="#FFEFC3"/>
</g>
<rect x="182" y="18" width="16" height="16" rx="8" fill="#FFEFC3"/>
<rect x="182" y="18" width="16" height="16" rx="8" fill="#FFEFC3"/>
<rect x="150" y="-12" width="16" height="16" rx="8" fill="#FFEFC3"/>
<rect x="150" y="-12" width="16" height="16" rx="8" fill="#FFEFC3"/>
<g clip-path="url(#clip24_436_41)">
<rect x="150" y="48" width="16" height="16" rx="8" fill="#FFEFC3"/>
<rect x="150" y="48" width="16" height="16" rx="8" fill="#FFEFC3"/>
<rect x="150" y="48" width="16" height="16" rx="8" fill="#FFEFC3"/>
<rect x="150" y="48" width="16" height="16" rx="8" fill="#FFEFC3"/>
</g>
<g clip-path="url(#clip25_436_41)">
<rect x="150" y="78" width="16" height="16" rx="8" fill="#FFEFC3"/>
<rect x="150" y="78" width="16" height="16" rx="8" fill="#FFEFC3"/>
<rect x="150" y="78" width="16" height="16" rx="8" fill="#FFEFC3"/>
<rect x="150" y="78" width="16" height="16" rx="8" fill="#FFEFC3"/>
</g>
<g clip-path="url(#clip26_436_41)">
<rect x="150" y="108" width="16" height="16" rx="8" fill="#FFEFC3"/>
<rect x="150" y="108" width="16" height="16" rx="8" fill="#FFEFC3"/>
<rect x="150" y="108" width="16" height="16" rx="8" fill="#FFEFC3"/>
<rect x="150" y="108" width="16" height="16" rx="8" fill="#FFEFC3"/>
</g>
<rect x="150" y="18" width="16" height="16" rx="8" fill="#FFEFC3"/>
<rect x="150" y="18" width="16" height="16" rx="8" fill="#FFEFC3"/>
<rect x="276" y="-12" width="16" height="16" rx="8" fill="#FFEFC3"/>
<rect x="276" y="-12" width="16" height="16" rx="8" fill="#FFEFC3"/>
<g clip-path="url(#clip27_436_41)">
<rect x="276" y="48" width="16" height="16" rx="8" fill="#FFEFC3"/>
<rect x="276" y="48" width="16" height="16" rx="8" fill="#FFEFC3"/>
<rect x="276" y="48" width="16" height="16" rx="8" fill="#FFEFC3"/>
<rect x="276" y="48" width="16" height="16" rx="8" fill="#FFEFC3"/>
</g>
<g clip-path="url(#clip28_436_41)">
<rect x="276" y="78" width="16" height="16" rx="8" fill="#FFEFC3"/>
<rect x="276" y="78" width="16" height="16" rx="8" fill="#FFEFC3"/>
<rect x="276" y="78" width="16" height="16" rx="8" fill="#FFEFC3"/>
<rect x="276" y="78" width="16" height="16" rx="8" fill="#FFEFC3"/>
</g>
<g clip-path="url(#clip29_436_41)">
<rect x="276" y="108" width="16" height="16" rx="8" fill="#FFEFC3"/>
<rect x="276" y="108" width="16" height="16" rx="8" fill="#FFEFC3"/>
<rect x="276" y="108" width="16" height="16" rx="8" fill="#FFEFC3"/>
<rect x="276" y="108" width="16" height="16" rx="8" fill="#FFEFC3"/>
</g>
<rect x="276" y="18" width="16" height="16" rx="8" fill="#FFEFC3"/>
<rect x="276" y="18" width="16" height="16" rx="8" fill="#FFEFC3"/>
<rect x="404" y="-12" width="16" height="16" rx="8" fill="#FFEFC3"/>
<rect x="404" y="-12" width="16" height="16" rx="8" fill="#FFEFC3"/>
<g clip-path="url(#clip30_436_41)">
<rect x="404" y="48" width="16" height="16" rx="8" fill="#FFEFC3"/>
<rect x="404" y="48" width="16" height="16" rx="8" fill="#FFEFC3"/>
<rect x="404" y="48" width="16" height="16" rx="8" fill="#FFEFC3"/>
<rect x="404" y="48" width="16" height="16" rx="8" fill="#FFEFC3"/>
</g>
<g clip-path="url(#clip31_436_41)">
<rect x="404" y="78" width="16" height="16" rx="8" fill="#FFEFC3"/>
<rect x="404" y="78" width="16" height="16" rx="8" fill="#FFEFC3"/>
<rect x="404" y="78" width="16" height="16" rx="8" fill="#FFEFC3"/>
<rect x="404" y="78" width="16" height="16" rx="8" fill="#FFEFC3"/>
</g>
<g clip-path="url(#clip32_436_41)">
<rect x="404" y="108" width="16" height="16" rx="8" fill="#FFEFC3"/>
<rect x="404" y="108" width="16" height="16" rx="8" fill="#FFEFC3"/>
<rect x="404" y="108" width="16" height="16" rx="8" fill="#FFEFC3"/>
<rect x="404" y="108" width="16" height="16" rx="8" fill="#FFEFC3"/>
</g>
<rect x="404" y="18" width="16" height="16" rx="8" fill="#FFEFC3"/>
<rect x="404" y="18" width="16" height="16" rx="8" fill="#FFEFC3"/>
<rect x="372" y="-12" width="16" height="16" rx="8" fill="#FFEFC3"/>
<rect x="372" y="-12" width="16" height="16" rx="8" fill="#FFEFC3"/>
<g clip-path="url(#clip33_436_41)">
<rect x="372" y="48" width="16" height="16" rx="8" fill="#FFEFC3"/>
<rect x="372" y="48" width="16" height="16" rx="8" fill="#FFEFC3"/>
<rect x="372" y="48" width="16" height="16" rx="8" fill="#FFEFC3"/>
<rect x="372" y="48" width="16" height="16" rx="8" fill="#FFEFC3"/>
</g>
<g clip-path="url(#clip34_436_41)">
<rect x="372" y="78" width="16" height="16" rx="8" fill="#FFEFC3"/>
<rect x="372" y="78" width="16" height="16" rx="8" fill="#FFEFC3"/>
<rect x="372" y="78" width="16" height="16" rx="8" fill="#FFEFC3"/>
<rect x="372" y="78" width="16" height="16" rx="8" fill="#FFEFC3"/>
</g>
<g clip-path="url(#clip35_436_41)">
<rect x="372" y="108" width="16" height="16" rx="8" fill="#FFEFC3"/>
<rect x="372" y="108" width="16" height="16" rx="8" fill="#FFEFC3"/>
<rect x="372" y="108" width="16" height="16" rx="8" fill="#FFEFC3"/>
<rect x="372" y="108" width="16" height="16" rx="8" fill="#FFEFC3"/>
</g>
<rect x="372" y="18" width="16" height="16" rx="8" fill="#FFEFC3"/>
<rect x="372" y="18" width="16" height="16" rx="8" fill="#FFEFC3"/>
<rect x="340" y="-12" width="16" height="16" rx="8" fill="#FFEFC3"/>
<rect x="340" y="-12" width="16" height="16" rx="8" fill="#FFEFC3"/>
<g clip-path="url(#clip36_436_41)">
<rect x="340" y="48" width="16" height="16" rx="8" fill="#FFEFC3"/>
<rect x="340" y="48" width="16" height="16" rx="8" fill="#FFEFC3"/>
<rect x="340" y="48" width="16" height="16" rx="8" fill="#FFEFC3"/>
<rect x="340" y="48" width="16" height="16" rx="8" fill="#FFEFC3"/>
</g>
<g clip-path="url(#clip37_436_41)">
<rect x="340" y="78" width="16" height="16" rx="8" fill="#FFEFC3"/>
<rect x="340" y="78" width="16" height="16" rx="8" fill="#FFEFC3"/>
<rect x="340" y="78" width="16" height="16" rx="8" fill="#FFEFC3"/>
<rect x="340" y="78" width="16" height="16" rx="8" fill="#FFEFC3"/>
</g>
<g clip-path="url(#clip38_436_41)">
<rect x="340" y="108" width="16" height="16" rx="8" fill="#FFEFC3"/>
<rect x="340" y="108" width="16" height="16" rx="8" fill="#FFEFC3"/>
<rect x="340" y="108" width="16" height="16" rx="8" fill="#FFEFC3"/>
<rect x="340" y="108" width="16" height="16" rx="8" fill="#FFEFC3"/>
</g>
<rect x="340" y="18" width="16" height="16" rx="8" fill="#FFEFC3"/>
<rect x="340" y="18" width="16" height="16" rx="8" fill="#FFEFC3"/>
<rect x="308" y="-12" width="16" height="16" rx="8" fill="#FFEFC3"/>
<rect x="308" y="-12" width="16" height="16" rx="8" fill="#FFEFC3"/>
<g clip-path="url(#clip39_436_41)">
<rect x="308" y="48" width="16" height="16" rx="8" fill="#FFEFC3"/>
<rect x="308" y="48" width="16" height="16" rx="8" fill="#FFEFC3"/>
<rect x="308" y="48" width="16" height="16" rx="8" fill="#FFEFC3"/>
<rect x="308" y="48" width="16" height="16" rx="8" fill="#FFEFC3"/>
</g>
<g clip-path="url(#clip40_436_41)">
<rect x="308" y="78" width="16" height="16" rx="8" fill="#FFEFC3"/>
<rect x="308" y="78" width="16" height="16" rx="8" fill="#FFEFC3"/>
<rect x="308" y="78" width="16" height="16" rx="8" fill="#FFEFC3"/>
<rect x="308" y="78" width="16" height="16" rx="8" fill="#FFEFC3"/>
</g>
<g clip-path="url(#clip41_436_41)">
<rect x="308" y="108" width="16" height="16" rx="8" fill="#FFEFC3"/>
<rect x="308" y="108" width="16" height="16" rx="8" fill="#FFEFC3"/>
<rect x="308" y="108" width="16" height="16" rx="8" fill="#FFEFC3"/>
<rect x="308" y="108" width="16" height="16" rx="8" fill="#FFEFC3"/>
</g>
<rect x="308" y="18" width="16" height="16" rx="8" fill="#FFEFC3"/>
<rect x="308" y="18" width="16" height="16" rx="8" fill="#FFEFC3"/>
<rect x="434" y="-12" width="16" height="16" rx="8" fill="#FFEFC3"/>
<rect x="434" y="-12" width="16" height="16" rx="8" fill="#FFEFC3"/>
<g clip-path="url(#clip42_436_41)">
<rect x="434" y="48" width="16" height="16" rx="8" fill="#FFEFC3"/>
<rect x="434" y="48" width="16" height="16" rx="8" fill="#FFEFC3"/>
<rect x="434" y="48" width="16" height="16" rx="8" fill="#FFEFC3"/>
<rect x="434" y="48" width="16" height="16" rx="8" fill="#FFEFC3"/>
</g>
<g clip-path="url(#clip43_436_41)">
<rect x="434" y="78" width="16" height="16" rx="8" fill="#FFEFC3"/>
<rect x="434" y="78" width="16" height="16" rx="8" fill="#FFEFC3"/>
<rect x="434" y="78" width="16" height="16" rx="8" fill="#FFEFC3"/>
<rect x="434" y="78" width="16" height="16" rx="8" fill="#FFEFC3"/>
</g>
<g clip-path="url(#clip44_436_41)">
<rect x="434" y="108" width="16" height="16" rx="8" fill="#FFEFC3"/>
<rect x="434" y="108" width="16" height="16" rx="8" fill="#FFEFC3"/>
<rect x="434" y="108" width="16" height="16" rx="8" fill="#FFEFC3"/>
<rect x="434" y="108" width="16" height="16" rx="8" fill="#FFEFC3"/>
</g>
<rect x="434" y="18" width="16" height="16" rx="8" fill="#FFEFC3"/>
<rect x="434" y="18" width="16" height="16" rx="8" fill="#FFEFC3"/>
<rect x="562" y="-12" width="16" height="16" rx="8" fill="#FFEFC3"/>
<rect x="562" y="-12" width="16" height="16" rx="8" fill="#FFEFC3"/>
<g clip-path="url(#clip45_436_41)">
<rect x="562" y="48" width="16" height="16" rx="8" fill="#FFEFC3"/>
<rect x="562" y="48" width="16" height="16" rx="8" fill="#FFEFC3"/>
<rect x="562" y="48" width="16" height="16" rx="8" fill="#FFEFC3"/>
<rect x="562" y="48" width="16" height="16" rx="8" fill="#FFEFC3"/>
</g>
<g clip-path="url(#clip46_436_41)">
<rect x="562" y="78" width="16" height="16" rx="8" fill="#FFEFC3"/>
<rect x="562" y="78" width="16" height="16" rx="8" fill="#FFEFC3"/>
<rect x="562" y="78" width="16" height="16" rx="8" fill="#FFEFC3"/>
<rect x="562" y="78" width="16" height="16" rx="8" fill="#FFEFC3"/>
</g>
<g clip-path="url(#clip47_436_41)">
<rect x="562" y="108" width="16" height="16" rx="8" fill="#FFEFC3"/>
<rect x="562" y="108" width="16" height="16" rx="8" fill="#FFEFC3"/>
<rect x="562" y="108" width="16" height="16" rx="8" fill="#FFEFC3"/>
<rect x="562" y="108" width="16" height="16" rx="8" fill="#FFEFC3"/>
</g>
<rect x="562" y="18" width="16" height="16" rx="8" fill="#FFEFC3"/>
<rect x="562" y="18" width="16" height="16" rx="8" fill="#FFEFC3"/>
<rect x="530" y="-12" width="16" height="16" rx="8" fill="#FFEFC3"/>
<rect x="530" y="-12" width="16" height="16" rx="8" fill="#FFEFC3"/>
<g clip-path="url(#clip48_436_41)">
<rect x="530" y="48" width="16" height="16" rx="8" fill="#FFEFC3"/>
<rect x="530" y="48" width="16" height="16" rx="8" fill="#FFEFC3"/>
<rect x="530" y="48" width="16" height="16" rx="8" fill="#FFEFC3"/>
<rect x="530" y="48" width="16" height="16" rx="8" fill="#FFEFC3"/>
</g>
<g clip-path="url(#clip49_436_41)">
<rect x="530" y="78" width="16" height="16" rx="8" fill="#FFEFC3"/>
<rect x="530" y="78" width="16" height="16" rx="8" fill="#FFEFC3"/>
<rect x="530" y="78" width="16" height="16" rx="8" fill="#FFEFC3"/>
<rect x="530" y="78" width="16" height="16" rx="8" fill="#FFEFC3"/>
</g>
<g clip-path="url(#clip50_436_41)">
<rect x="530" y="108" width="16" height="16" rx="8" fill="#FFEFC3"/>
<rect x="530" y="108" width="16" height="16" rx="8" fill="#FFEFC3"/>
<rect x="530" y="108" width="16" height="16" rx="8" fill="#FFEFC3"/>
<rect x="530" y="108" width="16" height="16" rx="8" fill="#FFEFC3"/>
</g>
<rect x="530" y="18" width="16" height="16" rx="8" fill="#FFEFC3"/>
<rect x="530" y="18" width="16" height="16" rx="8" fill="#FFEFC3"/>
<rect x="498" y="-12" width="16" height="16" rx="8" fill="#FFEFC3"/>
<rect x="498" y="-12" width="16" height="16" rx="8" fill="#FFEFC3"/>
<g clip-path="url(#clip51_436_41)">
<rect x="498" y="48" width="16" height="16" rx="8" fill="#FFEFC3"/>
<rect x="498" y="48" width="16" height="16" rx="8" fill="#FFEFC3"/>
<rect x="498" y="48" width="16" height="16" rx="8" fill="#FFEFC3"/>
<rect x="498" y="48" width="16" height="16" rx="8" fill="#FFEFC3"/>
</g>
<g clip-path="url(#clip52_436_41)">
<rect x="498" y="78" width="16" height="16" rx="8" fill="#FFEFC3"/>
<rect x="498" y="78" width="16" height="16" rx="8" fill="#FFEFC3"/>
<rect x="498" y="78" width="16" height="16" rx="8" fill="#FFEFC3"/>
<rect x="498" y="78" width="16" height="16" rx="8" fill="#FFEFC3"/>
</g>
<g clip-path="url(#clip53_436_41)">
<rect x="498" y="108" width="16" height="16" rx="8" fill="#FFEFC3"/>
<rect x="498" y="108" width="16" height="16" rx="8" fill="#FFEFC3"/>
<rect x="498" y="108" width="16" height="16" rx="8" fill="#FFEFC3"/>
<rect x="498" y="108" width="16" height="16" rx="8" fill="#FFEFC3"/>
</g>
<rect x="498" y="18" width="16" height="16" rx="8" fill="#FFEFC3"/>
<rect x="498" y="18" width="16" height="16" rx="8" fill="#FFEFC3"/>
<rect x="466" y="-12" width="16" height="16" rx="8" fill="#FFEFC3"/>
<rect x="466" y="-12" width="16" height="16" rx="8" fill="#FFEFC3"/>
<g clip-path="url(#clip54_436_41)">
<rect x="466" y="48" width="16" height="16" rx="8" fill="#FFEFC3"/>
<rect x="466" y="48" width="16" height="16" rx="8" fill="#FFEFC3"/>
<rect x="466" y="48" width="16" height="16" rx="8" fill="#FFEFC3"/>
<rect x="466" y="48" width="16" height="16" rx="8" fill="#FFEFC3"/>
</g>
<g clip-path="url(#clip55_436_41)">
<rect x="466" y="78" width="16" height="16" rx="8" fill="#FFEFC3"/>
<rect x="466" y="78" width="16" height="16" rx="8" fill="#FFEFC3"/>
<rect x="466" y="78" width="16" height="16" rx="8" fill="#FFEFC3"/>
<rect x="466" y="78" width="16" height="16" rx="8" fill="#FFEFC3"/>
</g>
<g clip-path="url(#clip56_436_41)">
<rect x="466" y="108" width="16" height="16" rx="8" fill="#FFEFC3"/>
<rect x="466" y="108" width="16" height="16" rx="8" fill="#FFEFC3"/>
<rect x="466" y="108" width="16" height="16" rx="8" fill="#FFEFC3"/>
<rect x="466" y="108" width="16" height="16" rx="8" fill="#FFEFC3"/>
</g>
<rect x="466" y="18" width="16" height="16" rx="8" fill="#FFEFC3"/>
<rect x="466" y="18" width="16" height="16" rx="8" fill="#FFEFC3"/>
<rect x="592" y="-12" width="16" height="16" rx="8" fill="#FFEFC3"/>
<rect x="592" y="-12" width="16" height="16" rx="8" fill="#FFEFC3"/>
<g clip-path="url(#clip57_436_41)">
<rect x="592" y="48" width="16" height="16" rx="8" fill="#FFEFC3"/>
<rect x="592" y="48" width="16" height="16" rx="8" fill="#FFEFC3"/>
<rect x="592" y="48" width="16" height="16" rx="8" fill="#FFEFC3"/>
<rect x="592" y="48" width="16" height="16" rx="8" fill="#FFEFC3"/>
</g>
<g clip-path="url(#clip58_436_41)">
<rect x="592" y="78" width="16" height="16" rx="8" fill="#FFEFC3"/>
<rect x="592" y="78" width="16" height="16" rx="8" fill="#FFEFC3"/>
<rect x="592" y="78" width="16" height="16" rx="8" fill="#FFEFC3"/>
<rect x="592" y="78" width="16" height="16" rx="8" fill="#FFEFC3"/>
</g>
<g clip-path="url(#clip59_436_41)">
<rect x="592" y="108" width="16" height="16" rx="8" fill="#FFEFC3"/>
<rect x="592" y="108" width="16" height="16" rx="8" fill="#FFEFC3"/>
<rect x="592" y="108" width="16" height="16" rx="8" fill="#FFEFC3"/>
<rect x="592" y="108" width="16" height="16" rx="8" fill="#FFEFC3"/>
</g>
<rect x="592" y="18" width="16" height="16" rx="8" fill="#FFEFC3"/>
<rect x="592" y="18" width="16" height="16" rx="8" fill="#FFEFC3"/>
<rect x="720" y="-12" width="16" height="16" rx="8" fill="#FFEFC3"/>
<rect x="720" y="-12" width="16" height="16" rx="8" fill="#FFEFC3"/>
<g clip-path="url(#clip60_436_41)">
<rect x="720" y="48" width="16" height="16" rx="8" fill="#FFEFC3"/>
<rect x="720" y="48" width="16" height="16" rx="8" fill="#FFEFC3"/>
<rect x="720" y="48" width="16" height="16" rx="8" fill="#FFEFC3"/>
<rect x="720" y="48" width="16" height="16" rx="8" fill="#FFEFC3"/>
</g>
<g clip-path="url(#clip61_436_41)">
<rect x="720" y="78" width="16" height="16" rx="8" fill="#FFEFC3"/>
<rect x="720" y="78" width="16" height="16" rx="8" fill="#FFEFC3"/>
<rect x="720" y="78" width="16" height="16" rx="8" fill="#FFEFC3"/>
<rect x="720" y="78" width="16" height="16" rx="8" fill="#FFEFC3"/>
</g>
<g clip-path="url(#clip62_436_41)">
<rect x="720" y="108" width="16" height="16" rx="8" fill="#FFEFC3"/>
<rect x="720" y="108" width="16" height="16" rx="8" fill="#FFEFC3"/>
<rect x="720" y="108" width="16" height="16" rx="8" fill="#FFEFC3"/>
<rect x="720" y="108" width="16" height="16" rx="8" fill="#FFEFC3"/>
</g>
<rect x="720" y="18" width="16" height="16" rx="8" fill="#FFEFC3"/>
<rect x="720" y="18" width="16" height="16" rx="8" fill="#FFEFC3"/>
<rect x="688" y="-12" width="16" height="16" rx="8" fill="#FFEFC3"/>
<rect x="688" y="-12" width="16" height="16" rx="8" fill="#FFEFC3"/>
<g clip-path="url(#clip63_436_41)">
<rect x="688" y="48" width="16" height="16" rx="8" fill="#FFEFC3"/>
<rect x="688" y="48" width="16" height="16" rx="8" fill="#FFEFC3"/>
<rect x="688" y="48" width="16" height="16" rx="8" fill="#FFEFC3"/>
<rect x="688" y="48" width="16" height="16" rx="8" fill="#FFEFC3"/>
</g>
<g clip-path="url(#clip64_436_41)">
<rect x="688" y="78" width="16" height="16" rx="8" fill="#FFEFC3"/>
<rect x="688" y="78" width="16" height="16" rx="8" fill="#FFEFC3"/>
<rect x="688" y="78" width="16" height="16" rx="8" fill="#FFEFC3"/>
<rect x="688" y="78" width="16" height="16" rx="8" fill="#FFEFC3"/>
</g>
<g clip-path="url(#clip65_436_41)">
<rect x="688" y="108" width="16" height="16" rx="8" fill="#FFEFC3"/>
<rect x="688" y="108" width="16" height="16" rx="8" fill="#FFEFC3"/>
<rect x="688" y="108" width="16" height="16" rx="8" fill="#FFEFC3"/>
<rect x="688" y="108" width="16" height="16" rx="8" fill="#FFEFC3"/>
</g>
<rect x="688" y="18" width="16" height="16" rx="8" fill="#FFEFC3"/>
<rect x="688" y="18" width="16" height="16" rx="8" fill="#FFEFC3"/>
<rect x="656" y="-12" width="16" height="16" rx="8" fill="#FFEFC3"/>
<rect x="656" y="-12" width="16" height="16" rx="8" fill="#FFEFC3"/>
<g clip-path="url(#clip66_436_41)">
<rect x="656" y="48" width="16" height="16" rx="8" fill="#FFEFC3"/>
<rect x="656" y="48" width="16" height="16" rx="8" fill="#FFEFC3"/>
<rect x="656" y="48" width="16" height="16" rx="8" fill="#FFEFC3"/>
<rect x="656" y="48" width="16" height="16" rx="8" fill="#FFEFC3"/>
</g>
<g clip-path="url(#clip67_436_41)">
<rect x="656" y="78" width="16" height="16" rx="8" fill="#FFEFC3"/>
<rect x="656" y="78" width="16" height="16" rx="8" fill="#FFEFC3"/>
<rect x="656" y="78" width="16" height="16" rx="8" fill="#FFEFC3"/>
<rect x="656" y="78" width="16" height="16" rx="8" fill="#FFEFC3"/>
</g>
<g clip-path="url(#clip68_436_41)">
<rect x="656" y="108" width="16" height="16" rx="8" fill="#FFEFC3"/>
<rect x="656" y="108" width="16" height="16" rx="8" fill="#FFEFC3"/>
<rect x="656" y="108" width="16" height="16" rx="8" fill="#FFEFC3"/>
<rect x="656" y="108" width="16" height="16" rx="8" fill="#FFEFC3"/>
</g>
<rect x="656" y="18" width="16" height="16" rx="8" fill="#FFEFC3"/>
<rect x="656" y="18" width="16" height="16" rx="8" fill="#FFEFC3"/>
<rect x="624" y="-12" width="16" height="16" rx="8" fill="#FFEFC3"/>
<rect x="624" y="-12" width="16" height="16" rx="8" fill="#FFEFC3"/>
<g clip-path="url(#clip69_436_41)">
<rect x="624" y="48" width="16" height="16" rx="8" fill="#FFEFC3"/>
<rect x="624" y="48" width="16" height="16" rx="8" fill="#FFEFC3"/>
<rect x="624" y="48" width="16" height="16" rx="8" fill="#FFEFC3"/>
<rect x="624" y="48" width="16" height="16" rx="8" fill="#FFEFC3"/>
</g>
<g clip-path="url(#clip70_436_41)">
<rect x="624" y="78" width="16" height="16" rx="8" fill="#FFEFC3"/>
<rect x="624" y="78" width="16" height="16" rx="8" fill="#FFEFC3"/>
<rect x="624" y="78" width="16" height="16" rx="8" fill="#FFEFC3"/>
<rect x="624" y="78" width="16" height="16" rx="8" fill="#FFEFC3"/>
</g>
<g clip-path="url(#clip71_436_41)">
<rect x="624" y="108" width="16" height="16" rx="8" fill="#FFEFC3"/>
<rect x="624" y="108" width="16" height="16" rx="8" fill="#FFEFC3"/>
<rect x="624" y="108" width="16" height="16" rx="8" fill="#FFEFC3"/>
<rect x="624" y="108" width="16" height="16" rx="8" fill="#FFEFC3"/>
</g>
<rect x="624" y="18" width="16" height="16" rx="8" fill="#FFEFC3"/>
<rect x="624" y="18" width="16" height="16" rx="8" fill="#FFEFC3"/>
<rect x="750" y="-12" width="16" height="16" rx="8" fill="#FFEFC3"/>
<rect x="750" y="-12" width="16" height="16" rx="8" fill="#FFEFC3"/>
<g clip-path="url(#clip72_436_41)">
<rect x="750" y="48" width="16" height="16" rx="8" fill="#FFEFC3"/>
<rect x="750" y="48" width="16" height="16" rx="8" fill="#FFEFC3"/>
<rect x="750" y="48" width="16" height="16" rx="8" fill="#FFEFC3"/>
<rect x="750" y="48" width="16" height="16" rx="8" fill="#FFEFC3"/>
</g>
<g clip-path="url(#clip73_436_41)">
<rect x="750" y="78" width="16" height="16" rx="8" fill="#FFEFC3"/>
<rect x="750" y="78" width="16" height="16" rx="8" fill="#FFEFC3"/>
<rect x="750" y="78" width="16" height="16" rx="8" fill="#FFEFC3"/>
<rect x="750" y="78" width="16" height="16" rx="8" fill="#FFEFC3"/>
</g>
<g clip-path="url(#clip74_436_41)">
<rect x="750" y="108" width="16" height="16" rx="8" fill="#FFEFC3"/>
<rect x="750" y="108" width="16" height="16" rx="8" fill="#FFEFC3"/>
<rect x="750" y="108" width="16" height="16" rx="8" fill="#FFEFC3"/>
<rect x="750" y="108" width="16" height="16" rx="8" fill="#FFEFC3"/>
</g>
<rect x="750" y="18" width="16" height="16" rx="8" fill="#FFEFC3"/>
<rect x="750" y="18" width="16" height="16" rx="8" fill="#FFEFC3"/>
<rect x="782" y="-12" width="16" height="16" rx="8" fill="#FFEFC3"/>
<rect x="782" y="-12" width="16" height="16" rx="8" fill="#FFEFC3"/>
<g clip-path="url(#clip75_436_41)">
<rect x="782" y="48" width="16" height="16" rx="8" fill="#FFEFC3"/>
<rect x="782" y="48" width="16" height="16" rx="8" fill="#FFEFC3"/>
<rect x="782" y="48" width="16" height="16" rx="8" fill="#FFEFC3"/>
<rect x="782" y="48" width="16" height="16" rx="8" fill="#FFEFC3"/>
</g>
<g clip-path="url(#clip76_436_41)">
<rect x="782" y="78" width="16" height="16" rx="8" fill="#FFEFC3"/>
<rect x="782" y="78" width="16" height="16" rx="8" fill="#FFEFC3"/>
<rect x="782" y="78" width="16" height="16" rx="8" fill="#FFEFC3"/>
<rect x="782" y="78" width="16" height="16" rx="8" fill="#FFEFC3"/>
</g>
<g clip-path="url(#clip77_436_41)">
<rect x="782" y="108" width="16" height="16" rx="8" fill="#FFEFC3"/>
<rect x="782" y="108" width="16" height="16" rx="8" fill="#FFEFC3"/>
<rect x="782" y="108" width="16" height="16" rx="8" fill="#FFEFC3"/>
<rect x="782" y="108" width="16" height="16" rx="8" fill="#FFEFC3"/>
</g>
<rect x="782" y="18" width="16" height="16" rx="8" fill="#FFEFC3"/>
<rect x="782" y="18" width="16" height="16" rx="8" fill="#FFEFC3"/>
<defs>
<clipPath id="clip0_436_41">
<rect x="88" y="48" width="16" height="16" rx="8" fill="white"/>
</clipPath>
<clipPath id="clip1_436_41">
<rect x="88" y="78" width="16" height="16" rx="8" fill="white"/>
</clipPath>
<clipPath id="clip2_436_41">
<rect x="88" y="108" width="16" height="16" rx="8" fill="white"/>
</clipPath>
<clipPath id="clip3_436_41">
<rect x="56" y="48" width="16" height="16" rx="8" fill="white"/>
</clipPath>
<clipPath id="clip4_436_41">
<rect x="56" y="78" width="16" height="16" rx="8" fill="white"/>
</clipPath>
<clipPath id="clip5_436_41">
<rect x="56" y="108" width="16" height="16" rx="8" fill="white"/>
</clipPath>
<clipPath id="clip6_436_41">
<rect x="24" y="48" width="16" height="16" rx="8" fill="white"/>
</clipPath>
<clipPath id="clip7_436_41">
<rect x="24" y="78" width="16" height="16" rx="8" fill="white"/>
</clipPath>
<clipPath id="clip8_436_41">
<rect x="24" y="108" width="16" height="16" rx="8" fill="white"/>
</clipPath>
<clipPath id="clip9_436_41">
<rect x="-8" y="48" width="16" height="16" rx="8" fill="white"/>
</clipPath>
<clipPath id="clip10_436_41">
<rect x="-8" y="78" width="16" height="16" rx="8" fill="white"/>
</clipPath>
<clipPath id="clip11_436_41">
<rect x="-8" y="108" width="16" height="16" rx="8" fill="white"/>
</clipPath>
<clipPath id="clip12_436_41">
<rect x="118" y="48" width="16" height="16" rx="8" fill="white"/>
</clipPath>
<clipPath id="clip13_436_41">
<rect x="118" y="78" width="16" height="16" rx="8" fill="white"/>
</clipPath>
<clipPath id="clip14_436_41">
<rect x="118" y="108" width="16" height="16" rx="8" fill="white"/>
</clipPath>
<clipPath id="clip15_436_41">
<rect x="246" y="48" width="16" height="16" rx="8" fill="white"/>
</clipPath>
<clipPath id="clip16_436_41">
<rect x="246" y="78" width="16" height="16" rx="8" fill="white"/>
</clipPath>
<clipPath id="clip17_436_41">
<rect x="246" y="108" width="16" height="16" rx="8" fill="white"/>
</clipPath>
<clipPath id="clip18_436_41">
<rect x="214" y="48" width="16" height="16" rx="8" fill="white"/>
</clipPath>
<clipPath id="clip19_436_41">
<rect x="214" y="78" width="16" height="16" rx="8" fill="white"/>
</clipPath>
<clipPath id="clip20_436_41">
<rect x="214" y="108" width="16" height="16" rx="8" fill="white"/>
</clipPath>
<clipPath id="clip21_436_41">
<rect x="182" y="48" width="16" height="16" rx="8" fill="white"/>
</clipPath>
<clipPath id="clip22_436_41">
<rect x="182" y="78" width="16" height="16" rx="8" fill="white"/>
</clipPath>
<clipPath id="clip23_436_41">
<rect x="182" y="108" width="16" height="16" rx="8" fill="white"/>
</clipPath>
<clipPath id="clip24_436_41">
<rect x="150" y="48" width="16" height="16" rx="8" fill="white"/>
</clipPath>
<clipPath id="clip25_436_41">
<rect x="150" y="78" width="16" height="16" rx="8" fill="white"/>
</clipPath>
<clipPath id="clip26_436_41">
<rect x="150" y="108" width="16" height="16" rx="8" fill="white"/>
</clipPath>
<clipPath id="clip27_436_41">
<rect x="276" y="48" width="16" height="16" rx="8" fill="white"/>
</clipPath>
<clipPath id="clip28_436_41">
<rect x="276" y="78" width="16" height="16" rx="8" fill="white"/>
</clipPath>
<clipPath id="clip29_436_41">
<rect x="276" y="108" width="16" height="16" rx="8" fill="white"/>
</clipPath>
<clipPath id="clip30_436_41">
<rect x="404" y="48" width="16" height="16" rx="8" fill="white"/>
</clipPath>
<clipPath id="clip31_436_41">
<rect x="404" y="78" width="16" height="16" rx="8" fill="white"/>
</clipPath>
<clipPath id="clip32_436_41">
<rect x="404" y="108" width="16" height="16" rx="8" fill="white"/>
</clipPath>
<clipPath id="clip33_436_41">
<rect x="372" y="48" width="16" height="16" rx="8" fill="white"/>
</clipPath>
<clipPath id="clip34_436_41">
<rect x="372" y="78" width="16" height="16" rx="8" fill="white"/>
</clipPath>
<clipPath id="clip35_436_41">
<rect x="372" y="108" width="16" height="16" rx="8" fill="white"/>
</clipPath>
<clipPath id="clip36_436_41">
<rect x="340" y="48" width="16" height="16" rx="8" fill="white"/>
</clipPath>
<clipPath id="clip37_436_41">
<rect x="340" y="78" width="16" height="16" rx="8" fill="white"/>
</clipPath>
<clipPath id="clip38_436_41">
<rect x="340" y="108" width="16" height="16" rx="8" fill="white"/>
</clipPath>
<clipPath id="clip39_436_41">
<rect x="308" y="48" width="16" height="16" rx="8" fill="white"/>
</clipPath>
<clipPath id="clip40_436_41">
<rect x="308" y="78" width="16" height="16" rx="8" fill="white"/>
</clipPath>
<clipPath id="clip41_436_41">
<rect x="308" y="108" width="16" height="16" rx="8" fill="white"/>
</clipPath>
<clipPath id="clip42_436_41">
<rect x="434" y="48" width="16" height="16" rx="8" fill="white"/>
</clipPath>
<clipPath id="clip43_436_41">
<rect x="434" y="78" width="16" height="16" rx="8" fill="white"/>
</clipPath>
<clipPath id="clip44_436_41">
<rect x="434" y="108" width="16" height="16" rx="8" fill="white"/>
</clipPath>
<clipPath id="clip45_436_41">
<rect x="562" y="48" width="16" height="16" rx="8" fill="white"/>
</clipPath>
<clipPath id="clip46_436_41">
<rect x="562" y="78" width="16" height="16" rx="8" fill="white"/>
</clipPath>
<clipPath id="clip47_436_41">
<rect x="562" y="108" width="16" height="16" rx="8" fill="white"/>
</clipPath>
<clipPath id="clip48_436_41">
<rect x="530" y="48" width="16" height="16" rx="8" fill="white"/>
</clipPath>
<clipPath id="clip49_436_41">
<rect x="530" y="78" width="16" height="16" rx="8" fill="white"/>
</clipPath>
<clipPath id="clip50_436_41">
<rect x="530" y="108" width="16" height="16" rx="8" fill="white"/>
</clipPath>
<clipPath id="clip51_436_41">
<rect x="498" y="48" width="16" height="16" rx="8" fill="white"/>
</clipPath>
<clipPath id="clip52_436_41">
<rect x="498" y="78" width="16" height="16" rx="8" fill="white"/>
</clipPath>
<clipPath id="clip53_436_41">
<rect x="498" y="108" width="16" height="16" rx="8" fill="white"/>
</clipPath>
<clipPath id="clip54_436_41">
<rect x="466" y="48" width="16" height="16" rx="8" fill="white"/>
</clipPath>
<clipPath id="clip55_436_41">
<rect x="466" y="78" width="16" height="16" rx="8" fill="white"/>
</clipPath>
<clipPath id="clip56_436_41">
<rect x="466" y="108" width="16" height="16" rx="8" fill="white"/>
</clipPath>
<clipPath id="clip57_436_41">
<rect x="592" y="48" width="16" height="16" rx="8" fill="white"/>
</clipPath>
<clipPath id="clip58_436_41">
<rect x="592" y="78" width="16" height="16" rx="8" fill="white"/>
</clipPath>
<clipPath id="clip59_436_41">
<rect x="592" y="108" width="16" height="16" rx="8" fill="white"/>
</clipPath>
<clipPath id="clip60_436_41">
<rect x="720" y="48" width="16" height="16" rx="8" fill="white"/>
</clipPath>
<clipPath id="clip61_436_41">
<rect x="720" y="78" width="16" height="16" rx="8" fill="white"/>
</clipPath>
<clipPath id="clip62_436_41">
<rect x="720" y="108" width="16" height="16" rx="8" fill="white"/>
</clipPath>
<clipPath id="clip63_436_41">
<rect x="688" y="48" width="16" height="16" rx="8" fill="white"/>
</clipPath>
<clipPath id="clip64_436_41">
<rect x="688" y="78" width="16" height="16" rx="8" fill="white"/>
</clipPath>
<clipPath id="clip65_436_41">
<rect x="688" y="108" width="16" height="16" rx="8" fill="white"/>
</clipPath>
<clipPath id="clip66_436_41">
<rect x="656" y="48" width="16" height="16" rx="8" fill="white"/>
</clipPath>
<clipPath id="clip67_436_41">
<rect x="656" y="78" width="16" height="16" rx="8" fill="white"/>
</clipPath>
<clipPath id="clip68_436_41">
<rect x="656" y="108" width="16" height="16" rx="8" fill="white"/>
</clipPath>
<clipPath id="clip69_436_41">
<rect x="624" y="48" width="16" height="16" rx="8" fill="white"/>
</clipPath>
<clipPath id="clip70_436_41">
<rect x="624" y="78" width="16" height="16" rx="8" fill="white"/>
</clipPath>
<clipPath id="clip71_436_41">
<rect x="624" y="108" width="16" height="16" rx="8" fill="white"/>
</clipPath>
<clipPath id="clip72_436_41">
<rect x="750" y="48" width="16" height="16" rx="8" fill="white"/>
</clipPath>
<clipPath id="clip73_436_41">
<rect x="750" y="78" width="16" height="16" rx="8" fill="white"/>
</clipPath>
<clipPath id="clip74_436_41">
<rect x="750" y="108" width="16" height="16" rx="8" fill="white"/>
</clipPath>
<clipPath id="clip75_436_41">
<rect x="782" y="48" width="16" height="16" rx="8" fill="white"/>
</clipPath>
<clipPath id="clip76_436_41">
<rect x="782" y="78" width="16" height="16" rx="8" fill="white"/>
</clipPath>
<clipPath id="clip77_436_41">
<rect x="782" y="108" width="16" height="16" rx="8" fill="white"/>
</clipPath>
</defs>
</svg>
