<svg width="43" height="43" viewBox="0 0 43 43" fill="none" xmlns="http://www.w3.org/2000/svg">
<rect width="43" height="43" rx="8" fill="white"/>
<path d="M16.9081 15.6541V27.3421C16.9079 27.4355 16.9323 27.5272 16.9789 27.6081C17.0254 27.689 17.0925 27.7562 17.1733 27.803C17.254 27.8497 17.3457 27.8744 17.4391 27.8744C17.5324 27.8745 17.6241 27.8499 17.705 27.8032L27.8263 21.959C27.9072 21.9124 27.9744 21.8453 28.0211 21.7645C28.0678 21.6837 28.0924 21.592 28.0924 21.4986C28.0924 21.4053 28.0678 21.3136 28.0211 21.2328C27.9744 21.152 27.9072 21.0849 27.8263 21.0383L17.705 15.1945C17.3745 15.0033 16.9081 15.2227 16.9081 15.6541Z" fill="black"/>
</svg>
