<svg width="18" height="18" viewBox="0 0 18 18" fill="none" xmlns="http://www.w3.org/2000/svg">
<path fill-rule="evenodd" clip-rule="evenodd" d="M8.52428 1C6.52979 1.00205 4.61754 1.79509 3.20698 3.20516C1.79642 4.61524 1.00273 6.52722 1 8.5217C1.00341 10.5162 1.79724 12.4281 3.20758 13.8384C4.61792 15.2487 6.52977 16.0426 8.52428 16.046C10.5183 16.0426 12.4296 15.2486 13.8392 13.8381C15.2487 12.4276 16.0414 10.5157 16.0434 8.5217C16.0414 6.52745 15.2482 4.61547 13.8381 3.20532C12.4279 1.79517 10.5185 1.00205 8.52428 1ZM8.52428 2.36711C9.33287 2.36541 10.1338 2.52346 10.8812 2.83219C11.6285 3.14092 12.3075 3.59423 12.8791 4.16611C13.4508 4.73799 13.9038 5.41717 14.2122 6.16463C14.5206 6.91209 14.6783 7.71312 14.6763 8.5217C14.6777 9.33032 14.5194 10.1312 14.2106 10.8786C13.9018 11.6259 13.4485 12.3049 12.8767 12.8767C12.3049 13.4485 11.6259 13.9018 10.8786 14.2106C10.1312 14.5194 9.33032 14.6777 8.5217 14.6763C7.71306 14.677 6.91223 14.5182 6.16504 14.2089C5.41786 13.8997 4.739 13.4462 4.16732 12.8743C3.59565 12.3023 3.14238 11.6233 2.83348 10.876C2.52458 10.1287 2.3661 9.32776 2.36711 8.51912C2.36643 7.7106 2.52527 6.90989 2.83452 6.16285C3.14377 5.41581 3.59736 4.73712 4.1693 4.16565C4.74125 3.59418 5.42032 3.14116 6.16762 2.83254C6.91492 2.52392 7.71576 2.36576 8.52428 2.36711ZM8.51397 5.0936C8.42354 5.09427 8.33414 5.11287 8.25096 5.14833C8.16777 5.18379 8.09245 5.2354 8.02935 5.30018C7.96625 5.36496 7.91663 5.44161 7.88337 5.5257C7.85011 5.60979 7.83386 5.69964 7.83557 5.79006V7.83815H5.79006C5.766 7.83687 5.74189 7.83687 5.71783 7.83815C5.54531 7.85924 5.38723 7.94501 5.2755 8.07814C5.16378 8.21128 5.10674 8.38185 5.11591 8.55541C5.12508 8.72897 5.19977 8.89258 5.3249 9.0132C5.45003 9.13383 5.61628 9.20246 5.79006 9.20526H7.83557V11.2533C7.83557 11.435 7.90772 11.6092 8.03615 11.7376C8.16459 11.866 8.33878 11.9382 8.52041 11.9382C8.70205 11.9382 8.87624 11.866 9.00467 11.7376C9.13311 11.6092 9.20526 11.435 9.20526 11.2533V9.20784H11.2534C11.435 9.20784 11.6092 9.13568 11.7376 9.00725C11.866 8.87882 11.9382 8.70462 11.9382 8.52299C11.9382 8.34136 11.866 8.16717 11.7376 8.03873C11.6092 7.9103 11.435 7.83815 11.2534 7.83815H9.20526V5.79006C9.20699 5.69855 9.19033 5.60764 9.15627 5.5227C9.12221 5.43776 9.07144 5.36052 9.00697 5.29557C8.9425 5.23061 8.86564 5.17927 8.78095 5.14458C8.69627 5.10988 8.60548 5.09255 8.51397 5.0936Z" fill="white"/>
</svg>
